<?xml version="1.0" ?>
<svg xmlns="http://www.w3.org/2000/svg" version="1.1" width="64" height="64">
  <defs/>
  <g>
    <path d="M 27.658117294311523 17.6612548828125 C 44.16056823730469 28.438854217529297 2.3994834423065186 0.017316551879048347 0.8298478126525879 30.433626174926758 C 25.031797409057617 61.32618713378906 33.108177185058594 62.99546432495117 43.322906494140625 62.70765686035156" stroke-width="2.0022993087768555" fill="none" stroke="rgb(255, 255, 255)" stroke-opacity="0.97374016" stroke-linecap="round" stroke-linejoin="round"/>
    <path d="M 26.039878845214844 60.357574462890625 C 1.9874992370605469 57.304290771484375 0.47997382283210754 21.281360626220703 5.192530632019043 29.434110641479492 C 52.7685546875 60.87754821777344 21.752666473388672 62.97620391845703 2.1868629455566406 48.16422653198242" stroke-width="1.0000017881393433" fill="none" stroke="rgb(255, 255, 255)" stroke-opacity="1.0969085e-05" stroke-linecap="round" stroke-linejoin="round"/>
    <path d="M 0.4260675013065338 53.634010314941406 C 0.0804072916507721 62.794715881347656 0.09316562861204147 12.15863037109375 2.3389744758605957 52.25893783569336 C 55.865142822265625 1.848721981048584 63.22261428833008 50.05274963378906 54.17752456665039 62.06328201293945" stroke-width="1.0000032186508179" fill="none" stroke="rgb(255, 255, 255)" stroke-opacity="4.6607347e-06" stroke-linecap="round" stroke-linejoin="round"/>
    <path d="M 61.305171966552734 5.837459564208984 C 63.99367141723633 14.569437026977539 51.44221878051758 20.747848510742188 15.989730834960938 18.95882797241211 C 0.0028147317934781313 12.82651138305664 6.680875230813399e-05 9.660599708557129 4.004222393035889 7.903406620025635" stroke-width="2.475616455078125" fill="none" stroke="rgb(255, 255, 255)" stroke-opacity="0.008362111" stroke-linecap="round" stroke-linejoin="round"/>
    <path d="M 42.767478942871094 63.59397888183594 C 43.66324234008789 63.0339469909668 63.398223876953125 55.67579650878906 61.87632751464844 28.712966918945312 C 59.28388595581055 0.0020266377832740545 15.044113159179688 36.06624984741211 38.4290885925293 1.5278242826461792" stroke-width="2.2702770233154297" fill="none" stroke="rgb(255, 255, 255)" stroke-opacity="0.974464" stroke-linecap="round" stroke-linejoin="round"/>
    <path d="M 17.977712631225586 61.895511627197266 C 0.07813037186861038 15.542586326599121 0.05240311473608017 63.029083251953125 2.83911395072937 5.780348300933838 C 0.28223586082458496 2.1127912998199463 0.6019214987754822 47.51443099975586 16.308738708496094 0.39178764820098877" stroke-width="8.995192527770996" fill="none" stroke="rgb(255, 255, 255)" stroke-opacity="1.0373082e-05" stroke-linecap="round" stroke-linejoin="round"/>
    <path d="M 63.95355224609375 17.132904052734375 C 63.99272155761719 40.29557418823242 63.97956848144531 0.4667268693447113 21.69325065612793 2.03650164604187 C 34.26436233520508 1.269738793373108 63.99589538574219 0.13639242947101593 63.97384262084961 56.9881591796875" stroke-width="1.2984662055969238" fill="none" stroke="rgb(255, 255, 255)" stroke-opacity="0.0034316368" stroke-linecap="round" stroke-linejoin="round"/>
    <path d="M 9.452560424804688 58.39000701904297 C 63.71276092529297 61.454185485839844 63.93528747558594 63.85477066040039 63.99850082397461 3.9467787742614746 C 63.919891357421875 55.247764587402344 63.99983215332031 63.994232177734375 60.86447525024414 1.3680475950241089" stroke-width="5.451871871948242" fill="none" stroke="rgb(255, 255, 255)" stroke-opacity="0.0022140057" stroke-linecap="round" stroke-linejoin="round"/>
    <path d="M 0.3211749792098999 10.146644592285156 C 0.001780785503797233 30.279579162597656 0.001627039280720055 49.798828125 18.685962677001953 63.90916061401367 C 6.1494832038879395 63.39983367919922 22.776906967163086 62.33935546875 59.41729736328125 61.652584075927734" stroke-width="2.1104257106781006" fill="none" stroke="rgb(255, 255, 255)" stroke-opacity="0.0023546147" stroke-linecap="round" stroke-linejoin="round"/>
    <path d="M 42.72719955444336 13.520514488220215 C 2.452441692352295 6.238752841949463 18.171537399291992 62.85352325439453 51.15744400024414 35.00048065185547 C 55.00841522216797 0.9264424443244934 7.049954414367676 17.320980072021484 18.225208282470703 13.46352767944336" stroke-width="2.200519561767578" fill="none" stroke="rgb(255, 255, 255)" stroke-opacity="1.5172196e-08" stroke-linecap="round" stroke-linejoin="round"/>
    <path d="M 56.664676666259766 5.132152557373047 C 49.943843841552734 0.4531255066394806 22.503456115722656 2.13146710395813 46.27018356323242 1.615687370300293 C 31.896331787109375 0.0012847916223108768 7.209480285644531 7.0840044021606445 45.84640884399414 8.364042282104492" stroke-width="1.7363320589065552" fill="none" stroke="rgb(255, 255, 255)" stroke-opacity="0.966749" stroke-linecap="round" stroke-linejoin="round"/>
    <path d="M 63.94340133666992 3.2581117153167725 C 63.91649627685547 32.10693359375 63.97835159301758 9.470398902893066 17.74800682067871 30.977977752685547 C 0.006663248408585787 63.90776062011719 0.005181549582630396 16.312681198120117 0.032221391797065735 60.307762145996094" stroke-width="1.0000003576278687" fill="none" stroke="rgb(255, 255, 255)" stroke-opacity="9.618447e-05" stroke-linecap="round" stroke-linejoin="round"/>
    <path d="M 1.671745777130127 4.50602388381958 C 6.696878910064697 0.0026908006984740496 42.3109245300293 0.30853500962257385 2.0992484092712402 1.583150863647461 C 32.44956970214844 2.3242077827453613 0.34988099336624146 0.5042822360992432 2.737396717071533 0.826875627040863" stroke-width="1.0263129472732544" fill="none" stroke="rgb(255, 255, 255)" stroke-opacity="0.002507738" stroke-linecap="round" stroke-linejoin="round"/>
    <path d="M 63.78730392456055 58.3796272277832 C 0.824398934841156 7.918766975402832 0.07742650806903839 53.883750915527344 1.031110405921936 59.1893196105957 C 5.778047561645508 4.653715133666992 11.178044319152832 30.296751022338867 26.224102020263672 62.37761688232422" stroke-width="1.0000008344650269" fill="none" stroke="rgb(255, 255, 255)" stroke-opacity="0.00021256668" stroke-linecap="round" stroke-linejoin="round"/>
    <path d="M 63.98542785644531 63.794715881347656 C 63.79741287231445 53.05386734008789 63.998077392578125 1.9815199375152588 63.97603225708008 43.959503173828125 C 0.21998439729213715 63.85122299194336 0.004289372358471155 0.6380243301391602 0.010983933694660664 60.008182525634766" stroke-width="1.0004079341888428" fill="none" stroke="rgb(255, 255, 255)" stroke-opacity="0.00020565807" stroke-linecap="round" stroke-linejoin="round"/>
    <path d="M 0.23467124998569489 61.86235809326172 C 0.7059338688850403 13.645942687988281 0.0071892403066158295 30.58100700378418 3.670189380645752 1.7456883192062378 C 2.274090051651001 1.446315050125122 2.6372389793395996 60.74580764770508 7.096340656280518 62.73507308959961" stroke-width="1.0010114908218384" fill="none" stroke="rgb(255, 255, 255)" stroke-opacity="1.8021142e-06" stroke-linecap="round" stroke-linejoin="round"/>
  </g>
</svg>
