<?xml version="1.0" ?>
<svg xmlns="http://www.w3.org/2000/svg" version="1.1" width="64" height="64">
  <defs/>
  <g>
    <path d="M 16.496747970581055 18.428274154663086 C 7.313531398773193 -5.3178202506387606e-05 61.783382415771484 -1.7118312825914472e-05 62.49925994873047 27.741619110107422 C 63.930110931396484 0.1350225806236267 62.32049560546875 7.378932952880859 59.0030632019043 3.7505507469177246" stroke-width="1.4610474109649658" fill="none" stroke="rgb(255, 255, 255)" stroke-opacity="0.0015042381" stroke-linecap="round" stroke-linejoin="round"/>
    <path d="M 63.25007629394531 36.08030319213867 C 64.0000228881836 0.31300175189971924 63.99988555908203 61.248451232910156 0.9075974225997925 0.5769298076629639 C 0.002326143207028508 0.7583072781562805 0.007092264015227556 1.8368332386016846 0.08117031306028366 0.07097961008548737" stroke-width="4.339337348937988" fill="none" stroke="rgb(255, 255, 255)" stroke-opacity="1.8596649e-10" stroke-linecap="round" stroke-linejoin="round"/>
    <path d="M 0.4870363771915436 63.99999237060547 C 5.92232084274292 0.4221964180469513 0.025806227698922157 0.07647135108709335 2.31489896774292 7.924350261688232 C 56.9852294921875 63.75698471069336 35.9305534362793 63.97322082519531 62.0830192565918 50.91246795654297" stroke-width="2.519282102584839" fill="none" stroke="rgb(255, 255, 255)" stroke-opacity="5.7536953e-10" stroke-linecap="round" stroke-linejoin="round"/>
    <path d="M 60.83396530151367 62.06949234008789 C 63.99991989135742 0.2691660523414612 63.79048538208008 56.06020736694336 31.84884262084961 1.3861236572265625 C 62.771087646484375 7.604194641113281 8.757038116455078 62.00746536254883 61.14429473876953 0.2923220694065094" stroke-width="2.7656564712524414" fill="none" stroke="rgb(255, 255, 255)" stroke-opacity="8.834055e-06" stroke-linecap="round" stroke-linejoin="round"/>
    <path d="M 39.924373626708984 21.17352867126465 C 41.654293060302734 5.487270355224609 39.159202575683594 7.820772647857666 41.956886291503906 26.979808807373047 C 34.05099868774414 13.43841552734375 51.503875732421875 30.305265426635742 48.10865783691406 16.67470359802246" stroke-width="2.0663092136383057" fill="none" stroke="rgb(255, 255, 255)" stroke-opacity="0.7000722" stroke-linecap="round" stroke-linejoin="round"/>
    <path d="M 64.0002212524414 63.08470153808594 C 63.999874114990234 63.94478988647461 63.999847412109375 33.71049118041992 9.089861869812012 63.803958892822266 C 9.440675735473633 18.155319213867188 43.26115036010742 49.25687026977539 63.9365234375 51.053253173828125" stroke-width="1.0000004768371582" fill="none" stroke="rgb(255, 255, 255)" stroke-opacity="2.732704e-10" stroke-linecap="round" stroke-linejoin="round"/>
    <path d="M 63.69027328491211 6.62655002088286e-05 C 12.976157188415527 -0.0001310764637310058 55.59710693359375 0.0002794340252876282 61.303836822509766 28.74642562866211 C 22.568965911865234 0.12018956989049911 63.651954650878906 63.73174285888672 63.717315673828125 63.987701416015625" stroke-width="1.0000381469726562" fill="none" stroke="rgb(255, 255, 255)" stroke-opacity="3.844231e-10" stroke-linecap="round" stroke-linejoin="round"/>
    <path d="M 37.67961883544922 8.688313391758129e-05 C 0.9275357723236084 0.00020401354413479567 7.928457736968994 62.37199783325195 17.456539154052734 0.08335932344198227 C 25.595815658569336 63.96600341796875 1.539011001586914 63.99983596801758 59.53229904174805 63.99984359741211" stroke-width="1.000001072883606" fill="none" stroke="rgb(255, 255, 255)" stroke-opacity="4.297097e-10" stroke-linecap="round" stroke-linejoin="round"/>
    <path d="M 3.3595192432403564 1.6648168563842773 C 63.30252456665039 0.008051742799580097 55.155113220214844 0.012344462797045708 37.24891662597656 61.052833557128906 C 63.99944305419922 32.00080108642578 62.819461822509766 56.075653076171875 44.42394256591797 14.103681564331055" stroke-width="1.1870365142822266" fill="none" stroke="rgb(255, 255, 255)" stroke-opacity="6.3940525e-10" stroke-linecap="round" stroke-linejoin="round"/>
    <path d="M 16.388662338256836 14.223984718322754 C 6.768481731414795 8.429130554199219 0.0181781817227602 14.203291893005371 1.4201472997665405 44.69504928588867 C 1.3817627429962158 53.453819274902344 8.692002296447754 64.00011444091797 33.87567138671875 62.678035736083984" stroke-width="2.251339912414551" fill="none" stroke="rgb(255, 255, 255)" stroke-opacity="0.9999392" stroke-linecap="round" stroke-linejoin="round"/>
    <path d="M 24.855527877807617 30.755823135375977 C 37.604557037353516 0.21258850395679474 3.0093119144439697 58.215576171875 59.326011657714844 30.282289505004883 C 63.976776123046875 56.50890350341797 40.580078125 63.70932388305664 15.249348640441895 46.89735412597656" stroke-width="1.92923903465271" fill="none" stroke="rgb(255, 255, 255)" stroke-opacity="0.9963486" stroke-linecap="round" stroke-linejoin="round"/>
    <path d="M 56.41015625 50.05927658081055 C 40.2703857421875 53.1719970703125 0.2867260277271271 56.87791442871094 62.65181350708008 0.639243483543396 C 10.868474006652832 0.00010655300866346806 0.7628585696220398 0.0001520419173175469 52.41912841796875 49.712528228759766" stroke-width="1.0000066757202148" fill="none" stroke="rgb(255, 255, 255)" stroke-opacity="2.553674e-10" stroke-linecap="round" stroke-linejoin="round"/>
    <path d="M 19.170656204223633 63.217926025390625 C 0.8280482888221741 0.08784585446119308 61.78429412841797 0.11213591694831848 62.35123825073242 57.612735748291016 C 63.665435791015625 4.290576457977295 7.834115982055664 59.28180694580078 4.191558361053467 63.99312973022461" stroke-width="1.0000005960464478" fill="none" stroke="rgb(255, 255, 255)" stroke-opacity="2.4458697e-09" stroke-linecap="round" stroke-linejoin="round"/>
    <path d="M 60.487178802490234 9.157658576965332 C 63.05559539794922 0.18314845860004425 63.290523529052734 0.0007726598996669054 48.36430358886719 0.6336348056793213 C 51.67921829223633 7.084303433657624e-06 0.07718401402235031 0.0010532262967899442 0.016378823667764664 62.36039733886719" stroke-width="1.000000238418579" fill="none" stroke="rgb(255, 255, 255)" stroke-opacity="1.1182763e-10" stroke-linecap="round" stroke-linejoin="round"/>
    <path d="M 41.891971588134766 2.0531203746795654 C 46.49640655517578 0.00023587504983879626 61.06193923950195 8.529929161071777 62.648170471191406 23.90591812133789 C 60.11110305786133 54.11336898803711 61.18220520019531 63.99619674682617 27.952913284301758 62.308990478515625" stroke-width="2.000586748123169" fill="none" stroke="rgb(255, 255, 255)" stroke-opacity="0.9996791" stroke-linecap="round" stroke-linejoin="round"/>
    <path d="M 63.73011779785156 0.1722514033317566 C 63.99024963378906 57.51156234741211 63.97856521606445 63.99937057495117 4.348586082458496 63.998695373535156 C 0.00015536940190941095 28.27839469909668 0.0015446004690602422 63.99037170410156 9.011242866516113 8.782203674316406" stroke-width="6.241676330566406" fill="none" stroke="rgb(255, 255, 255)" stroke-opacity="1.02148956e-10" stroke-linecap="round" stroke-linejoin="round"/>
  </g>
</svg>
