<?xml version="1.0" ?>
<svg xmlns="http://www.w3.org/2000/svg" version="1.1" width="64" height="64">
  <defs/>
  <g>
    <path d="M 33.98740005493164 15.785032272338867 C 44.389793395996094 33.11280059814453 7.008090496063232 0.01332707330584526 0.8602172136306763 33.595664978027344 C 2.6738858222961426 61.64101791381836 40.623313903808594 63.987518310546875 40.147987365722656 62.767372131347656" stroke-width="2.0179009437561035" fill="none" stroke="rgb(255, 255, 255)" stroke-opacity="0.99759185" stroke-linecap="round" stroke-linejoin="round"/>
    <path d="M 4.449103832244873 62.767704010009766 C 0.31554868817329407 63.79249572753906 2.383784055709839 53.38987731933594 4.494511127471924 8.601480484008789 C 62.70461654663086 60.897151947021484 17.264530181884766 37.43223571777344 2.0106332302093506 11.744771957397461" stroke-width="1.000006079673767" fill="none" stroke="rgb(255, 255, 255)" stroke-opacity="1.6376847e-05" stroke-linecap="round" stroke-linejoin="round"/>
    <path d="M 0.4841196537017822 21.999263763427734 C 0.6908522844314575 51.66162872314453 0.7560595273971558 26.291778564453125 7.875394821166992 61.461849212646484 C 43.672149658203125 2.9102513790130615 62.620513916015625 61.93314743041992 62.464271545410156 61.25569534301758" stroke-width="1.0000038146972656" fill="none" stroke="rgb(255, 255, 255)" stroke-opacity="5.80197e-06" stroke-linecap="round" stroke-linejoin="round"/>
    <path d="M 59.524444580078125 8.235712051391602 C 62.81889343261719 15.825756072998047 52.054962158203125 23.867992401123047 22.17829704284668 20.725608825683594 C 0.0027143885381519794 13.770964622497559 0.0005916784866712987 10.104898452758789 5.727550029754639 10.993060111999512" stroke-width="2.903334617614746" fill="none" stroke="rgb(255, 255, 255)" stroke-opacity="3.171369e-05" stroke-linecap="round" stroke-linejoin="round"/>
    <path d="M 40.3229866027832 63.423336029052734 C 43.94417190551758 63.99281311035156 63.775978088378906 58.80430603027344 62.91545867919922 38.55500411987305 C 60.8664436340332 0.0006172142457216978 10.041936874389648 40.62257766723633 41.65616989135742 0.5926605463027954" stroke-width="2.2042226791381836" fill="none" stroke="rgb(255, 255, 255)" stroke-opacity="0.9841255" stroke-linecap="round" stroke-linejoin="round"/>
    <path d="M 17.419822692871094 60.15032196044922 C 1.804901123046875 13.004096984863281 0.7529951333999634 44.984073638916016 5.103663444519043 1.7622894048690796 C 1.603387475013733 1.315415382385254 0.7178977727890015 11.221821784973145 42.003170013427734 0.5676005482673645" stroke-width="8.843927383422852" fill="none" stroke="rgb(255, 255, 255)" stroke-opacity="2.1668739e-05" stroke-linecap="round" stroke-linejoin="round"/>
    <path d="M 63.94915771484375 15.295573234558105 C 63.98647689819336 51.844512939453125 63.95564651489258 0.773285448551178 29.76641845703125 1.2679277658462524 C 38.55262756347656 0.7110589146614075 63.98952102661133 0.14427775144577026 63.68363952636719 59.12397384643555" stroke-width="1.5744569301605225" fill="none" stroke="rgb(255, 255, 255)" stroke-opacity="0.0034725412" stroke-linecap="round" stroke-linejoin="round"/>
    <path d="M 12.155871391296387 47.26465606689453 C 63.962528228759766 60.02014923095703 63.91792678833008 63.39206314086914 63.98411178588867 9.300045013427734 C 63.96611404418945 58.16448211669922 63.99987030029297 63.995601654052734 60.694637298583984 2.4489152431488037" stroke-width="1.5413286685943604" fill="none" stroke="rgb(255, 255, 255)" stroke-opacity="0.0022414322" stroke-linecap="round" stroke-linejoin="round"/>
    <path d="M 0.44427257776260376 17.100479125976562 C 0.0008432565373368561 39.35449981689453 0.0010682267602533102 62.92448425292969 45.99491882324219 63.981021881103516 C 12.710728645324707 63.640098571777344 54.193363189697266 63.68980026245117 63.09524154663086 63.73131561279297" stroke-width="2.311074733734131" fill="none" stroke="rgb(255, 255, 255)" stroke-opacity="0.0022256062" stroke-linecap="round" stroke-linejoin="round"/>
    <path d="M 46.89418411254883 18.58843231201172 C 3.202335834503174 6.1094069480896 18.508438110351562 62.89234161376953 49.65366744995117 36.192176818847656 C 49.534088134765625 1.608456015586853 5.589906215667725 31.76549530029297 22.62541961669922 17.727758407592773" stroke-width="2.222498893737793" fill="none" stroke="rgb(255, 255, 255)" stroke-opacity="4.9634587e-06" stroke-linecap="round" stroke-linejoin="round"/>
    <path d="M 9.235024452209473 6.0067033767700195 C 44.02836227416992 13.262784004211426 29.640785217285156 38.72428894042969 44.60559844970703 2.263547420501709 C 37.6363639831543 0.11445734649896622 8.631587028503418 22.71035385131836 62.75971603393555 10.10368824005127" stroke-width="1.9468705654144287" fill="none" stroke="rgb(255, 255, 255)" stroke-opacity="0.105967686" stroke-linecap="round" stroke-linejoin="round"/>
    <path d="M 63.806941986083984 1.6052286624908447 C 63.80156326293945 6.697168350219727 63.96591567993164 5.89923620223999 28.959903717041016 6.37677001953125 C 0.015876341611146927 63.86437225341797 0.011177740059792995 17.519733428955078 0.7002394795417786 58.17688751220703" stroke-width="1.0000005960464478" fill="none" stroke="rgb(255, 255, 255)" stroke-opacity="8.2165374e-05" stroke-linecap="round" stroke-linejoin="round"/>
    <path d="M 2.3688743114471436 3.876333236694336 C 23.145071029663086 0.001745789311826229 59.53118896484375 0.018951309844851494 5.679050445556641 4.043416500091553 C 58.26346969604492 3.8790929317474365 0.2585512101650238 0.49709001183509827 13.343600273132324 0.4668903350830078" stroke-width="1.0009254217147827" fill="none" stroke="rgb(255, 255, 255)" stroke-opacity="0.0026245734" stroke-linecap="round" stroke-linejoin="round"/>
    <path d="M 63.90283203125 41.64300537109375 C 2.0994515419006348 0.8050597310066223 0.18475373089313507 41.243099212646484 0.15614241361618042 43.76231384277344 C 14.009143829345703 8.889122009277344 16.69971466064453 50.9658317565918 42.92692184448242 63.05557632446289" stroke-width="1.000001072883606" fill="none" stroke="rgb(255, 255, 255)" stroke-opacity="0.0002054993" stroke-linecap="round" stroke-linejoin="round"/>
    <path d="M 63.56444549560547 63.474571228027344 C 63.54634094238281 48.36845397949219 63.97800827026367 5.143141746520996 63.96492385864258 33.376251220703125 C 0.07515488564968109 63.4176139831543 0.009469972923398018 0.31050926446914673 0.004433907102793455 63.36457061767578" stroke-width="1.0023304224014282" fill="none" stroke="rgb(255, 255, 255)" stroke-opacity="0.00025208262" stroke-linecap="round" stroke-linejoin="round"/>
    <path d="M 0.2566591501235962 62.58919143676758 C 5.556188106536865 5.0093560218811035 0.0436982624232769 12.484397888183594 19.077754974365234 6.230989456176758 C 5.535167217254639 2.6382863521575928 9.285518646240234 61.30575180053711 10.12499713897705 58.525142669677734" stroke-width="1.0017428398132324" fill="none" stroke="rgb(255, 255, 255)" stroke-opacity="1.7166336e-06" stroke-linecap="round" stroke-linejoin="round"/>
  </g>
</svg>
