<?xml version="1.0" ?>
<svg xmlns="http://www.w3.org/2000/svg" version="1.1" width="64" height="64">
  <defs/>
  <g>
    <path d="M 37.362579345703125 12.262107849121094 C 39.392642974853516 32.448822021484375 15.576087951660156 0.011991890147328377 0.8839564919471741 35.07878494262695 C 0.27555257081985474 61.54006576538086 42.02134323120117 63.9993782043457 36.12198257446289 62.90283203125" stroke-width="2.0375475883483887" fill="none" stroke="rgb(255, 255, 255)" stroke-opacity="0.9993987" stroke-linecap="round" stroke-linejoin="round"/>
    <path d="M 0.7575183510780334 63.36176681518555 C 0.08937008678913116 63.984161376953125 10.806783676147461 61.99451446533203 3.2449092864990234 2.208709955215454 C 63.78811264038086 60.80644607543945 13.428451538085938 2.99100923538208 2.212146759033203 1.4096393585205078" stroke-width="1.000023365020752" fill="none" stroke="rgb(255, 255, 255)" stroke-opacity="2.5954658e-05" stroke-linecap="round" stroke-linejoin="round"/>
    <path d="M 0.5657201409339905 4.082704067230225 C 5.254762172698975 17.70112419128418 5.580137729644775 37.96549606323242 19.362796783447266 63.292884826660156 C 24.867897033691406 4.86374568939209 60.936767578125 63.64032745361328 63.65261459350586 59.74537658691406" stroke-width="1.0000054836273193" fill="none" stroke="rgb(255, 255, 255)" stroke-opacity="8.876491e-06" stroke-linecap="round" stroke-linejoin="round"/>
    <path d="M 57.03145217895508 12.51357364654541 C 21.17324447631836 17.661338806152344 50.35332107543945 27.20380401611328 27.884723663330078 24.397319793701172 C 0.0037032952532172203 16.5800838470459 0.007905539125204086 11.520716667175293 8.542381286621094 15.099466323852539" stroke-width="3.3034911155700684" fill="none" stroke="rgb(255, 255, 255)" stroke-opacity="4.6297856e-07" stroke-linecap="round" stroke-linejoin="round"/>
    <path d="M 37.20378112792969 63.384246826171875 C 40.939918518066406 63.999698638916016 63.87420654296875 59.34284210205078 63.12526321411133 43.75335693359375 C 61.590858459472656 0.00047138554509729147 7.637983322143555 38.998573303222656 44.01790237426758 0.3755444288253784" stroke-width="2.107412099838257" fill="none" stroke="rgb(255, 255, 255)" stroke-opacity="0.990071" stroke-linecap="round" stroke-linejoin="round"/>
    <path d="M 20.299039840698242 57.974082946777344 C 23.895111083984375 12.577470779418945 8.89583969116211 8.105301856994629 7.991555213928223 0.724337637424469 C 7.010436534881592 1.0737978219985962 0.9259150624275208 1.2536627054214478 55.88622283935547 0.9018976092338562" stroke-width="6.17737340927124" fill="none" stroke="rgb(255, 255, 255)" stroke-opacity="5.0143488e-05" stroke-linecap="round" stroke-linejoin="round"/>
    <path d="M 63.926971435546875 13.822566986083984 C 63.96976089477539 56.90615463256836 63.900657653808594 1.3413751125335693 40.4979362487793 1.0032614469528198 C 43.86842346191406 0.5164329409599304 63.96932601928711 0.19212722778320312 60.68579864501953 59.71553039550781" stroke-width="2.019233465194702" fill="none" stroke="rgb(255, 255, 255)" stroke-opacity="0.0033667113" stroke-linecap="round" stroke-linejoin="round"/>
    <path d="M 15.301424026489258 32.231693267822266 C 63.990177154541016 58.67291259765625 63.884178161621094 61.80051040649414 63.81769943237305 20.803133010864258 C 63.983097076416016 59.66359329223633 63.99961853027344 63.995140075683594 60.67133712768555 3.8374223709106445" stroke-width="1.066662311553955" fill="none" stroke="rgb(255, 255, 255)" stroke-opacity="0.002217603" stroke-linecap="round" stroke-linejoin="round"/>
    <path d="M 0.5697885155677795 22.56928062438965 C 0.0007287099724635482 45.82233428955078 0.0012806096347048879 63.89167785644531 58.461509704589844 63.993858337402344 C 16.637666702270508 63.711509704589844 62.062843322753906 63.91488265991211 63.69388961791992 63.95051574707031" stroke-width="2.4225428104400635" fill="none" stroke="rgb(255, 255, 255)" stroke-opacity="0.0014065123" stroke-linecap="round" stroke-linejoin="round"/>
    <path d="M 48.2448616027832 24.78181266784668 C 4.42995548248291 6.988653182983398 23.38473892211914 62.56977462768555 46.43068313598633 33.98548126220703 C 39.540523529052734 2.449604034423828 5.3236613273620605 46.2171630859375 26.80316162109375 23.88260269165039" stroke-width="2.213923931121826" fill="none" stroke="rgb(255, 255, 255)" stroke-opacity="0.0016024711" stroke-linecap="round" stroke-linejoin="round"/>
    <path d="M 0.46093279123306274 8.29932975769043 C 37.18244552612305 55.29962921142578 38.10573959350586 61.984317779541016 41.77640914916992 3.4031195640563965 C 42.28665542602539 6.213210582733154 10.342533111572266 38.26435470581055 63.8666877746582 14.18377685546875" stroke-width="2.1519994735717773" fill="none" stroke="rgb(255, 255, 255)" stroke-opacity="0.00082057965" stroke-linecap="round" stroke-linejoin="round"/>
    <path d="M 63.268943786621094 0.957629919052124 C 63.49552917480469 1.2109817266464233 63.92470169067383 3.794611930847168 39.09095764160156 1.233824610710144 C 0.03719025105237961 63.8133544921875 0.028267407789826393 20.335269927978516 11.79793930053711 54.90460968017578" stroke-width="1.0000008344650269" fill="none" stroke="rgb(255, 255, 255)" stroke-opacity="7.708911e-05" stroke-linecap="round" stroke-linejoin="round"/>
    <path d="M 3.2255377769470215 3.367310047149658 C 44.57118225097656 0.0011538726976141334 62.915313720703125 0.0024393731728196144 13.41726303100586 10.39080810546875 C 63.02025604248047 6.920223712921143 0.2493249624967575 0.5198928713798523 33.61346435546875 0.32784610986709595" stroke-width="1.0000640153884888" fill="none" stroke="rgb(255, 255, 255)" stroke-opacity="0.002858364" stroke-linecap="round" stroke-linejoin="round"/>
    <path d="M 63.94251251220703 19.44305419921875 C 5.570736408233643 0.13228048384189606 0.5492817163467407 22.30471420288086 0.03725499287247658 17.921388626098633 C 26.229341506958008 16.999605178833008 21.804014205932617 60.236114501953125 52.066429138183594 63.35974884033203" stroke-width="1.0000015497207642" fill="none" stroke="rgb(255, 255, 255)" stroke-opacity="0.00021087339" stroke-linecap="round" stroke-linejoin="round"/>
    <path d="M 54.43449020385742 62.43328857421875 C 63.021305084228516 40.95895767211914 63.76750564575195 13.855554580688477 63.940608978271484 24.131317138671875 C 0.03266484662890434 61.85080337524414 0.026626603677868843 0.1958247423171997 0.0025089874397963285 63.84415054321289" stroke-width="1.014552116394043" fill="none" stroke="rgb(255, 255, 255)" stroke-opacity="0.00034504407" stroke-linecap="round" stroke-linejoin="round"/>
    <path d="M 0.35282447934150696 62.79906463623047 C 28.726463317871094 1.9897412061691284 0.24430100619792938 3.9667303562164307 46.20919418334961 17.330568313598633 C 11.314688682556152 5.66657829284668 24.294647216796875 61.84560775756836 15.430596351623535 47.20235824584961" stroke-width="1.003287434577942" fill="none" stroke="rgb(255, 255, 255)" stroke-opacity="2.2578445e-06" stroke-linecap="round" stroke-linejoin="round"/>
  </g>
</svg>
