<?xml version="1.0" ?>
<svg xmlns="http://www.w3.org/2000/svg" version="1.1" width="64" height="64">
  <defs/>
  <g>
    <path d="M 22.085119247436523 22.29463005065918 C 41.53557586669922 23.115802764892578 0.8144364953041077 0.029327576979994774 1.129766821861267 25.09975242614746 C 56.45315933227539 59.476829528808594 28.840730667114258 23.442947387695312 47.005104064941406 62.30205154418945" stroke-width="2.069333553314209" fill="none" stroke="rgb(255, 255, 255)" stroke-opacity="0.6884575" stroke-linecap="round" stroke-linejoin="round"/>
    <path d="M 53.950931549072266 52.358863830566406 C 12.548117637634277 12.645576477050781 0.13591386377811432 3.707540273666382 5.823308944702148 52.336036682128906 C 19.761219024658203 60.4725341796875 26.83196449279785 63.96676254272461 2.790759325027466 62.06169128417969" stroke-width="1.000001072883606" fill="none" stroke="rgb(255, 255, 255)" stroke-opacity="1.2339505e-05" stroke-linecap="round" stroke-linejoin="round"/>
    <path d="M 0.43073368072509766 62.35346984863281 C 0.014023205265402794 63.857940673828125 0.018721725791692734 5.31964635848999 0.775184154510498 29.855987548828125 C 60.29560470581055 1.3421969413757324 63.42334747314453 20.100299835205078 27.218502044677734 62.4370002746582" stroke-width="1.0000042915344238" fill="none" stroke="rgb(255, 255, 255)" stroke-opacity="5.8878604e-06" stroke-linecap="round" stroke-linejoin="round"/>
    <path d="M 61.92089080810547 4.967600345611572 C 63.99986267089844 12.822003364562988 46.69952392578125 17.666431427001953 11.129462242126465 17.148256301879883 C 0.004449708387255669 12.062674522399902 8.443338447250426e-05 9.869791030883789 3.755737543106079 6.104753494262695" stroke-width="2.2610788345336914" fill="none" stroke="rgb(255, 255, 255)" stroke-opacity="0.7623033" stroke-linecap="round" stroke-linejoin="round"/>
    <path d="M 42.847225189208984 63.74078369140625 C 40.58235168457031 19.724828720092773 62.5829963684082 45.18770217895508 56.658687591552734 19.32292366027832 C 54.792850494384766 0.00740274041891098 18.27901268005371 31.768888473510742 32.84213638305664 4.44313907623291" stroke-width="2.5429611206054688" fill="none" stroke="rgb(255, 255, 255)" stroke-opacity="0.9565627" stroke-linecap="round" stroke-linejoin="round"/>
    <path d="M 21.033382415771484 62.72728729248047 C 0.006263657007366419 16.359291076660156 0.007414913270622492 63.9459228515625 1.6804530620574951 17.52240562438965 C 0.06737476587295532 4.16008186340332 0.5732133388519287 61.868221282958984 3.844240665435791 0.3844098150730133" stroke-width="8.999757766723633" fill="none" stroke="rgb(255, 255, 255)" stroke-opacity="8.50402e-06" stroke-linecap="round" stroke-linejoin="round"/>
    <path d="M 63.943824768066406 18.318262100219727 C 63.99410629272461 26.514158248901367 63.98701858520508 0.37794020771980286 17.116230010986328 3.3249754905700684 C 31.929414749145508 2.3440916538238525 63.99736785888672 0.15425054728984833 63.99583053588867 52.67045211791992" stroke-width="1.2200770378112793" fill="none" stroke="rgb(255, 255, 255)" stroke-opacity="0.0042545507" stroke-linecap="round" stroke-linejoin="round"/>
    <path d="M 7.706309795379639 62.141414642333984 C 60.77988815307617 62.26792907714844 63.9217414855957 63.947998046875 63.999813079833984 1.9743132591247559 C 63.761497497558594 50.06734085083008 63.99934387207031 63.99161911010742 60.733123779296875 0.8235030174255371" stroke-width="8.582117080688477" fill="none" stroke="rgb(255, 255, 255)" stroke-opacity="0.0023477438" stroke-linecap="round" stroke-linejoin="round"/>
    <path d="M 0.27928492426872253 5.582480430603027 C 0.0058340891264379025 19.046432495117188 0.003202587366104126 12.566800117492676 3.9471724033355713 63.424312591552734 C 3.1755449771881104 62.38710021972656 3.665290117263794 54.76740646362305 44.6015625 43.36174392700195" stroke-width="1.9308555126190186" fill="none" stroke="rgb(255, 255, 255)" stroke-opacity="0.0017421641" stroke-linecap="round" stroke-linejoin="round"/>
    <path d="M 37.5523796081543 9.42414665222168 C 1.8819295167922974 6.364034652709961 18.85345458984375 62.45798873901367 51.4478874206543 30.945837020874023 C 57.587642669677734 0.5095463395118713 9.28901481628418 8.353261947631836 14.740959167480469 10.51048755645752" stroke-width="2.223906993865967" fill="none" stroke="rgb(255, 255, 255)" stroke-opacity="1.5291936e-10" stroke-linecap="round" stroke-linejoin="round"/>
    <path d="M 63.83669662475586 4.680465221405029 C 53.310997009277344 0.015605218708515167 17.450458526611328 0.06598568707704544 47.667415618896484 1.4215725660324097 C 26.447446823120117 0.00013182664406485856 7.1061930656433105 1.879334568977356 7.9429121017456055 7.79710054397583" stroke-width="1.621927261352539" fill="none" stroke="rgb(255, 255, 255)" stroke-opacity="0.9996761" stroke-linecap="round" stroke-linejoin="round"/>
    <path d="M 63.96841812133789 7.048774242401123 C 63.94573211669922 57.005348205566406 63.97689437866211 14.856661796569824 9.097089767456055 57.092628479003906 C 0.00405792286619544 63.907718658447266 0.003315066685900092 15.188358306884766 0.0027465661987662315 61.11861801147461" stroke-width="1.0000004768371582" fill="none" stroke="rgb(255, 255, 255)" stroke-opacity="0.00014925306" stroke-linecap="round" stroke-linejoin="round"/>
    <path d="M 1.2776050567626953 5.6666178703308105 C 1.786086082458496 0.005711108446121216 15.40870475769043 5.692152976989746 1.0013983249664307 0.8257648348808289 C 6.513330459594727 1.6374510526657104 0.5586987733840942 0.5503942370414734 0.6028347611427307 1.5570062398910522" stroke-width="1.806657314300537" fill="none" stroke="rgb(255, 255, 255)" stroke-opacity="0.0028513218" stroke-linecap="round" stroke-linejoin="round"/>
    <path d="M 63.39476776123047 62.576148986816406 C 0.3973308801651001 39.57940673828125 0.041349414736032486 59.862281799316406 7.101298809051514 62.66741943359375 C 2.5497121810913086 2.820904016494751 7.144920825958252 13.892511367797852 12.816651344299316 60.65414047241211" stroke-width="1.000001311302185" fill="none" stroke="rgb(255, 255, 255)" stroke-opacity="0.00029227484" stroke-linecap="round" stroke-linejoin="round"/>
    <path d="M 63.99897003173828 63.89141845703125 C 63.87701416015625 56.416534423828125 63.99961471557617 1.047431468963623 63.976776123046875 51.84532165527344 C 0.6927893757820129 63.94475173950195 0.0028302485588937998 1.6766515970230103 0.035380199551582336 43.36867904663086" stroke-width="1.0001246929168701" fill="none" stroke="rgb(255, 255, 255)" stroke-opacity="0.00024659114" stroke-linecap="round" stroke-linejoin="round"/>
    <path d="M 0.2783949077129364 60.520835876464844 C 0.11955607682466507 31.18762969970703 0.001685266150161624 48.50534439086914 0.7801172733306885 0.5532838702201843 C 1.2634528875350952 0.9881135821342468 0.8238041400909424 59.69261932373047 5.059924602508545 63.60318374633789" stroke-width="1.000859260559082" fill="none" stroke="rgb(255, 255, 255)" stroke-opacity="2.87823e-06" stroke-linecap="round" stroke-linejoin="round"/>
  </g>
</svg>
