<?xml version="1.0" ?>
<svg xmlns="http://www.w3.org/2000/svg" version="1.1" width="64" height="64">
  <defs/>
  <g>
    <path d="M 34.127872467041016 0.7516126036643982 C 24.6097412109375 0.02712314948439598 0.0363088920712471 0.06615100800991058 3.354806900024414 14.059554100036621 C 63.51313018798828 32.462066650390625 22.36027717590332 0.003315194509923458 42.225608825683594 63.37763595581055" stroke-width="3.4838340282440186" fill="none" stroke="rgb(255, 255, 255)" stroke-opacity="0.7001178" stroke-linecap="round" stroke-linejoin="round"/>
    <path d="M 5.265954971313477 12.521844863891602 C 48.64242172241211 0.15944764018058777 63.54956817626953 31.915037155151367 12.750988006591797 1.3372528553009033 C 0.6888905763626099 13.661611557006836 0.19740644097328186 62.451778411865234 0.21426424384117126 41.493194580078125" stroke-width="1.017188549041748" fill="none" stroke="rgb(255, 255, 255)" stroke-opacity="0.00035486135" stroke-linecap="round" stroke-linejoin="round"/>
    <path d="M 9.854188919067383 28.34243392944336 C 15.144680976867676 22.99944496154785 9.577903747558594 35.30073165893555 52.95235824584961 14.32633113861084 C 0.026378225535154343 63.238609313964844 0.8850817680358887 63.66340637207031 5.363361358642578 62.97587203979492" stroke-width="1.0008145570755005" fill="none" stroke="rgb(255, 255, 255)" stroke-opacity="0.0036536548" stroke-linecap="round" stroke-linejoin="round"/>
    <path d="M 57.6613883972168 9.264934539794922 C 44.764896392822266 13.530837059020996 4.5176215171813965 19.841100692749023 0.7628224492073059 6.159247398376465 C 58.48415756225586 4.432393550872803 63.531307220458984 19.834108352661133 10.803633689880371 19.329208374023438" stroke-width="1.891567587852478" fill="none" stroke="rgb(255, 255, 255)" stroke-opacity="0.61544734" stroke-linecap="round" stroke-linejoin="round"/>
    <path d="M 35.00365447998047 61.972835540771484 C 24.70292091369629 0.00018767516303341836 1.7959322929382324 27.923736572265625 61.71137237548828 20.24663734436035 C 63.939449310302734 0.0001503168896306306 26.486515045166016 0.15433162450790405 42.67826461791992 0.14935284852981567" stroke-width="3.284947633743286" fill="none" stroke="rgb(255, 255, 255)" stroke-opacity="0.90564483" stroke-linecap="round" stroke-linejoin="round"/>
    <path d="M 63.96091079711914 62.29619216918945 C 53.20193099975586 45.55366134643555 9.366838455200195 63.998661041259766 5.214193820953369 63.87211990356445 C 0.7650471925735474 63.790985107421875 14.180715560913086 0.528864324092865 0.13353776931762695 1.8002883195877075" stroke-width="8.355783462524414" fill="none" stroke="rgb(255, 255, 255)" stroke-opacity="0.0007406503" stroke-linecap="round" stroke-linejoin="round"/>
    <path d="M 26.65886878967285 46.46492385864258 C 19.371084213256836 9.721935272216797 48.52350997924805 25.755706787109375 63.99848937988281 57.02248001098633 C 63.854434967041016 61.56118392944336 0.25728824734687805 63.98682403564453 0.8646642565727234 50.72894287109375" stroke-width="1.0500472784042358" fill="none" stroke="rgb(255, 255, 255)" stroke-opacity="0.0076406845" stroke-linecap="round" stroke-linejoin="round"/>
    <path d="M 7.041132926940918 62.732627868652344 C 63.9332389831543 58.367061614990234 58.85421371459961 63.66871643066406 23.295936584472656 58.87321090698242 C 62.92094802856445 29.07868766784668 63.92375183105469 63.985713958740234 59.798885345458984 1.782291054725647" stroke-width="8.975099563598633" fill="none" stroke="rgb(255, 255, 255)" stroke-opacity="0.0030804807" stroke-linecap="round" stroke-linejoin="round"/>
    <path d="M 13.34801197052002 4.50564432144165 C 62.1151008605957 20.387529373168945 63.63895797729492 0.16775064170360565 40.1314697265625 0.018727120012044907 C 0.5394822359085083 0.1787305772304535 1.17524254322052 12.147650718688965 0.579081118106842 0.5631365776062012" stroke-width="1.6565334796905518" fill="none" stroke="rgb(255, 255, 255)" stroke-opacity="0.098120876" stroke-linecap="round" stroke-linejoin="round"/>
    <path d="M 40.88628005981445 9.770572662353516 C 42.32556915283203 1.1661276817321777 14.22940444946289 0.2619711756706238 8.064776420593262 10.725665092468262 C 58.38936233520508 26.24006462097168 61.520782470703125 0.8256499767303467 24.835567474365234 2.9691617488861084" stroke-width="2.4809393882751465" fill="none" stroke="rgb(255, 255, 255)" stroke-opacity="0.97402996" stroke-linecap="round" stroke-linejoin="round"/>
    <path d="M 14.498669624328613 8.018254280090332 C 16.56060791015625 11.831979751586914 17.21416664123535 62.77278137207031 23.060665130615234 8.1552095413208 C 16.117895126342773 63.93468475341797 45.39639663696289 2.6116955280303955 58.799922943115234 14.420722007751465" stroke-width="2.05827260017395" fill="none" stroke="rgb(255, 255, 255)" stroke-opacity="3.954937e-05" stroke-linecap="round" stroke-linejoin="round"/>
    <path d="M 0.005804353393614292 14.795576095581055 C 0.061832014471292496 62.386253356933594 0.08654879778623581 6.788455009460449 63.973175048828125 63.48863983154297 C 34.10641098022461 63.98768997192383 48.73171615600586 63.99568176269531 63.993045806884766 63.383689880371094" stroke-width="1.0001745223999023" fill="none" stroke="rgb(255, 255, 255)" stroke-opacity="0.0121421935" stroke-linecap="round" stroke-linejoin="round"/>
    <path d="M 17.333189010620117 2.209683895111084 C 63.985774993896484 0.00012756470823660493 48.90791320800781 0.019974758848547935 62.70937728881836 62.953731536865234 C 11.837005615234375 63.78540802001953 0.1078643947839737 0.9159179329872131 0.7263389229774475 20.350635528564453" stroke-width="1.0000956058502197" fill="none" stroke="rgb(255, 255, 255)" stroke-opacity="0.005671898" stroke-linecap="round" stroke-linejoin="round"/>
    <path d="M 63.62835693359375 0.27030274271965027 C 63.99542999267578 63.97093200683594 63.94096755981445 62.19901657104492 63.89446258544922 17.080944061279297 C 63.85855484008789 34.46929168701172 63.968849182128906 59.9844970703125 63.9714241027832 63.628501892089844" stroke-width="1.0015989542007446" fill="none" stroke="rgb(255, 255, 255)" stroke-opacity="0.0004334323" stroke-linecap="round" stroke-linejoin="round"/>
    <path d="M 4.603200912475586 24.712249755859375 C 31.903772354125977 0.01709802821278572 13.630657196044922 36.157188415527344 41.751163482666016 31.13905143737793 C 0.025610875338315964 0.28509578108787537 20.17005729675293 63.97487258911133 0.9414663910865784 0.18375729024410248" stroke-width="1.0179603099822998" fill="none" stroke="rgb(255, 255, 255)" stroke-opacity="0.0014796673" stroke-linecap="round" stroke-linejoin="round"/>
    <path d="M 53.97900390625 34.989707946777344 C 63.99955368041992 63.69771957397461 1.536734700202942 45.064109802246094 0.8784081339836121 34.009342193603516 C 0.010905773378908634 63.95933532714844 0.004591905977576971 63.965396881103516 26.125463485717773 58.78291320800781" stroke-width="1.133850336074829" fill="none" stroke="rgb(255, 255, 255)" stroke-opacity="0.0034543425" stroke-linecap="round" stroke-linejoin="round"/>
  </g>
</svg>
