<?xml version="1.0" ?>
<svg xmlns="http://www.w3.org/2000/svg" version="1.1" width="64" height="64">
  <defs/>
  <g>
    <path d="M 34.335697174072266 0.5917364358901978 C 39.58338928222656 0.24105016887187958 1.8984850645065308 0.009599529206752777 0.7287973761558533 28.197362899780273 C 3.8229446411132812 57.14883041381836 27.290019989013672 60.22385025024414 28.688526153564453 62.29275894165039" stroke-width="2.0641984939575195" fill="none" stroke="rgb(255, 255, 255)" stroke-opacity="0.99890137" stroke-linecap="round" stroke-linejoin="round"/>
    <path d="M 0.18357570469379425 57.57384490966797 C 0.8718542456626892 61.415706634521484 63.86772918701172 63.39230728149414 5.626062393188477 0.08903925865888596 C 60.0830078125 42.067970275878906 0.35754117369651794 0.3877817690372467 1.5822169780731201 0.5088348388671875" stroke-width="1.1026114225387573" fill="none" stroke="rgb(255, 255, 255)" stroke-opacity="0.0025808844" stroke-linecap="round" stroke-linejoin="round"/>
    <path d="M 8.10631275177002 0.2818172872066498 C 62.51578903198242 0.1788339465856552 61.52374267578125 47.408939361572266 61.864356994628906 60.93549346923828 C 0.05817069858312607 61.23426818847656 1.7662115097045898 63.98260498046875 60.78327941894531 54.22096633911133" stroke-width="1.0007834434509277" fill="none" stroke="rgb(255, 255, 255)" stroke-opacity="0.00530447" stroke-linecap="round" stroke-linejoin="round"/>
    <path d="M 52.921531677246094 16.543725967407227 C 0.004227528348565102 20.10409927368164 21.656265258789062 19.56196403503418 19.883989334106445 21.027437210083008 C 18.294221878051758 20.21075439453125 63.578636169433594 19.042434692382812 12.020245552062988 37.04656982421875" stroke-width="2.992757797241211" fill="none" stroke="rgb(255, 255, 255)" stroke-opacity="5.3734317e-07" stroke-linecap="round" stroke-linejoin="round"/>
    <path d="M 29.72150421142578 61.524967193603516 C 47.45587921142578 63.846160888671875 49.366600036621094 56.84786605834961 62.599124908447266 24.511899948120117 C 63.604496002197266 2.9347689633141272e-05 21.28236961364746 0.2517634332180023 30.556549072265625 2.095614433288574" stroke-width="2.1647887229919434" fill="none" stroke="rgb(255, 255, 255)" stroke-opacity="0.96150213" stroke-linecap="round" stroke-linejoin="round"/>
    <path d="M 63.3044319152832 42.7374382019043 C 63.965065002441406 49.11818313598633 61.41669464111328 31.791128158569336 24.007516860961914 33.78556442260742 C 35.377655029296875 54.546756744384766 15.84703540802002 0.0060381353832781315 27.806947708129883 3.6983866691589355" stroke-width="1.0169755220413208" fill="none" stroke="rgb(255, 255, 255)" stroke-opacity="0.03747818" stroke-linecap="round" stroke-linejoin="round"/>
    <path d="M 54.07066345214844 45.16465759277344 C 27.808326721191406 53.855289459228516 45.95930862426758 21.40743064880371 63.960838317871094 17.06205940246582 C 63.445343017578125 29.675344467163086 7.834014892578125 62.19321823120117 0.32012516260147095 43.53114318847656" stroke-width="1.041293740272522" fill="none" stroke="rgb(255, 255, 255)" stroke-opacity="0.014226845" stroke-linecap="round" stroke-linejoin="round"/>
    <path d="M 16.83624267578125 22.76327133178711 C 63.988136291503906 58.08757400512695 54.68793869018555 43.67906951904297 0.2438206970691681 62.15888977050781 C 63.90506362915039 41.73177719116211 63.98337936401367 63.95827102661133 61.18459701538086 4.582029342651367" stroke-width="2.0858054161071777" fill="none" stroke="rgb(255, 255, 255)" stroke-opacity="0.008819488" stroke-linecap="round" stroke-linejoin="round"/>
    <path d="M 3.1939902305603027 15.16912841796875 C 7.673478603363037 51.18906021118164 40.94746398925781 62.676151275634766 62.9943733215332 40.025291442871094 C 1.4416512250900269 25.63906478881836 59.05154037475586 63.62651824951172 59.41568374633789 62.830963134765625" stroke-width="2.464024543762207" fill="none" stroke="rgb(255, 255, 255)" stroke-opacity="0.015533531" stroke-linecap="round" stroke-linejoin="round"/>
    <path d="M 36.3841667175293 26.213708877563477 C 7.663282871246338 30.774686813354492 32.76419448852539 19.08714485168457 21.447574615478516 29.516864776611328 C 30.64715576171875 39.24627685546875 53.498695373535156 24.89444351196289 41.51360321044922 14.53246784210205" stroke-width="1.9405107498168945" fill="none" stroke="rgb(255, 255, 255)" stroke-opacity="0.9999994" stroke-linecap="round" stroke-linejoin="round"/>
    <path d="M 0.011356585659086704 17.045499801635742 C 14.300888061523438 63.85604476928711 36.4311637878418 63.98247528076172 20.883298873901367 11.071343421936035 C 43.94956588745117 63.9991569519043 24.18688201904297 38.38043212890625 63.92124938964844 24.770448684692383" stroke-width="2.7578489780426025" fill="none" stroke="rgb(255, 255, 255)" stroke-opacity="5.491516e-09" stroke-linecap="round" stroke-linejoin="round"/>
    <path d="M 0.09431939572095871 1.6087117195129395 C 0.5467797517776489 3.626692295074463 1.5460419654846191 0.8457008004188538 63.87018585205078 3.904616117477417 C 28.077856063842773 63.968116760253906 49.91939163208008 63.93718338012695 63.99925994873047 58.73220443725586" stroke-width="1.000166416168213" fill="none" stroke="rgb(255, 255, 255)" stroke-opacity="0.006576079" stroke-linecap="round" stroke-linejoin="round"/>
    <path d="M 15.662190437316895 2.6178462505340576 C 63.97719955444336 0.0010683041764423251 63.416500091552734 0.0006114738644100726 61.58216857910156 63.46354293823242 C 62.468807220458984 63.4655876159668 0.26711130142211914 2.2200441360473633 45.417972564697266 6.529520511627197" stroke-width="1.000001311302185" fill="none" stroke="rgb(255, 255, 255)" stroke-opacity="0.019671341" stroke-linecap="round" stroke-linejoin="round"/>
    <path d="M 63.89451599121094 0.2289784699678421 C 63.972896575927734 13.381763458251953 63.813087463378906 7.381533622741699 7.674309730529785 0.7786649465560913 C 63.72334289550781 54.70883560180664 63.16377639770508 63.662899017333984 63.710899353027344 63.61431121826172" stroke-width="1.0011107921600342" fill="none" stroke="rgb(255, 255, 255)" stroke-opacity="0.001636801" stroke-linecap="round" stroke-linejoin="round"/>
    <path d="M 0.02245498262345791 14.212615013122559 C 20.01738739013672 0.1045350432395935 1.0283869504928589 57.39676284790039 39.820533752441406 3.3356411457061768 C 0.011013721115887165 0.11749609559774399 19.184968948364258 45.49004364013672 0.0683191567659378 48.93141555786133" stroke-width="2.451766014099121" fill="none" stroke="rgb(255, 255, 255)" stroke-opacity="0.009503427" stroke-linecap="round" stroke-linejoin="round"/>
    <path d="M 30.314708709716797 53.36814498901367 C 63.99959182739258 18.094459533691406 32.364288330078125 2.7722668647766113 59.012184143066406 59.968528747558594 C 0.7714939117431641 63.6882209777832 2.4305663108825684 63.632781982421875 39.496185302734375 12.97182846069336" stroke-width="1.5638498067855835" fill="none" stroke="rgb(255, 255, 255)" stroke-opacity="0.0067853094" stroke-linecap="round" stroke-linejoin="round"/>
  </g>
</svg>
