<?xml version="1.0" ?>
<svg xmlns="http://www.w3.org/2000/svg" version="1.1" width="64" height="64">
  <defs/>
  <g>
    <path d="M 34.136573791503906 0.6992987990379333 C 30.849075317382812 0.049262821674346924 0.10495726764202118 0.029780855402350426 1.9671883583068848 18.13858985900879 C 60.23394012451172 42.58732986450195 24.084577560424805 0.09913676977157593 37.540008544921875 63.198333740234375" stroke-width="2.9859538078308105" fill="none" stroke="rgb(255, 255, 255)" stroke-opacity="0.93445927" stroke-linecap="round" stroke-linejoin="round"/>
    <path d="M 2.3127334117889404 25.247650146484375 C 26.63552474975586 1.7874644994735718 63.696651458740234 49.59722900390625 10.245442390441895 0.5787547826766968 C 4.671609401702881 20.731351852416992 0.22927917540073395 50.2254753112793 0.39342010021209717 18.747297286987305" stroke-width="1.023193359375" fill="none" stroke="rgb(255, 255, 255)" stroke-opacity="0.00051078375" stroke-linecap="round" stroke-linejoin="round"/>
    <path d="M 8.817815780639648 10.262312889099121 C 33.478946685791016 7.321915626525879 25.07811737060547 36.91802978515625 56.53081130981445 29.452116012573242 C 0.0316019281744957 62.90876007080078 1.0294959545135498 63.85702896118164 17.603059768676758 62.11220932006836" stroke-width="1.000680923461914" fill="none" stroke="rgb(255, 255, 255)" stroke-opacity="0.003503615" stroke-linecap="round" stroke-linejoin="round"/>
    <path d="M 56.68855667114258 11.5651216506958 C 8.198643684387207 15.258644104003906 7.585484981536865 19.600221633911133 2.2169065475463867 8.713482856750488 C 50.819461822509766 6.667525768280029 63.497337341308594 19.821664810180664 10.645638465881348 24.927127838134766" stroke-width="2.0887296199798584" fill="none" stroke="rgb(255, 255, 255)" stroke-opacity="0.02459376" stroke-linecap="round" stroke-linejoin="round"/>
    <path d="M 34.85992431640625 61.849945068359375 C 29.28390121459961 0.03087645210325718 5.8897223472595215 38.96344757080078 62.03632354736328 22.352022171020508 C 63.914642333984375 7.626059232279658e-05 23.459081649780273 0.17175517976284027 38.17153549194336 0.3165307343006134" stroke-width="2.728865623474121" fill="none" stroke="rgb(255, 255, 255)" stroke-opacity="0.92423964" stroke-linecap="round" stroke-linejoin="round"/>
    <path d="M 63.918643951416016 60.44454574584961 C 61.55332946777344 47.23497009277344 23.88285255432129 63.97581100463867 8.11336898803711 63.363948822021484 C 2.568464994430542 63.36729431152344 13.762758255004883 0.14293935894966125 0.6388147473335266 2.034048080444336" stroke-width="5.295289516448975" fill="none" stroke="rgb(255, 255, 255)" stroke-opacity="0.0018795308" stroke-linecap="round" stroke-linejoin="round"/>
    <path d="M 36.529205322265625 46.8933219909668 C 22.120351791381836 19.877559661865234 48.616302490234375 23.39763641357422 63.99647521972656 49.274993896484375 C 63.783931732177734 58.10603332519531 0.736827552318573 63.949302673339844 0.6740031242370605 49.1816291809082" stroke-width="1.0445575714111328" fill="none" stroke="rgb(255, 255, 255)" stroke-opacity="0.008834515" stroke-linecap="round" stroke-linejoin="round"/>
    <path d="M 9.317462921142578 60.07273483276367 C 63.9641227722168 58.573001861572266 58.28569030761719 62.92080307006836 8.363356590270996 59.814178466796875 C 63.452388763427734 33.06624984741211 63.95557403564453 63.98073959350586 60.11318588256836 2.2078857421875" stroke-width="8.811016082763672" fill="none" stroke="rgb(255, 255, 255)" stroke-opacity="0.0036987017" stroke-linecap="round" stroke-linejoin="round"/>
    <path d="M 8.616778373718262 5.974459171295166 C 55.99671173095703 28.49999237060547 62.64627456665039 2.201821804046631 52.56402587890625 0.21884486079216003 C 0.5940534472465515 0.776976466178894 6.414850234985352 39.6431999206543 4.005875587463379 6.024916648864746" stroke-width="1.849827766418457" fill="none" stroke="rgb(255, 255, 255)" stroke-opacity="0.054784518" stroke-linecap="round" stroke-linejoin="round"/>
    <path d="M 39.904693603515625 12.940126419067383 C 30.3764591217041 3.2192533016204834 18.622051239013672 0.8737803101539612 11.209390640258789 14.521061897277832 C 53.21671676635742 29.046367645263672 60.53780746459961 2.4623513221740723 29.222030639648438 4.768285751342773" stroke-width="2.3295798301696777" fill="none" stroke="rgb(255, 255, 255)" stroke-opacity="0.9985379" stroke-linecap="round" stroke-linejoin="round"/>
    <path d="M 2.369518280029297 10.911529541015625 C 15.680034637451172 39.91970443725586 22.561845779418945 63.563018798828125 22.41415786743164 8.49739933013916 C 24.842227935791016 63.98005294799805 39.352447509765625 6.058917999267578 62.33496856689453 17.530054092407227" stroke-width="2.230191707611084" fill="none" stroke="rgb(255, 255, 255)" stroke-opacity="3.5863736e-06" stroke-linecap="round" stroke-linejoin="round"/>
    <path d="M 0.013751291669905186 8.366622924804688 C 0.11693815141916275 56.09027862548828 0.19775596261024475 3.7764930725097656 63.959716796875 60.55693054199219 C 29.908000946044922 63.98564910888672 48.68473815917969 63.99129867553711 63.995994567871094 62.90251922607422" stroke-width="1.0001370906829834" fill="none" stroke="rgb(255, 255, 255)" stroke-opacity="0.009134416" stroke-linecap="round" stroke-linejoin="round"/>
    <path d="M 15.392656326293945 2.2619235515594482 C 63.98483657836914 0.00011923685087822378 57.37558364868164 0.006788972299546003 62.41278839111328 63.17502975463867 C 29.31129264831543 63.722957611083984 0.1256047636270523 1.0949890613555908 2.843621253967285 14.622106552124023" stroke-width="1.0000274181365967" fill="none" stroke="rgb(255, 255, 255)" stroke-opacity="0.007443407" stroke-linecap="round" stroke-linejoin="round"/>
    <path d="M 63.75094985961914 0.2658769190311432 C 63.992919921875 63.68857192993164 63.92085647583008 56.03705978393555 62.93239974975586 8.044580459594727 C 63.816017150878906 40.532161712646484 63.90958786010742 61.97525405883789 63.94401550292969 63.63015365600586" stroke-width="1.0011652708053589" fill="none" stroke="rgb(255, 255, 255)" stroke-opacity="0.00053795613" stroke-linecap="round" stroke-linejoin="round"/>
    <path d="M 1.2136266231536865 22.09395408630371 C 30.617990493774414 0.02723957970738411 7.542019844055176 44.23857879638672 42.74115753173828 19.09358787536621 C 0.01760238967835903 0.22311559319496155 18.96188735961914 63.83787536621094 0.4125025272369385 1.253247618675232" stroke-width="1.0554903745651245" fill="none" stroke="rgb(255, 255, 255)" stroke-opacity="0.0021565713" stroke-linecap="round" stroke-linejoin="round"/>
    <path d="M 48.6077995300293 40.758907318115234 C 63.999637603759766 62.244468688964844 3.805659532546997 27.797338485717773 4.8812384605407715 43.111541748046875 C 0.031105170026421547 63.92384719848633 0.02543799951672554 63.934261322021484 31.277814865112305 51.735782623291016" stroke-width="1.183516502380371" fill="none" stroke="rgb(255, 255, 255)" stroke-opacity="0.0035637585" stroke-linecap="round" stroke-linejoin="round"/>
  </g>
</svg>
