<?xml version="1.0" ?>
<svg xmlns="http://www.w3.org/2000/svg" version="1.1" width="64" height="64">
  <defs/>
  <g>
    <path d="M 33.87342834472656 0.7055097222328186 C 37.32360076904297 0.10534853488206863 0.39631807804107666 0.01851052977144718 1.179843544960022 22.809621810913086 C 35.473106384277344 50.852317810058594 26.813600540161133 6.350835800170898 33.26750946044922 62.81987762451172" stroke-width="2.492034912109375" fill="none" stroke="rgb(255, 255, 255)" stroke-opacity="0.9907918" stroke-linecap="round" stroke-linejoin="round"/>
    <path d="M 0.7312975525856018 44.21830368041992 C 6.332082748413086 24.148344039916992 63.80116271972656 60.51382827758789 7.867456912994385 0.23278571665287018 C 30.2342586517334 30.04747772216797 0.27364420890808105 9.98500919342041 0.7408837676048279 4.121753692626953" stroke-width="1.0494465827941895" fill="none" stroke="rgb(255, 255, 255)" stroke-opacity="0.0010637068" stroke-linecap="round" stroke-linejoin="round"/>
    <path d="M 8.789697647094727 1.9862014055252075 C 54.99372863769531 1.2919337749481201 50.27238082885742 42.283782958984375 59.84951400756836 50.132328033447266 C 0.04126487299799919 62.33201217651367 1.3056751489639282 63.948612213134766 44.26689910888672 60.014556884765625" stroke-width="1.0007402896881104" fill="none" stroke="rgb(255, 255, 255)" stroke-opacity="0.0044535184" stroke-linecap="round" stroke-linejoin="round"/>
    <path d="M 54.5658073425293 14.592183113098145 C 0.24380996823310852 17.799484252929688 13.209393501281738 19.366905212402344 7.1879706382751465 13.217866897583008 C 37.4161491394043 11.05092716217041 63.598087310791016 20.06599998474121 11.427696228027344 32.20603561401367" stroke-width="2.445735454559326" fill="none" stroke="rgb(255, 255, 255)" stroke-opacity="0.000174738" stroke-linecap="round" stroke-linejoin="round"/>
    <path d="M 33.33810806274414 61.627113342285156 C 35.731544494628906 11.9737548828125 21.400001525878906 49.65909194946289 62.307090759277344 24.039880752563477 C 63.83878707885742 8.555792737752199e-05 20.67673110961914 0.20704959332942963 33.804534912109375 0.7571898102760315" stroke-width="2.3468761444091797" fill="none" stroke="rgb(255, 255, 255)" stroke-opacity="0.9385682" stroke-linecap="round" stroke-linejoin="round"/>
    <path d="M 63.777374267578125 55.51799011230469 C 63.67139434814453 48.49610900878906 48.81488037109375 63.086360931396484 14.366110801696777 59.400630950927734 C 10.997725486755371 61.7976188659668 14.871663093566895 0.03137212246656418 4.382791996002197 2.712184190750122" stroke-width="1.4854329824447632" fill="none" stroke="rgb(255, 255, 255)" stroke-opacity="0.0076344386" stroke-linecap="round" stroke-linejoin="round"/>
    <path d="M 46.0220947265625 46.53777313232422 C 23.888742446899414 36.93935775756836 46.5391731262207 22.915733337402344 63.98989486694336 35.44675064086914 C 63.65952682495117 49.37312316894531 2.1116528511047363 63.7432861328125 0.4228108525276184 46.652462005615234" stroke-width="1.0458816289901733" fill="none" stroke="rgb(255, 255, 255)" stroke-opacity="0.011278307" stroke-linecap="round" stroke-linejoin="round"/>
    <path d="M 12.615694046020508 49.54170608520508 C 63.98094177246094 58.369110107421875 56.6162223815918 59.35540771484375 1.5580110549926758 61.063392639160156 C 63.74735641479492 37.22890853881836 63.97028732299805 63.971683502197266 60.466121673583984 3.262660503387451" stroke-width="7.018505573272705" fill="none" stroke="rgb(255, 255, 255)" stroke-opacity="0.0054166582" stroke-linecap="round" stroke-linejoin="round"/>
    <path d="M 5.800790786743164 8.689689636230469 C 35.08356857299805 38.86428451538086 58.59616470336914 30.870317459106445 60.20981979370117 3.426727056503296 C 0.885635256767273 4.347318172454834 31.71652603149414 59.757781982421875 27.6984920501709 41.6336784362793" stroke-width="2.1247129440307617" fill="none" stroke="rgb(255, 255, 255)" stroke-opacity="0.030483264" stroke-linecap="round" stroke-linejoin="round"/>
    <path d="M 38.713375091552734 18.187950134277344 C 17.51373863220215 10.35270881652832 24.302051544189453 3.8035449981689453 15.614611625671387 21.191362380981445 C 44.65293502807617 33.8558235168457 58.463130950927734 8.019316673278809 35.016624450683594 8.007437705993652" stroke-width="2.1494650840759277" fill="none" stroke="rgb(255, 255, 255)" stroke-opacity="0.9999647" stroke-linecap="round" stroke-linejoin="round"/>
    <path d="M 0.20424950122833252 14.5570068359375 C 14.976062774658203 61.079349517822266 29.464799880981445 63.90623092651367 21.760242462158203 9.8954496383667 C 35.08061599731445 63.996498107910156 32.36601638793945 17.504310607910156 63.624298095703125 21.68377685546875" stroke-width="2.506748676300049" fill="none" stroke="rgb(255, 255, 255)" stroke-opacity="1.7997891e-07" stroke-linecap="round" stroke-linejoin="round"/>
    <path d="M 0.032177671790122986 3.939143419265747 C 0.22718782722949982 29.265705108642578 0.47615236043930054 1.9185261726379395 63.935401916503906 37.722999572753906 C 29.13503074645996 63.9789924621582 50.41776657104492 63.9791145324707 63.99811553955078 61.58790588378906" stroke-width="1.0001540184020996" fill="none" stroke="rgb(255, 255, 255)" stroke-opacity="0.007908732" stroke-linecap="round" stroke-linejoin="round"/>
    <path d="M 14.827184677124023 2.4636991024017334 C 63.9831657409668 0.00034576727193780243 61.837623596191406 0.0020421650260686874 62.15153884887695 63.36606216430664 C 52.93692398071289 63.64113998413086 0.17275641858577728 1.477568507194519 14.5913724899292 10.129157066345215" stroke-width="1.0000066757202148" fill="none" stroke="rgb(255, 255, 255)" stroke-opacity="0.011465857" stroke-linecap="round" stroke-linejoin="round"/>
    <path d="M 63.83873748779297 0.23613493144512177 C 63.988162994384766 58.23614501953125 63.88533401489258 33.69084548950195 50.4182243347168 2.8278191089630127 C 63.78760528564453 48.17397689819336 63.739986419677734 63.15298843383789 63.88597106933594 63.62364196777344" stroke-width="1.0011509656906128" fill="none" stroke="rgb(255, 255, 255)" stroke-opacity="0.0009024553" stroke-linecap="round" stroke-linejoin="round"/>
    <path d="M 0.17978201806545258 17.389976501464844 C 25.047292709350586 0.048910386860370636 2.830813407897949 52.34141159057617 41.217281341552734 9.116703033447266 C 0.013739673420786858 0.14854499697685242 19.737659454345703 62.49751281738281 0.18514755368232727 10.935609817504883" stroke-width="1.2772514820098877" fill="none" stroke="rgb(255, 255, 255)" stroke-opacity="0.0042310334" stroke-linecap="round" stroke-linejoin="round"/>
    <path d="M 41.30451965332031 46.918819427490234 C 63.999610900878906 52.13033676147461 12.322927474975586 10.899116516113281 28.627714157104492 52.9400749206543 C 0.12729041278362274 63.85095977783203 0.1902451515197754 63.852027893066406 36.314796447753906 33.929595947265625" stroke-width="1.3187181949615479" fill="none" stroke="rgb(255, 255, 255)" stroke-opacity="0.0048792292" stroke-linecap="round" stroke-linejoin="round"/>
  </g>
</svg>
