<?xml version="1.0" ?>
<svg xmlns="http://www.w3.org/2000/svg" version="1.1" width="64" height="64">
  <defs/>
  <g>
    <path d="M 32.819740295410156 0.4074108898639679 C 33.854881286621094 0.5341460704803467 5.729478359222412 0.005513747688382864 0.5713649392127991 32.09305191040039 C 0.2956484258174896 59.687591552734375 24.35454559326172 63.898441314697266 25.089799880981445 62.06317901611328" stroke-width="1.9180941581726074" fill="none" stroke="rgb(255, 255, 255)" stroke-opacity="0.9997825" stroke-linecap="round" stroke-linejoin="round"/>
    <path d="M 0.058921609073877335 61.363243103027344 C 0.19061878323554993 63.83815383911133 63.88542556762695 63.82426834106445 3.7196977138519287 0.04373910278081894 C 63.59299850463867 52.363975524902344 0.5299057364463806 0.024373143911361694 3.024648427963257 0.0895213782787323" stroke-width="1.1699955463409424" fill="none" stroke="rgb(255, 255, 255)" stroke-opacity="0.006058711" stroke-linecap="round" stroke-linejoin="round"/>
    <path d="M 5.971600532531738 0.05866415053606033 C 63.67715072631836 0.036198996007442474 63.4333381652832 49.564456939697266 62.429203033447266 63.28377914428711 C 0.08891335129737854 59.65540313720703 2.452953338623047 63.99304962158203 63.42354965209961 43.11809158325195" stroke-width="1.0008186101913452" fill="none" stroke="rgb(255, 255, 255)" stroke-opacity="0.0058261403" stroke-linecap="round" stroke-linejoin="round"/>
    <path d="M 52.09841537475586 17.27601432800293 C 0.0002806935808621347 21.5269775390625 25.150617599487305 18.34368324279785 34.8014030456543 30.874282836914062 C 7.139074802398682 34.60762405395508 63.38311767578125 18.49953269958496 13.130729675292969 39.55297088623047" stroke-width="3.42166805267334" fill="none" stroke="rgb(255, 255, 255)" stroke-opacity="4.9174016e-09" stroke-linecap="round" stroke-linejoin="round"/>
    <path d="M 24.520633697509766 61.85707092285156 C 53.27117919921875 63.99969482421875 60.19171142578125 58.99020767211914 62.74869918823242 20.60689353942871 C 63.202877044677734 0.0001627026649657637 24.285947799682617 0.28794270753860474 29.059429168701172 5.3992838859558105" stroke-width="2.0208396911621094" fill="none" stroke="rgb(255, 255, 255)" stroke-opacity="0.974982" stroke-linecap="round" stroke-linejoin="round"/>
    <path d="M 62.457862854003906 26.306983947753906 C 63.993778228759766 48.151084899902344 63.575931549072266 1.8334499597549438 31.866039276123047 8.412628173828125 C 53.5719108581543 36.63660430908203 14.740715980529785 0.0013625908177345991 54.03865432739258 4.318163871765137" stroke-width="1.0010384321212769" fill="none" stroke="rgb(255, 255, 255)" stroke-opacity="0.1317782" stroke-linecap="round" stroke-linejoin="round"/>
    <path d="M 58.50334930419922 41.04377746582031 C 35.30432891845703 59.49241638183594 47.679439544677734 17.06344223022461 63.850196838378906 6.527076244354248 C 63.19261169433594 12.055134773254395 22.708816528320312 53.85886764526367 0.3486003875732422 38.449302673339844" stroke-width="1.0368443727493286" fill="none" stroke="rgb(255, 255, 255)" stroke-opacity="0.01704154" stroke-linecap="round" stroke-linejoin="round"/>
    <path d="M 19.73128890991211 6.951880931854248 C 63.987510681152344 58.233089447021484 51.714290618896484 20.55575180053711 0.06148634850978851 62.844844818115234 C 63.95988082885742 45.491878509521484 63.989315032958984 63.95158386230469 61.8464469909668 4.909486770629883" stroke-width="1.138463020324707" fill="none" stroke="rgb(255, 255, 255)" stroke-opacity="0.013726037" stroke-linecap="round" stroke-linejoin="round"/>
    <path d="M 1.548471450805664 21.523530960083008 C 1.2669254541397095 58.41142654418945 13.742284774780273 63.949745178222656 63.54326629638672 62.228755950927734 C 1.7039581537246704 51.57394790649414 63.31098556518555 63.9561882019043 63.524044036865234 63.92301940917969" stroke-width="2.7198612689971924" fill="none" stroke="rgb(255, 255, 255)" stroke-opacity="0.0052419687" stroke-linecap="round" stroke-linejoin="round"/>
    <path d="M 28.560829162597656 29.3277530670166 C 2.9108476638793945 48.44010925292969 44.830623626708984 46.39132308959961 28.533750534057617 29.877391815185547 C 18.007429122924805 34.98515319824219 46.08259963989258 42.56055450439453 43.384910583496094 22.995079040527344" stroke-width="1.7882317304611206" fill="none" stroke="rgb(255, 255, 255)" stroke-opacity="1.0" stroke-linecap="round" stroke-linejoin="round"/>
    <path d="M 0.0010991153540089726 16.703168869018555 C 13.88398265838623 63.98622512817383 46.19553756713867 63.994075775146484 21.150211334228516 10.622358322143555 C 51.183902740478516 63.99962615966797 19.575397491455078 52.82231521606445 63.97846221923828 25.786672592163086" stroke-width="2.7841544151306152" fill="none" stroke="rgb(255, 255, 255)" stroke-opacity="2.4347302e-10" stroke-linecap="round" stroke-linejoin="round"/>
    <path d="M 0.3101685345172882 0.8220701217651367 C 1.3044313192367554 0.3772851526737213 5.12632417678833 0.42537355422973633 63.67694091796875 0.3338255286216736 C 23.089107513427734 63.94768142700195 46.23403549194336 63.78773880004883 63.999542236328125 54.790523529052734" stroke-width="1.0001862049102783" fill="none" stroke="rgb(255, 255, 255)" stroke-opacity="0.006230197" stroke-linecap="round" stroke-linejoin="round"/>
    <path d="M 18.271873474121094 2.623488187789917 C 63.96297836303711 0.002796446206048131 63.80937957763672 0.00035525005660019815 60.73152160644531 63.41802215576172 C 63.73464584350586 62.979923248291016 0.42769768834114075 3.2444770336151123 59.76812744140625 4.827486991882324" stroke-width="1.0000003576278687" fill="none" stroke="rgb(255, 255, 255)" stroke-opacity="0.031408306" stroke-linecap="round" stroke-linejoin="round"/>
    <path d="M 63.92173767089844 0.2823293209075928 C 63.931251525878906 0.6548428535461426 63.61470031738281 1.0884453058242798 0.4527605175971985 0.24688409268856049 C 63.51823043823242 58.55613708496094 61.09370422363281 63.8278923034668 63.013214111328125 63.59804153442383" stroke-width="1.0010961294174194" fill="none" stroke="rgb(255, 255, 255)" stroke-opacity="0.0031705617" stroke-linecap="round" stroke-linejoin="round"/>
    <path d="M 0.006208427716046572 12.284836769104004 C 19.1940860748291 0.27540212869644165 0.5883654952049255 60.32706069946289 40.03532409667969 1.2716457843780518 C 0.00995442271232605 0.12279056012630463 15.751529693603516 9.275130271911621 0.02234293520450592 62.157875061035156" stroke-width="4.702290058135986" fill="none" stroke="rgb(255, 255, 255)" stroke-opacity="0.021992184" stroke-linecap="round" stroke-linejoin="round"/>
    <path d="M 23.548418045043945 57.4643440246582 C 63.99919891357422 2.8311350345611572 49.24365997314453 0.7499246597290039 63.53181076049805 62.014347076416016 C 4.278402328491211 63.34442901611328 20.221010208129883 63.07258605957031 40.939510345458984 5.120219707489014" stroke-width="1.831054925918579" fill="none" stroke="rgb(255, 255, 255)" stroke-opacity="0.009171395" stroke-linecap="round" stroke-linejoin="round"/>
  </g>
</svg>
