<?xml version="1.0" ?>
<svg xmlns="http://www.w3.org/2000/svg" version="1.1" width="229" height="229">
  <defs/>
  <g>
    <path d="M 146.22122192382812 181.47683715820312 C 18.967113494873047 190.63011169433594 -13.859333992004395 182.78756713867188 135.14776611328125 211.84652709960938" stroke-width="4.0" fill="none" stroke="rgb(176, 113, 89)" stroke-opacity="1.0" stroke-linecap="round" stroke-linejoin="round"/>
    <path d="M 39.15009689331055 136.96905517578125 C 75.66516876220703 2.574512004852295 105.1383056640625 -35.6243896484375 44.883358001708984 123.385009765625" stroke-width="4.0" fill="none" stroke="rgb(163, 101, 70)" stroke-opacity="1.0" stroke-linecap="round" stroke-linejoin="round"/>
    <path d="M 67.49102020263672 104.27290344238281 C 69.71879577636719 201.82235717773438 42.795440673828125 201.31503295898438 20.349332809448242 70.83039855957031" stroke-width="4.0" fill="none" stroke="rgb(176, 110, 79)" stroke-opacity="1.0" stroke-linecap="round" stroke-linejoin="round"/>
    <path d="M 113.6583023071289 142.39581298828125 C 75.34321594238281 58.377864837646484 32.49342346191406 71.7702407836914 204.38726806640625 70.5044174194336" stroke-width="4.0" fill="none" stroke="rgb(143, 92, 66)" stroke-opacity="1.0" stroke-linecap="round" stroke-linejoin="round"/>
    <path d="M 170.7360076904297 206.0284423828125 C 1.5128873586654663 188.04232788085938 -7.342676639556885 195.9819793701172 188.2513885498047 183.26199340820312" stroke-width="4.0" fill="none" stroke="rgb(171, 111, 87)" stroke-opacity="1.0" stroke-linecap="round" stroke-linejoin="round"/>
    <path d="M 8.157686233520508 86.26807403564453 C 73.03417205810547 204.39791870117188 66.73505401611328 160.63192749023438 21.73177146911621 70.45333862304688" stroke-width="4.0" fill="none" stroke="rgb(175, 114, 87)" stroke-opacity="1.0" stroke-linecap="round" stroke-linejoin="round"/>
    <path d="M 161.7800750732422 210.48348999023438 C 49.4575309753418 195.1363525390625 -14.148296356201172 191.72164916992188 120.55647277832031 217.42941284179688" stroke-width="4.0" fill="none" stroke="rgb(169, 110, 90)" stroke-opacity="0.975045" stroke-linecap="round" stroke-linejoin="round"/>
    <path d="M 174.45069885253906 40.48783493041992 C 46.43301010131836 84.9996566772461 43.88103103637695 92.43631744384766 219.68801879882812 90.18780517578125" stroke-width="4.0" fill="none" stroke="rgb(160, 96, 63)" stroke-opacity="1.0" stroke-linecap="round" stroke-linejoin="round"/>
    <path d="M 72.71989440917969 109.55062866210938 C 196.44483947753906 164.16232299804688 211.66236877441406 160.60215759277344 73.12281036376953 105.76893615722656" stroke-width="4.0" fill="none" stroke="rgb(144, 78, 55)" stroke-opacity="1.0" stroke-linecap="round" stroke-linejoin="round"/>
    <path d="M 152.34812927246094 170.32763671875 C -52.272918701171875 174.0630340576172 83.43901824951172 194.75953674316406 5.121747970581055 94.2706527709961" stroke-width="4.0" fill="none" stroke="rgb(181, 120, 93)" stroke-opacity="1.0" stroke-linecap="round" stroke-linejoin="round"/>
    <path d="M 45.00947189331055 157.56253051757812 C 90.88374328613281 -7.772838592529297 139.2558135986328 -40.397342681884766 65.29029846191406 110.63737487792969" stroke-width="4.0" fill="none" stroke="rgb(167, 117, 84)" stroke-opacity="1.0" stroke-linecap="round" stroke-linejoin="round"/>
    <path d="M 105.57176971435547 217.4413604736328 C 44.883934020996094 211.19528198242188 18.872867584228516 189.62135314941406 130.14903259277344 215.69052124023438" stroke-width="4.0" fill="none" stroke="rgb(174, 117, 98)" stroke-opacity="1.0" stroke-linecap="round" stroke-linejoin="round"/>
    <path d="M 212.4407196044922 78.49594116210938 C 129.8115234375 225.79139709472656 106.26594543457031 251.51968383789062 191.28697204589844 105.42108154296875" stroke-width="4.0" fill="none" stroke="rgb(167, 99, 75)" stroke-opacity="1.0" stroke-linecap="round" stroke-linejoin="round"/>
    <path d="M 57.62516784667969 168.50155639648438 C 77.66761779785156 60.31448745727539 15.742311477661133 98.16448211669922 211.8798370361328 96.58413696289062" stroke-width="4.0" fill="none" stroke="rgb(163, 93, 64)" stroke-opacity="1.0" stroke-linecap="round" stroke-linejoin="round"/>
    <path d="M 36.10210418701172 152.19097900390625 C 42.98947525024414 11.995549201965332 57.03886413574219 -0.05970204249024391 41.71929168701172 114.49414825439453" stroke-width="4.0" fill="none" stroke="rgb(179, 115, 79)" stroke-opacity="1.0" stroke-linecap="round" stroke-linejoin="round"/>
    <path d="M 140.88836669921875 214.235107421875 C 190.56472778320312 138.83599853515625 185.1348114013672 104.69668579101562 191.64019775390625 163.8962860107422" stroke-width="4.0" fill="none" stroke="rgb(185, 123, 96)" stroke-opacity="1.0" stroke-linecap="round" stroke-linejoin="round"/>
    <path d="M 40.755130767822266 193.71633911132812 C 245.43063354492188 189.67689514160156 213.5434112548828 210.87564086914062 90.44465637207031 193.5251007080078" stroke-width="4.0" fill="none" stroke="rgb(174, 116, 95)" stroke-opacity="1.0" stroke-linecap="round" stroke-linejoin="round"/>
    <path d="M 213.49978637695312 116.8174819946289 C 115.49433898925781 15.173325538635254 76.8756103515625 -19.978647232055664 221.5243682861328 107.69743347167969" stroke-width="4.0" fill="none" stroke="rgb(166, 107, 76)" stroke-opacity="1.0" stroke-linecap="round" stroke-linejoin="round"/>
    <path d="M 32.95726776123047 179.55813598632812 C 209.8748779296875 169.3684844970703 190.6632843017578 176.5785675048828 35.21133804321289 183.70245361328125" stroke-width="4.0" fill="none" stroke="rgb(180, 117, 90)" stroke-opacity="1.0" stroke-linecap="round" stroke-linejoin="round"/>
    <path d="M 4.461932182312012 169.3981475830078 C 3.6257402896881104 133.68411254882812 10.851579666137695 129.15924072265625 1.654252052307129 132.3956756591797" stroke-width="4.0" fill="none" stroke="rgb(189, 191, 187)" stroke-opacity="0.014305458" stroke-linecap="round" stroke-linejoin="round"/>
    <path d="M 97.53330993652344 107.71483612060547 C 243.23812866210938 168.72352600097656 212.91107177734375 204.1122589111328 99.1416015625 187.1747589111328" stroke-width="4.0" fill="none" stroke="rgb(168, 105, 82)" stroke-opacity="1.0" stroke-linecap="round" stroke-linejoin="round"/>
    <path d="M 93.92387390136719 36.17909240722656 C 30.648746490478516 162.1780548095703 98.66748809814453 103.29727935791016 204.58905029296875 124.5491943359375" stroke-width="4.0" fill="none" stroke="rgb(158, 93, 63)" stroke-opacity="1.0" stroke-linecap="round" stroke-linejoin="round"/>
    <path d="M 52.44343948364258 41.628963470458984 C 54.23447036743164 128.15557861328125 25.3117733001709 118.69216918945312 41.02157211303711 44.61524963378906" stroke-width="4.0" fill="none" stroke="rgb(176, 111, 72)" stroke-opacity="1.0" stroke-linecap="round" stroke-linejoin="round"/>
    <path d="M 47.07435607910156 138.56109619140625 C 5.269665718078613 13.296987533569336 -23.479944229125977 127.34622192382812 128.45558166503906 156.73329162597656" stroke-width="4.0" fill="none" stroke="rgb(165, 98, 72)" stroke-opacity="1.0" stroke-linecap="round" stroke-linejoin="round"/>
    <path d="M 169.8816375732422 158.96685791015625 C 106.17633819580078 114.86972045898438 52.78895950317383 139.78277587890625 25.314899444580078 67.11284637451172" stroke-width="4.0" fill="none" stroke="rgb(147, 86, 61)" stroke-opacity="1.0" stroke-linecap="round" stroke-linejoin="round"/>
    <path d="M 53.116580963134766 116.71459197998047 C 142.07669067382812 154.12271118164062 187.8238067626953 139.21119689941406 145.91683959960938 213.33628845214844" stroke-width="4.0" fill="none" stroke="rgb(143, 83, 63)" stroke-opacity="1.0" stroke-linecap="round" stroke-linejoin="round"/>
    <path d="M 157.92703247070312 209.3410186767578 C 220.2305908203125 204.87693786621094 189.50965881347656 57.1474723815918 216.50096130371094 114.48353576660156" stroke-width="4.0" fill="none" stroke="rgb(183, 126, 103)" stroke-opacity="1.0" stroke-linecap="round" stroke-linejoin="round"/>
    <path d="M 69.90223693847656 71.84291076660156 C 167.7261199951172 125.70523071289062 140.60491943359375 -8.635939598083496 81.16300201416016 22.197677612304688" stroke-width="4.0" fill="none" stroke="rgb(169, 112, 78)" stroke-opacity="0.99259084" stroke-linecap="round" stroke-linejoin="round"/>
    <path d="M 222.7589569091797 101.28273010253906 C 99.61143493652344 -1.779078483581543 82.94568634033203 -28.24192237854004 216.86563110351562 89.96885681152344" stroke-width="4.0" fill="none" stroke="rgb(156, 107, 79)" stroke-opacity="1.0" stroke-linecap="round" stroke-linejoin="round"/>
    <path d="M 141.76576232910156 157.08966064453125 C -5.47865104675293 108.81396484375 27.11798858642578 110.37663269042969 148.9928436279297 155.61656188964844" stroke-width="4.0" fill="none" stroke="rgb(147, 84, 62)" stroke-opacity="1.0" stroke-linecap="round" stroke-linejoin="round"/>
    <path d="M 127.76358032226562 38.603759765625 C 69.4881591796875 31.026689529418945 93.04566192626953 11.408158302307129 50.72495651245117 120.38176727294922" stroke-width="4.0" fill="none" stroke="rgb(172, 118, 81)" stroke-opacity="1.0" stroke-linecap="round" stroke-linejoin="round"/>
    <path d="M 33.96596908569336 169.73046875 C 194.40878295898438 166.9242706298828 191.6552276611328 151.81707763671875 134.34197998046875 215.05776977539062" stroke-width="4.0" fill="none" stroke="rgb(179, 117, 90)" stroke-opacity="1.0" stroke-linecap="round" stroke-linejoin="round"/>
    <path d="M 193.02664184570312 108.88046264648438 C -17.922767639160156 91.7140121459961 -3.1416609287261963 97.82693481445312 196.39895629882812 115.66934967041016" stroke-width="4.0" fill="none" stroke="rgb(153, 85, 59)" stroke-opacity="1.0" stroke-linecap="round" stroke-linejoin="round"/>
    <path d="M 26.78426170349121 194.53109741210938 C 17.776695251464844 194.79110717773438 22.96347999572754 195.67881774902344 27.79585075378418 199.5372772216797" stroke-width="2.141042709350586" fill="none" stroke="rgb(211, 189, 213)" stroke-opacity="0.018162174" stroke-linecap="round" stroke-linejoin="round"/>
    <path d="M 229.03707885742188 71.71854400634766 C 229.37925720214844 70.77836608886719 231.1685028076172 72.12210083007812 227.143310546875 70.53135681152344" stroke-width="2.018852949142456" fill="none" stroke="rgb(252, 241, 251)" stroke-opacity="0.019789971" stroke-linecap="round" stroke-linejoin="round"/>
    <path d="M 118.95852661132812 123.86958312988281 C 234.12335205078125 119.80165100097656 195.4385528564453 154.52459716796875 150.32601928710938 213.77755737304688" stroke-width="4.0" fill="none" stroke="rgb(162, 101, 77)" stroke-opacity="1.0" stroke-linecap="round" stroke-linejoin="round"/>
    <path d="M 164.56033325195312 160.86013793945312 C -22.779743194580078 170.89303588867188 -14.739751815795898 157.36439514160156 153.36038208007812 159.31375122070312" stroke-width="4.0" fill="none" stroke="rgb(182, 119, 91)" stroke-opacity="1.0" stroke-linecap="round" stroke-linejoin="round"/>
    <path d="M 139.26670837402344 17.179901123046875 C 15.453550338745117 48.83641815185547 6.6385064125061035 57.78996276855469 121.70162963867188 10.226180076599121" stroke-width="4.0" fill="none" stroke="rgb(154, 122, 93)" stroke-opacity="0.89491093" stroke-linecap="round" stroke-linejoin="round"/>
    <path d="M 132.32933044433594 13.339378356933594 C 95.43780517578125 78.51260375976562 62.99358367919922 96.58311462402344 125.95960235595703 11.81329345703125" stroke-width="4.0" fill="none" stroke="rgb(180, 141, 98)" stroke-opacity="1.0" stroke-linecap="round" stroke-linejoin="round"/>
    <path d="M 171.45437622070312 183.91510009765625 C 194.57241821289062 80.36175537109375 259.5946350097656 112.35440063476562 57.14841079711914 93.73224639892578" stroke-width="4.0" fill="none" stroke="rgb(161, 94, 67)" stroke-opacity="1.0" stroke-linecap="round" stroke-linejoin="round"/>
  </g>
</svg>
