<?xml version="1.0" ?>
<svg xmlns="http://www.w3.org/2000/svg" version="1.1" width="229" height="229">
  <defs/>
  <g>
    <path d="M 53.8802604675293 248.26080322265625 C 39.129791259765625 187.80360412597656 56.49261474609375 217.16287231445312 43.699256896972656 178.7864990234375" stroke-width="3.7457432746887207" fill="none" stroke="rgb(105, 41, 0)" stroke-opacity="1.0" stroke-linecap="round" stroke-linejoin="round"/>
    <path d="M 65.1987075805664 216.34658813476562 C 110.81608581542969 211.2866973876953 65.21088409423828 233.5241241455078 95.83265686035156 189.2389678955078" stroke-width="2.0" fill="none" stroke="rgb(118, 74, 0)" stroke-opacity="0.5058382" stroke-linecap="round" stroke-linejoin="round"/>
    <path d="M 171.99095153808594 44.61118698120117 C 214.04786682128906 15.03972339630127 217.39883422851562 25.500471115112305 155.17694091796875 62.543094635009766" stroke-width="4.0" fill="none" stroke="rgb(250, 118, 0)" stroke-opacity="0.4102255" stroke-linecap="round" stroke-linejoin="round"/>
    <path d="M 121.11383056640625 -29.838916778564453 C 109.18761444091797 51.181129455566406 121.40484619140625 -12.529205322265625 103.55010986328125 24.607215881347656" stroke-width="2.261052370071411" fill="none" stroke="rgb(240, 209, 187)" stroke-opacity="0.76782787" stroke-linecap="round" stroke-linejoin="round"/>
    <path d="M 47.729122161865234 98.28272247314453 C 45.57463836669922 106.33506774902344 31.253639221191406 172.97927856445312 41.151309967041016 195.60543823242188" stroke-width="4.0" fill="none" stroke="rgb(0, 4, 0)" stroke-opacity="1.0" stroke-linecap="round" stroke-linejoin="round"/>
    <path d="M 3.1369783878326416 61.4970588684082 C 6.424727439880371 23.332138061523438 14.212163925170898 62.73625564575195 7.071363925933838 -11.578181266784668" stroke-width="2.0" fill="none" stroke="rgb(149, 66, 36)" stroke-opacity="0.116288505" stroke-linecap="round" stroke-linejoin="round"/>
    <path d="M 92.92684936523438 66.6209716796875 C 97.65011596679688 54.20489501953125 111.43466186523438 51.7071533203125 89.56193542480469 64.19770050048828" stroke-width="2.0" fill="none" stroke="rgb(179, 71, 0)" stroke-opacity="0.8366889" stroke-linecap="round" stroke-linejoin="round"/>
    <path d="M 66.4854965209961 96.92170715332031 C 78.09494018554688 170.3501434326172 54.466495513916016 77.56793212890625 122.26810455322266 75.29130554199219" stroke-width="4.0" fill="none" stroke="rgb(192, 0, 141)" stroke-opacity="0.050877694" stroke-linecap="round" stroke-linejoin="round"/>
    <path d="M 188.08889770507812 151.445068359375 C 274.3820495605469 152.81280517578125 207.5232391357422 148.75999450683594 191.598388671875 125.67671203613281" stroke-width="4.0" fill="none" stroke="rgb(70, 5, 43)" stroke-opacity="0.29544604" stroke-linecap="round" stroke-linejoin="round"/>
    <path d="M 16.69524383544922 147.25747680664062 C 4.9832234382629395 104.1226577758789 34.701045989990234 159.47239685058594 29.524953842163086 67.97325897216797" stroke-width="2.7259836196899414" fill="none" stroke="rgb(228, 255, 224)" stroke-opacity="0.5078398" stroke-linecap="round" stroke-linejoin="round"/>
    <path d="M 173.96188354492188 53.021934509277344 C 109.3646011352539 67.27644348144531 154.01217651367188 27.993549346923828 198.79598999023438 29.973066329956055" stroke-width="4.0" fill="none" stroke="rgb(202, 97, 22)" stroke-opacity="0.63495916" stroke-linecap="round" stroke-linejoin="round"/>
    <path d="M 15.039859771728516 97.83065795898438 C 23.225414276123047 157.37905883789062 14.422613143920898 113.15686798095703 -3.501678943634033 193.9722137451172" stroke-width="2.2604851722717285" fill="none" stroke="rgb(11, 0, 2)" stroke-opacity="1.0" stroke-linecap="round" stroke-linejoin="round"/>
    <path d="M 135.37498474121094 85.42181396484375 C 122.7259521484375 130.00706481933594 139.02369689941406 107.72084045410156 109.85904693603516 101.75032806396484" stroke-width="2.011248826980591" fill="none" stroke="rgb(46, 0, 255)" stroke-opacity="1.0" stroke-linecap="round" stroke-linejoin="round"/>
    <path d="M 182.8989715576172 46.83744430541992 C 159.32676696777344 41.818180084228516 181.23190307617188 57.18400955200195 180.02780151367188 46.97289276123047" stroke-width="2.043623208999634" fill="none" stroke="rgb(3, 0, 5)" stroke-opacity="1.0" stroke-linecap="round" stroke-linejoin="round"/>
    <path d="M 224.48812866210938 115.5260238647461 C 90.17310333251953 135.26608276367188 176.76290893554688 125.26021575927734 236.9879608154297 140.00640869140625" stroke-width="3.960569143295288" fill="none" stroke="rgb(215, 34, 40)" stroke-opacity="0.12068791" stroke-linecap="round" stroke-linejoin="round"/>
    <path d="M 192.06455993652344 28.303924560546875 C 191.43666076660156 50.294857025146484 187.15931701660156 95.68731689453125 142.09446716308594 95.06947326660156" stroke-width="4.0" fill="none" stroke="rgb(112, 22, 2)" stroke-opacity="1.0" stroke-linecap="round" stroke-linejoin="round"/>
    <path d="M 157.0925750732422 102.97824096679688 C 212.920654296875 63.22388458251953 194.74371337890625 42.00649642944336 177.60133361816406 32.495635986328125" stroke-width="4.0" fill="none" stroke="rgb(126, 63, 21)" stroke-opacity="1.0" stroke-linecap="round" stroke-linejoin="round"/>
    <path d="M 187.45962524414062 164.6099395751953 C 195.7307586669922 121.84100341796875 231.00119018554688 142.9068603515625 222.55441284179688 150.990478515625" stroke-width="4.0" fill="none" stroke="rgb(146, 131, 144)" stroke-opacity="0.7432316" stroke-linecap="round" stroke-linejoin="round"/>
    <path d="M 206.72415161132812 109.1809310913086 C 234.65939331054688 73.240966796875 219.61183166503906 89.2188491821289 161.13180541992188 141.89512634277344" stroke-width="4.0" fill="none" stroke="rgb(114, 0, 34)" stroke-opacity="1.0" stroke-linecap="round" stroke-linejoin="round"/>
    <path d="M 39.6539421081543 -29.909250259399414 C 13.693089485168457 14.97477912902832 34.40168380737305 -41.357059478759766 2.7222821712493896 7.616697788238525" stroke-width="2.3695085048675537" fill="none" stroke="rgb(190, 148, 34)" stroke-opacity="0.16780289" stroke-linecap="round" stroke-linejoin="round"/>
    <path d="M 152.76304626464844 232.55641174316406 C 160.20516967773438 177.12933349609375 149.519775390625 203.3749542236328 139.18951416015625 150.75074768066406" stroke-width="4.0" fill="none" stroke="rgb(35, 0, 0)" stroke-opacity="1.0" stroke-linecap="round" stroke-linejoin="round"/>
    <path d="M 55.549400329589844 2.2482359409332275 C 63.24214553833008 46.40351104736328 55.26445388793945 -25.25405502319336 59.8046760559082 56.545047760009766" stroke-width="2.0" fill="none" stroke="rgb(60, 9, 9)" stroke-opacity="0.18051776" stroke-linecap="round" stroke-linejoin="round"/>
    <path d="M 26.75994300842285 135.73117065429688 C -9.003418922424316 84.86724090576172 2.0025391578674316 121.44924926757812 41.54509353637695 104.56957244873047" stroke-width="2.202746629714966" fill="none" stroke="rgb(184, 49, 95)" stroke-opacity="0.20571916" stroke-linecap="round" stroke-linejoin="round"/>
    <path d="M 177.41275024414062 123.06790161132812 C 223.96722412109375 71.83155059814453 156.56637573242188 76.70365905761719 178.721435546875 120.97958374023438" stroke-width="4.0" fill="none" stroke="rgb(255, 164, 0)" stroke-opacity="1.0" stroke-linecap="round" stroke-linejoin="round"/>
    <path d="M 125.59183502197266 44.12335968017578 C 174.19192504882812 29.07621955871582 155.83872985839844 66.61424255371094 141.55130004882812 40.54852294921875" stroke-width="4.0" fill="none" stroke="rgb(0, 12, 0)" stroke-opacity="1.0" stroke-linecap="round" stroke-linejoin="round"/>
    <path d="M 63.82756805419922 65.38236236572266 C 98.05550384521484 -1.3825857639312744 69.73139190673828 44.15589141845703 86.24303436279297 3.2842767238616943" stroke-width="2.4277327060699463" fill="none" stroke="rgb(119, 65, 23)" stroke-opacity="0.18721774" stroke-linecap="round" stroke-linejoin="round"/>
    <path d="M 27.583026885986328 105.1332015991211 C 71.834716796875 103.9215087890625 28.06269073486328 82.3825454711914 95.60075378417969 86.33489227294922" stroke-width="4.0" fill="none" stroke="rgb(241, 136, 10)" stroke-opacity="0.341877" stroke-linecap="round" stroke-linejoin="round"/>
    <path d="M 104.46222686767578 170.00889587402344 C 45.55323028564453 131.8685302734375 80.4630355834961 157.3307342529297 58.20829391479492 202.75082397460938" stroke-width="4.0" fill="none" stroke="rgb(24, 0, 73)" stroke-opacity="1.0" stroke-linecap="round" stroke-linejoin="round"/>
    <path d="M 71.65540313720703 224.8587188720703 C 160.5001220703125 229.71212768554688 107.91558837890625 239.48501586914062 128.996337890625 158.1445770263672" stroke-width="4.0" fill="none" stroke="rgb(45, 0, 0)" stroke-opacity="1.0" stroke-linecap="round" stroke-linejoin="round"/>
    <path d="M 204.3301239013672 187.87841796875 C 209.25416564941406 191.76744079589844 183.00619506835938 200.6026611328125 204.8272705078125 201.69322204589844" stroke-width="2.0" fill="none" stroke="rgb(255, 141, 0)" stroke-opacity="0.0" stroke-linecap="round" stroke-linejoin="round"/>
    <path d="M 170.55506896972656 224.22659301757812 C 231.10353088378906 234.4429473876953 228.75625610351562 238.3876190185547 229.03524780273438 236.6662139892578" stroke-width="3.4650561809539795" fill="none" stroke="rgb(112, 0, 212)" stroke-opacity="0.13628836" stroke-linecap="round" stroke-linejoin="round"/>
    <path d="M 7.9679975509643555 24.51834487915039 C 41.096595764160156 -43.77781295776367 65.49717712402344 -41.241424560546875 81.42643737792969 -34.77914810180664" stroke-width="3.453360080718994" fill="none" stroke="rgb(207, 161, 113)" stroke-opacity="0.09026083" stroke-linecap="round" stroke-linejoin="round"/>
    <path d="M 206.50807189941406 31.036996841430664 C 182.24147033691406 56.254539489746094 158.81776428222656 91.6791000366211 131.9725341796875 42.47425842285156" stroke-width="4.0" fill="none" stroke="rgb(3, 0, 31)" stroke-opacity="1.0" stroke-linecap="round" stroke-linejoin="round"/>
    <path d="M 141.1947479248047 91.89776611328125 C 126.76616668701172 115.06517791748047 125.82167053222656 118.99382019042969 129.85789489746094 88.72344970703125" stroke-width="2.900560140609741" fill="none" stroke="rgb(0, 0, 0)" stroke-opacity="1.0" stroke-linecap="round" stroke-linejoin="round"/>
    <path d="M 59.6921501159668 58.31000900268555 C 114.25639343261719 24.598106384277344 89.7386703491211 16.647993087768555 106.20716857910156 0.29519152641296387" stroke-width="4.0" fill="none" stroke="rgb(248, 247, 234)" stroke-opacity="0.4809384" stroke-linecap="round" stroke-linejoin="round"/>
    <path d="M 14.79690170288086 140.2774200439453 C 68.15013885498047 90.47377014160156 42.37764358520508 110.14994049072266 51.5390739440918 92.81937408447266" stroke-width="2.329423666000366" fill="none" stroke="rgb(98, 16, 64)" stroke-opacity="0.30423978" stroke-linecap="round" stroke-linejoin="round"/>
    <path d="M 40.204437255859375 188.64039611816406 C 24.255578994750977 219.66546630859375 51.64307403564453 194.4583282470703 -14.513901710510254 206.59031677246094" stroke-width="3.332021474838257" fill="none" stroke="rgb(34, 0, 69)" stroke-opacity="1.0" stroke-linecap="round" stroke-linejoin="round"/>
    <path d="M 152.11077880859375 66.90497589111328 C 196.0010528564453 7.359041690826416 204.85743713378906 11.647102355957031 183.24806213378906 83.91234588623047" stroke-width="4.0" fill="none" stroke="rgb(182, 82, 7)" stroke-opacity="0.729714" stroke-linecap="round" stroke-linejoin="round"/>
    <path d="M 178.16404724121094 38.28640365600586 C 209.59959411621094 5.446115493774414 232.63461303710938 43.54203414916992 144.2041473388672 34.40372848510742" stroke-width="4.0" fill="none" stroke="rgb(47, 11, 0)" stroke-opacity="0.67410785" stroke-linecap="round" stroke-linejoin="round"/>
    <path d="M 180.28060913085938 168.78500366210938 C 189.44827270507812 164.34217834472656 168.04177856445312 158.12997436523438 236.66201782226562 161.1673583984375" stroke-width="4.0" fill="none" stroke="rgb(66, 35, 71)" stroke-opacity="0.22222096" stroke-linecap="round" stroke-linejoin="round"/>
  </g>
</svg>
