<?xml version="1.0" ?>
<svg xmlns="http://www.w3.org/2000/svg" version="1.1" width="229" height="229">
  <defs/>
  <g>
    <path d="M 229.10186767578125 229.17832946777344 C 199.7886505126953 224.00128173828125 199.20790100097656 202.93272399902344 215.66751098632812 211.64813232421875 C 196.82476806640625 207.09910583496094 190.4323272705078 199.33180236816406 224.20904541015625 202.52061462402344 C 217.328857421875 234.2124481201172 229.28668212890625 235.8744659423828 225.27731323242188 216.3154296875 C 225.9603729248047 213.2939910888672 234.085205078125 207.29261779785156 232.81552124023438 204.68484497070312 C 228.1126708984375 202.25 215.18690490722656 201.182861328125 218.493896484375 214.31170654296875 C 221.32208251953125 219.53245544433594 199.47694396972656 210.14817810058594 202.3662567138672 221.1367950439453 C 192.83731079101562 240.56320190429688 201.1876220703125 200.80731201171875 199.94918823242188 187.77581787109375 C 223.24697875976562 199.65492248535156 238.92733764648438 204.84832763671875 190.61468505859375 173.9664306640625 C 218.8068389892578 173.60760498046875 223.19546508789062 197.4371337890625 229.96981811523438 202.88894653320312 C 209.22525024414062 192.8830108642578 178.92959594726562 198.12445068359375 225.00244140625 211.1613006591797 C 235.3400115966797 194.51100158691406 239.76853942871094 199.92532348632812 241.66395568847656 197.20086669921875 C 230.59359741210938 201.83822631835938 233.9261474609375 204.70697021484375 231.1066436767578 206.2911376953125 C 231.54901123046875 207.32508850097656 230.18051147460938 213.95858764648438 234.30615234375 204.35426330566406 C 232.51553344726562 208.06344604492188 228.51364135742188 205.1488494873047 230.91622924804688 201.24923706054688 C 231.2622833251953 199.50526428222656 235.08258056640625 194.6714630126953 225.67208862304688 199.53277587890625 C 228.88125610351562 196.33274841308594 229.61119079589844 193.7736358642578 205.4188690185547 160.7368927001953 C 224.7967987060547 166.9827117919922 227.11900329589844 195.38558959960938 235.6186065673828 195.39193725585938 C 244.1844024658203 189.11033630371094 241.69091796875 194.0074005126953 240.81907653808594 194.56820678710938 C 242.9268798828125 190.27076721191406 239.5869903564453 195.3452911376953 234.49647521972656 199.3959197998047 C 237.05406188964844 197.9307861328125 236.1851043701172 197.23605346679688 237.1215057373047 198.2596435546875" stroke-width="3.0" fill="none" stroke="rgb(179, 188, 168)" stroke-opacity="0.19485359" stroke-linecap="round" stroke-linejoin="round"/>
    <path d="M 151.72898864746094 194.2144775390625 C 152.25169372558594 192.39450073242188 150.15109252929688 197.28509521484375 151.18072509765625 194.5782470703125 C 152.5196533203125 198.1107635498047 146.8138427734375 203.42901611328125 139.65321350097656 202.2576904296875 C 141.2173614501953 204.7242889404297 136.81361389160156 199.29974365234375 135.13839721679688 196.40122985839844 C 132.88084411621094 195.70555114746094 134.75180053710938 195.6337127685547 135.5326690673828 198.2451171875 C 132.3129425048828 192.54627990722656 126.74653625488281 193.9212646484375 132.4026641845703 185.3037567138672 C 128.94309997558594 190.3804473876953 127.73707580566406 194.8173370361328 131.75820922851562 185.06150817871094 C 128.1393280029297 191.12123107910156 128.43978881835938 190.129150390625 134.45782470703125 195.58633422851562 C 126.18665313720703 191.29800415039062 138.07142639160156 198.35475158691406 132.33229064941406 194.39991760253906 C 129.7345733642578 192.3534698486328 134.44497680664062 195.46446228027344 139.4851531982422 203.58404541015625 C 136.58375549316406 197.6925811767578 131.6840057373047 193.79354858398438 130.30726623535156 192.2120819091797 C 139.50506591796875 202.92190551757812 136.15989685058594 198.5911865234375 134.77430725097656 197.3561553955078 C 140.18954467773438 199.82275390625 128.40235900878906 194.4642791748047 130.87539672851562 188.61895751953125 C 131.8219757080078 191.96080017089844 125.13261413574219 193.68746948242188 137.85394287109375 178.1644287109375 C 141.68026733398438 149.1722412109375 94.18737030029297 191.76266479492188 193.6476287841797 179.55113220214844 C 173.617919921875 168.46978759765625 130.3623809814453 190.2740478515625 102.60787200927734 152.8652801513672 C 158.91842651367188 154.4795379638672 152.479736328125 173.60125732421875 204.56187438964844 169.82818603515625 C 170.72164916992188 138.4292449951172 168.6067352294922 177.46868896484375 140.03184509277344 130.02149963378906 C 172.18544006347656 156.32957458496094 197.4110565185547 152.23033142089844 204.83416748046875 165.507568359375 C 149.58363342285156 166.3217315673828 146.8277587890625 164.0482177734375 108.52872467041016 114.09209442138672 C 178.84304809570312 159.0601348876953 148.6923370361328 189.99278259277344 130.8761444091797 102.68121337890625" stroke-width="3.0" fill="none" stroke="rgb(187, 146, 81)" stroke-opacity="1.0" stroke-linecap="round" stroke-linejoin="round"/>
    <path d="M 75.71992492675781 103.14555358886719 C 87.58264923095703 127.76415252685547 106.8392562866211 89.37460327148438 138.9441680908203 136.94534301757812 C 110.87931060791016 81.97227478027344 140.216064453125 103.45560455322266 86.92494201660156 106.94563293457031 C 140.86659240722656 86.26822662353516 132.2716064453125 100.456787109375 124.21849060058594 105.3286361694336 C 90.87946319580078 103.29578399658203 87.60993194580078 132.38311767578125 79.69741821289062 103.04623413085938 C 71.45665740966797 91.23197174072266 77.46319580078125 86.70989990234375 77.47715759277344 97.90463256835938 C 66.51199340820312 73.96595764160156 64.16187286376953 85.77887725830078 140.82180786132812 88.09996032714844 C 95.82670593261719 72.56976318359375 66.77281188964844 87.48906707763672 72.44576263427734 82.1681137084961 C 80.361083984375 73.86080169677734 66.94637298583984 92.34086608886719 84.88278198242188 115.97773742675781 C 132.05596923828125 131.0098876953125 95.87423706054688 108.10166931152344 103.11113739013672 8.856002807617188 C 108.61210632324219 114.35430908203125 124.14059448242188 121.561279296875 110.36473083496094 61.10631561279297 C 110.89189910888672 75.06072998046875 111.13704681396484 56.57273483276367 106.2225341796875 24.841421127319336 C 78.14667510986328 101.32817077636719 69.83619689941406 70.80818176269531 110.12261199951172 76.88859558105469 C 122.29022979736328 76.74179077148438 107.16402435302734 53.3724479675293 111.5997543334961 7.882472991943359 C 63.84032440185547 60.9846076965332 75.12850952148438 57.26402282714844 75.02742004394531 79.52123260498047 C 71.38816833496094 90.78675842285156 73.20465850830078 86.37229919433594 76.45466613769531 98.69048309326172 C 71.4627685546875 85.18025970458984 64.18999481201172 84.107421875 121.81410217285156 92.46380615234375 C 98.97643280029297 101.42085266113281 87.25956726074219 81.20719909667969 63.71281814575195 87.71175384521484 C 67.03734588623047 86.44593811035156 65.1905746459961 87.57100677490234 60.433841705322266 87.47684478759766 C 67.23516845703125 87.85431671142578 63.3980712890625 87.43295288085938 59.77854919433594 87.24308013916016 C 63.62691116333008 86.53765106201172 60.98661804199219 87.39669036865234 61.47503662109375 87.76966857910156" stroke-width="3.0" fill="none" stroke="rgb(153, 121, 79)" stroke-opacity="1.0" stroke-linecap="round" stroke-linejoin="round"/>
  </g>
</svg>
