<?xml version="1.0" ?>
<svg xmlns="http://www.w3.org/2000/svg" version="1.1" width="229" height="229">
  <defs/>
  <g>
    <path d="M 52.17497253417969 241.81381225585938 C 36.7066764831543 189.70359802246094 61.38594436645508 214.5869140625 40.85267639160156 176.97018432617188" stroke-width="4.0" fill="none" stroke="rgb(113, 34, 0)" stroke-opacity="1.0" stroke-linecap="round" stroke-linejoin="round"/>
    <path d="M 64.14981842041016 212.03738403320312 C 92.95683288574219 213.50625610351562 56.759708404541016 237.50001525878906 92.79837799072266 181.32833862304688" stroke-width="4.0" fill="none" stroke="rgb(128, 103, 32)" stroke-opacity="0.9453519" stroke-linecap="round" stroke-linejoin="round"/>
    <path d="M 181.2472381591797 34.4646110534668 C 210.0611114501953 13.602692604064941 218.89292907714844 29.58747100830078 156.7713623046875 63.664466857910156" stroke-width="4.0" fill="none" stroke="rgb(255, 135, 7)" stroke-opacity="0.5339934" stroke-linecap="round" stroke-linejoin="round"/>
    <path d="M 119.41596221923828 -21.197040557861328 C 104.13870239257812 65.63282775878906 117.95726776123047 -14.431859970092773 95.12313079833984 17.618717193603516" stroke-width="3.183492422103882" fill="none" stroke="rgb(243, 230, 219)" stroke-opacity="0.6583633" stroke-linecap="round" stroke-linejoin="round"/>
    <path d="M 47.23489761352539 100.42697143554688 C 45.543704986572266 105.88761901855469 31.844335556030273 172.6717529296875 41.296566009521484 193.3872528076172" stroke-width="4.0" fill="none" stroke="rgb(0, 2, 0)" stroke-opacity="1.0" stroke-linecap="round" stroke-linejoin="round"/>
    <path d="M 2.7777974605560303 59.81919860839844 C 9.452528953552246 23.884485244750977 6.243871212005615 71.4189453125 11.533258438110352 -6.11558723449707" stroke-width="2.0" fill="none" stroke="rgb(200, 133, 118)" stroke-opacity="0.17214899" stroke-linecap="round" stroke-linejoin="round"/>
    <path d="M 90.02618408203125 62.62322235107422 C 88.92454528808594 41.53910827636719 113.97579193115234 41.45907974243164 82.52342987060547 61.99968719482422" stroke-width="2.0" fill="none" stroke="rgb(255, 130, 0)" stroke-opacity="0.4868768" stroke-linecap="round" stroke-linejoin="round"/>
    <path d="M 66.49384307861328 97.175048828125 C 78.58714294433594 174.06655883789062 52.187255859375 78.0063705444336 121.85594177246094 75.4377670288086" stroke-width="4.0" fill="none" stroke="rgb(193, 0, 191)" stroke-opacity="0.051663503" stroke-linecap="round" stroke-linejoin="round"/>
    <path d="M 187.88072204589844 151.2711944580078 C 271.5220031738281 152.1925811767578 216.30459594726562 152.47703552246094 190.1898651123047 124.38778686523438" stroke-width="4.0" fill="none" stroke="rgb(87, 2, 46)" stroke-opacity="0.25230533" stroke-linecap="round" stroke-linejoin="round"/>
    <path d="M 12.486933708190918 141.0933074951172 C 1.436526894569397 106.36419677734375 21.363237380981445 164.79420471191406 28.283132553100586 66.96459197998047" stroke-width="2.0" fill="none" stroke="rgb(255, 255, 248)" stroke-opacity="0.261611" stroke-linecap="round" stroke-linejoin="round"/>
    <path d="M 164.70648193359375 28.193601608276367 C 103.12611389160156 62.33675765991211 146.2777099609375 27.385347366333008 201.23751831054688 29.21759796142578" stroke-width="4.0" fill="none" stroke="rgb(171, 99, 0)" stroke-opacity="1.0" stroke-linecap="round" stroke-linejoin="round"/>
    <path d="M 15.698683738708496 98.83656311035156 C 24.196504592895508 155.85621643066406 15.116681098937988 116.88868713378906 -4.960281848907471 193.28030395507812" stroke-width="2.921940565109253" fill="none" stroke="rgb(18, 0, 0)" stroke-opacity="1.0" stroke-linecap="round" stroke-linejoin="round"/>
    <path d="M 136.80503845214844 90.67754364013672 C 124.49242401123047 143.87718200683594 135.73521423339844 109.35314178466797 111.00299072265625 102.2745132446289" stroke-width="4.0" fill="none" stroke="rgb(20, 0, 255)" stroke-opacity="1.0" stroke-linecap="round" stroke-linejoin="round"/>
    <path d="M 182.11712646484375 45.40016174316406 C 156.3633270263672 49.37392044067383 180.86094665527344 54.83394241333008 180.0711669921875 45.2919807434082" stroke-width="2.0" fill="none" stroke="rgb(0, 0, 0)" stroke-opacity="1.0" stroke-linecap="round" stroke-linejoin="round"/>
    <path d="M 224.1964111328125 117.68904876708984 C 79.6328125 134.5267333984375 169.8485870361328 127.8540267944336 237.39991760253906 136.97898864746094" stroke-width="4.0" fill="none" stroke="rgb(248, 112, 5)" stroke-opacity="0.096836515" stroke-linecap="round" stroke-linejoin="round"/>
    <path d="M 189.41868591308594 31.58878517150879 C 190.97210693359375 52.52084732055664 188.35140991210938 90.7508773803711 141.37460327148438 94.45829010009766" stroke-width="4.0" fill="none" stroke="rgb(41, 19, 0)" stroke-opacity="1.0" stroke-linecap="round" stroke-linejoin="round"/>
    <path d="M 159.1599884033203 98.42081451416016 C 212.78253173828125 62.558128356933594 195.70265197753906 43.18812942504883 171.86807250976562 26.298625946044922" stroke-width="4.0" fill="none" stroke="rgb(118, 51, 0)" stroke-opacity="0.92375517" stroke-linecap="round" stroke-linejoin="round"/>
    <path d="M 183.72254943847656 165.44033813476562 C 206.23187255859375 122.96072387695312 228.74627685546875 140.09837341308594 224.0245819091797 150.1439208984375" stroke-width="4.0" fill="none" stroke="rgb(165, 133, 158)" stroke-opacity="0.73353153" stroke-linecap="round" stroke-linejoin="round"/>
    <path d="M 208.14170837402344 102.14411926269531 C 228.5326385498047 82.04106903076172 216.11746215820312 89.9646987915039 157.36927795410156 143.70103454589844" stroke-width="4.0" fill="none" stroke="rgb(122, 1, 37)" stroke-opacity="1.0" stroke-linecap="round" stroke-linejoin="round"/>
    <path d="M 39.65645217895508 -29.90115737915039 C 13.808026313781738 15.474698066711426 37.25360107421875 -33.27986526489258 5.429924011230469 8.279221534729004" stroke-width="2.6614601612091064" fill="none" stroke="rgb(202, 91, 71)" stroke-opacity="0.06801842" stroke-linecap="round" stroke-linejoin="round"/>
    <path d="M 153.59817504882812 232.3985137939453 C 158.8282470703125 176.9007568359375 148.31640625 204.21868896484375 138.98202514648438 153.4639434814453" stroke-width="4.0" fill="none" stroke="rgb(42, 0, 0)" stroke-opacity="1.0" stroke-linecap="round" stroke-linejoin="round"/>
    <path d="M 55.80604553222656 2.2676029205322266 C 59.09428024291992 37.99354553222656 56.5919303894043 -21.696428298950195 59.1599235534668 60.33278274536133" stroke-width="2.0" fill="none" stroke="rgb(49, 15, 16)" stroke-opacity="0.16942069" stroke-linecap="round" stroke-linejoin="round"/>
    <path d="M 31.06901741027832 143.5057830810547 C -2.7174606323242188 87.97163391113281 -4.102118968963623 118.5164794921875 43.331050872802734 103.4932861328125" stroke-width="2.4134881496429443" fill="none" stroke="rgb(247, 12, 185)" stroke-opacity="0.15000452" stroke-linecap="round" stroke-linejoin="round"/>
    <path d="M 178.60304260253906 119.37691497802734 C 222.8787078857422 78.7020263671875 153.58763122558594 71.97968292236328 177.9654998779297 118.70558166503906" stroke-width="4.0" fill="none" stroke="rgb(255, 199, 0)" stroke-opacity="1.0" stroke-linecap="round" stroke-linejoin="round"/>
    <path d="M 127.99980926513672 43.52632522583008 C 164.0333251953125 19.903120040893555 164.56622314453125 70.42469024658203 144.73045349121094 47.32167053222656" stroke-width="4.0" fill="none" stroke="rgb(37, 0, 0)" stroke-opacity="1.0" stroke-linecap="round" stroke-linejoin="round"/>
    <path d="M 64.20700073242188 67.06521606445312 C 96.70096588134766 -1.3942872285842896 72.69452667236328 30.39857292175293 88.4846420288086 -0.6464892029762268" stroke-width="2.3915205001831055" fill="none" stroke="rgb(163, 104, 54)" stroke-opacity="0.19747192" stroke-linecap="round" stroke-linejoin="round"/>
    <path d="M 31.17186164855957 101.40882110595703 C 67.44869995117188 102.08404541015625 32.25247573852539 82.61956787109375 95.35230255126953 84.42837524414062" stroke-width="4.0" fill="none" stroke="rgb(216, 115, 0)" stroke-opacity="0.34757665" stroke-linecap="round" stroke-linejoin="round"/>
    <path d="M 104.58422088623047 170.09042358398438 C 45.82686233520508 131.75625610351562 81.12496948242188 161.5421905517578 58.11944580078125 202.66302490234375" stroke-width="4.0" fill="none" stroke="rgb(0, 0, 123)" stroke-opacity="1.0" stroke-linecap="round" stroke-linejoin="round"/>
    <path d="M 72.81642150878906 225.36766052246094 C 154.0231170654297 232.764892578125 110.66188049316406 240.95852661132812 128.94920349121094 162.90704345703125" stroke-width="4.0" fill="none" stroke="rgb(15, 0, 0)" stroke-opacity="1.0" stroke-linecap="round" stroke-linejoin="round"/>
    <path d="M 204.3301239013672 187.87841796875 C 209.25416564941406 191.76744079589844 183.00619506835938 200.6026611328125 204.8272705078125 201.69322204589844" stroke-width="2.0" fill="none" stroke="rgb(255, 141, 0)" stroke-opacity="0.0" stroke-linecap="round" stroke-linejoin="round"/>
    <path d="M 170.8206329345703 223.87936401367188 C 231.86245727539062 233.0487518310547 228.96087646484375 236.9367218017578 229.0121612548828 236.4863739013672" stroke-width="2.9355428218841553" fill="none" stroke="rgb(140, 0, 199)" stroke-opacity="0.20054524" stroke-linecap="round" stroke-linejoin="round"/>
    <path d="M 11.878366470336914 20.450359344482422 C 48.74304962158203 -36.83940124511719 68.90853118896484 -37.86811447143555 82.68098449707031 -33.72542953491211" stroke-width="2.0089821815490723" fill="none" stroke="rgb(255, 241, 204)" stroke-opacity="0.1935322" stroke-linecap="round" stroke-linejoin="round"/>
    <path d="M 202.58908081054688 28.94822883605957 C 181.94412231445312 55.473209381103516 159.52017211914062 94.45731353759766 136.90310668945312 42.694889068603516" stroke-width="4.0" fill="none" stroke="rgb(0, 0, 8)" stroke-opacity="1.0" stroke-linecap="round" stroke-linejoin="round"/>
    <path d="M 143.83311462402344 99.07437133789062 C 121.55774688720703 122.00688171386719 125.57345581054688 127.7196044921875 128.8136444091797 92.78629302978516" stroke-width="4.0" fill="none" stroke="rgb(9, 0, 0)" stroke-opacity="1.0" stroke-linecap="round" stroke-linejoin="round"/>
    <path d="M 58.48809814453125 60.815303802490234 C 108.54788970947266 22.186037063598633 92.1177749633789 18.51334571838379 96.6123046875 -0.540479838848114" stroke-width="4.0" fill="none" stroke="rgb(255, 255, 234)" stroke-opacity="0.2520693" stroke-linecap="round" stroke-linejoin="round"/>
    <path d="M 17.320756912231445 140.0823211669922 C 60.52256393432617 80.80841064453125 42.13969421386719 110.67808532714844 51.3332633972168 93.85432434082031" stroke-width="2.0" fill="none" stroke="rgb(84, 0, 0)" stroke-opacity="0.72651786" stroke-linecap="round" stroke-linejoin="round"/>
    <path d="M 39.58027648925781 190.3208770751953 C 22.7753849029541 219.73899841308594 63.07294845581055 198.430908203125 -15.772440910339355 204.16183471679688" stroke-width="3.151397466659546" fill="none" stroke="rgb(27, 0, 55)" stroke-opacity="1.0" stroke-linecap="round" stroke-linejoin="round"/>
    <path d="M 154.37657165527344 68.901611328125 C 190.09303283691406 9.038694381713867 204.74510192871094 18.994447708129883 183.192626953125 84.625" stroke-width="4.0" fill="none" stroke="rgb(209, 117, 34)" stroke-opacity="0.6080134" stroke-linecap="round" stroke-linejoin="round"/>
    <path d="M 179.6732177734375 39.34563064575195 C 201.01651000976562 8.680510520935059 228.0774383544922 41.63658905029297 154.1255340576172 31.9415340423584" stroke-width="4.0" fill="none" stroke="rgb(130, 63, 0)" stroke-opacity="0.6590435" stroke-linecap="round" stroke-linejoin="round"/>
    <path d="M 180.03616333007812 177.2556610107422 C 189.66342163085938 157.928955078125 150.26174926757812 161.59353637695312 233.12022399902344 160.37388610839844" stroke-width="3.9791760444641113" fill="none" stroke="rgb(100, 44, 120)" stroke-opacity="0.20741956" stroke-linecap="round" stroke-linejoin="round"/>
  </g>
</svg>
