<?xml version="1.0" ?>
<svg xmlns="http://www.w3.org/2000/svg" version="1.1" width="229" height="229">
  <defs/>
  <g>
    <path d="M 51.4629020690918 240.96829223632812 C 38.48680877685547 187.41485595703125 62.090187072753906 214.55967712402344 38.35130310058594 176.00355529785156" stroke-width="4.0" fill="none" stroke="rgb(106, 55, 5)" stroke-opacity="0.9991651" stroke-linecap="round" stroke-linejoin="round"/>
    <path d="M 63.056419372558594 214.78567504882812 C 85.81275939941406 214.96231079101562 53.458702087402344 238.7278594970703 84.64307403564453 169.9055938720703" stroke-width="4.0" fill="none" stroke="rgb(133, 87, 6)" stroke-opacity="0.897501" stroke-linecap="round" stroke-linejoin="round"/>
    <path d="M 178.30389404296875 31.268281936645508 C 203.9774627685547 18.579500198364258 216.08383178710938 30.59853172302246 161.55047607421875 58.25422286987305" stroke-width="4.0" fill="none" stroke="rgb(255, 125, 0)" stroke-opacity="0.5309718" stroke-linecap="round" stroke-linejoin="round"/>
    <path d="M 122.26171112060547 -13.9614896774292 C 101.91412353515625 60.49040985107422 125.9093246459961 -13.404616355895996 95.96822357177734 19.545940399169922" stroke-width="2.0" fill="none" stroke="rgb(255, 213, 172)" stroke-opacity="0.39030194" stroke-linecap="round" stroke-linejoin="round"/>
    <path d="M 46.787025451660156 96.8219223022461 C 44.981449127197266 103.07755279541016 29.879501342773438 167.02963256835938 41.862159729003906 193.08352661132812" stroke-width="4.0" fill="none" stroke="rgb(0, 0, 0)" stroke-opacity="1.0" stroke-linecap="round" stroke-linejoin="round"/>
    <path d="M 2.642719268798828 56.32086181640625 C 16.324668884277344 8.843414306640625 8.065967559814453 69.68324279785156 11.670537948608398 -4.373655796051025" stroke-width="2.0" fill="none" stroke="rgb(153, 86, 107)" stroke-opacity="0.16335589" stroke-linecap="round" stroke-linejoin="round"/>
    <path d="M 97.68647003173828 63.46363067626953 C 107.76714324951172 32.0811653137207 130.12525939941406 35.941158294677734 82.19589233398438 48.56334686279297" stroke-width="2.0" fill="none" stroke="rgb(143, 59, 0)" stroke-opacity="0.7536709" stroke-linecap="round" stroke-linejoin="round"/>
    <path d="M 66.74296569824219 97.78443908691406 C 78.80227661132812 178.8310546875 52.25874710083008 76.38256072998047 121.60916137695312 75.56144714355469" stroke-width="4.0" fill="none" stroke="rgb(200, 0, 213)" stroke-opacity="0.08198655" stroke-linecap="round" stroke-linejoin="round"/>
    <path d="M 184.3950958251953 151.2228240966797 C 269.1018371582031 152.02064514160156 224.9267578125 154.6599578857422 189.46678161621094 125.64247131347656" stroke-width="4.0" fill="none" stroke="rgb(62, 16, 2)" stroke-opacity="0.40667635" stroke-linecap="round" stroke-linejoin="round"/>
    <path d="M 12.975652694702148 139.98020935058594 C 2.4158945083618164 108.14193725585938 11.451332092285156 163.5858917236328 15.401500701904297 60.85722732543945" stroke-width="3.6037673950195312" fill="none" stroke="rgb(255, 243, 255)" stroke-opacity="0.2050448" stroke-linecap="round" stroke-linejoin="round"/>
    <path d="M 153.3991241455078 16.820507049560547 C 100.01548767089844 58.29368209838867 149.0352325439453 34.01081466674805 203.01925659179688 27.80984115600586" stroke-width="4.0" fill="none" stroke="rgb(192, 79, 2)" stroke-opacity="1.0" stroke-linecap="round" stroke-linejoin="round"/>
    <path d="M 15.733498573303223 94.89111328125 C 20.87363624572754 169.83843994140625 16.54400634765625 113.55101013183594 -4.083907127380371 191.4246063232422" stroke-width="3.365452766418457" fill="none" stroke="rgb(39, 0, 0)" stroke-opacity="1.0" stroke-linecap="round" stroke-linejoin="round"/>
    <path d="M 139.1626434326172 100.88121795654297 C 131.48809814453125 148.57546997070312 140.53895568847656 110.36555480957031 111.0653305053711 100.16175079345703" stroke-width="3.3319931030273438" fill="none" stroke="rgb(0, 0, 255)" stroke-opacity="1.0" stroke-linecap="round" stroke-linejoin="round"/>
    <path d="M 181.94683837890625 43.97885513305664 C 154.8424072265625 47.85708999633789 183.81996154785156 55.163902282714844 179.9374542236328 46.06270217895508" stroke-width="2.313612937927246" fill="none" stroke="rgb(0, 0, 0)" stroke-opacity="1.0" stroke-linecap="round" stroke-linejoin="round"/>
    <path d="M 223.38262939453125 116.93389892578125 C 71.86371612548828 132.3461456298828 160.1857452392578 128.91819763183594 235.86753845214844 135.45277404785156" stroke-width="4.0" fill="none" stroke="rgb(255, 87, 0)" stroke-opacity="0.095081486" stroke-linecap="round" stroke-linejoin="round"/>
    <path d="M 191.59710693359375 26.43283462524414 C 186.9100799560547 56.57704544067383 188.8667449951172 95.4601058959961 141.28663635253906 92.5544204711914" stroke-width="4.0" fill="none" stroke="rgb(141, 58, 0)" stroke-opacity="0.8137662" stroke-linecap="round" stroke-linejoin="round"/>
    <path d="M 159.7758026123047 101.5555419921875 C 211.4340057373047 58.27552032470703 196.37652587890625 46.53236389160156 174.23776245117188 25.94135856628418" stroke-width="4.0" fill="none" stroke="rgb(121, 50, 0)" stroke-opacity="0.92106515" stroke-linecap="round" stroke-linejoin="round"/>
    <path d="M 182.9495391845703 165.2952423095703 C 193.9854736328125 120.29586029052734 223.29922485351562 140.5878143310547 223.54476928710938 150.68121337890625" stroke-width="4.0" fill="none" stroke="rgb(125, 87, 111)" stroke-opacity="1.0" stroke-linecap="round" stroke-linejoin="round"/>
    <path d="M 207.74684143066406 97.95646667480469 C 224.45753479003906 88.36241912841797 212.11976623535156 90.11064910888672 161.49925231933594 140.1739959716797" stroke-width="4.0" fill="none" stroke="rgb(119, 0, 0)" stroke-opacity="1.0" stroke-linecap="round" stroke-linejoin="round"/>
    <path d="M 39.65300750732422 -29.913047790527344 C 13.69871711730957 15.001877784729004 36.72650909423828 -34.96332931518555 5.592895030975342 7.715905666351318" stroke-width="2.45552659034729" fill="none" stroke="rgb(235, 142, 151)" stroke-opacity="0.15355343" stroke-linecap="round" stroke-linejoin="round"/>
    <path d="M 152.92298889160156 230.5225067138672 C 160.74673461914062 178.35093688964844 148.51849365234375 200.9786376953125 139.19508361816406 153.60430908203125" stroke-width="4.0" fill="none" stroke="rgb(38, 0, 0)" stroke-opacity="1.0" stroke-linecap="round" stroke-linejoin="round"/>
    <path d="M 58.24615478515625 1.6268516778945923 C 53.688995361328125 36.6140022277832 61.98361587524414 -7.579773426055908 56.379249572753906 60.52861404418945" stroke-width="2.0" fill="none" stroke="rgb(88, 23, 16)" stroke-opacity="0.13767774" stroke-linecap="round" stroke-linejoin="round"/>
    <path d="M 32.392208099365234 142.96383666992188 C -0.5899937748908997 92.25387573242188 -3.7300162315368652 116.36955261230469 39.748634338378906 104.5718002319336" stroke-width="2.0" fill="none" stroke="rgb(207, 69, 96)" stroke-opacity="0.17582552" stroke-linecap="round" stroke-linejoin="round"/>
    <path d="M 178.6998291015625 114.68547058105469 C 214.95436096191406 82.9166259765625 151.5922393798828 81.36248779296875 178.80235290527344 121.30570220947266" stroke-width="4.0" fill="none" stroke="rgb(255, 198, 0)" stroke-opacity="1.0" stroke-linecap="round" stroke-linejoin="round"/>
    <path d="M 129.19444274902344 42.663761138916016 C 166.62071228027344 18.323179244995117 166.50619506835938 65.39414978027344 149.59426879882812 43.46903610229492" stroke-width="4.0" fill="none" stroke="rgb(0, 0, 15)" stroke-opacity="1.0" stroke-linecap="round" stroke-linejoin="round"/>
    <path d="M 71.36339569091797 68.58154296875 C 91.01910400390625 -7.944167137145996 73.18373107910156 28.34905242919922 88.8291244506836 -1.8791146278381348" stroke-width="2.0" fill="none" stroke="rgb(94, 51, 23)" stroke-opacity="0.2366507" stroke-linecap="round" stroke-linejoin="round"/>
    <path d="M 27.40898323059082 100.29779815673828 C 70.11328887939453 102.45692443847656 31.601865768432617 84.366943359375 95.11040496826172 84.92051696777344" stroke-width="4.0" fill="none" stroke="rgb(226, 125, 0)" stroke-opacity="0.3071042" stroke-linecap="round" stroke-linejoin="round"/>
    <path d="M 106.63766479492188 170.69801330566406 C 44.50958251953125 132.45309448242188 78.52302551269531 157.0993194580078 57.04170227050781 195.5077362060547" stroke-width="4.0" fill="none" stroke="rgb(0, 0, 103)" stroke-opacity="1.0" stroke-linecap="round" stroke-linejoin="round"/>
    <path d="M 71.7295150756836 225.7967071533203 C 156.87327575683594 229.1842498779297 107.990234375 242.30514526367188 127.55106353759766 163.69273376464844" stroke-width="4.0" fill="none" stroke="rgb(34, 0, 0)" stroke-opacity="1.0" stroke-linecap="round" stroke-linejoin="round"/>
    <path d="M 204.3301239013672 187.87841796875 C 209.25416564941406 191.76744079589844 183.00619506835938 200.6026611328125 204.8272705078125 201.69322204589844" stroke-width="2.0" fill="none" stroke="rgb(255, 141, 0)" stroke-opacity="0.0" stroke-linecap="round" stroke-linejoin="round"/>
    <path d="M 170.62889099121094 224.50332641601562 C 230.95372009277344 231.89846801757812 227.73594665527344 238.58839416503906 228.95281982421875 236.78192138671875" stroke-width="3.3797965049743652" fill="none" stroke="rgb(122, 0, 176)" stroke-opacity="0.16091616" stroke-linecap="round" stroke-linejoin="round"/>
    <path d="M 15.257424354553223 20.015666961669922 C 57.8378791809082 -26.106691360473633 75.83309936523438 -30.151084899902344 85.51848602294922 -31.041500091552734" stroke-width="2.0" fill="none" stroke="rgb(255, 255, 218)" stroke-opacity="0.15260749" stroke-linecap="round" stroke-linejoin="round"/>
    <path d="M 204.8669891357422 30.73042106628418 C 187.9860382080078 52.575653076171875 163.33824157714844 86.98966217041016 138.67189025878906 46.484588623046875" stroke-width="4.0" fill="none" stroke="rgb(1, 0, 10)" stroke-opacity="1.0" stroke-linecap="round" stroke-linejoin="round"/>
    <path d="M 148.32675170898438 103.16703033447266 C 124.59368133544922 129.5909881591797 130.82464599609375 129.7172393798828 134.0712890625 97.88911437988281" stroke-width="4.0" fill="none" stroke="rgb(105, 0, 0)" stroke-opacity="1.0" stroke-linecap="round" stroke-linejoin="round"/>
    <path d="M 64.70268249511719 63.197044372558594 C 112.10932922363281 16.60523796081543 112.41988372802734 25.749807357788086 100.07044982910156 7.784987449645996" stroke-width="2.2845816612243652" fill="none" stroke="rgb(227, 205, 191)" stroke-opacity="0.5553879" stroke-linecap="round" stroke-linejoin="round"/>
    <path d="M 16.22382926940918 137.4032745361328 C 59.559608459472656 79.39395141601562 40.69700622558594 106.21768951416016 50.191070556640625 94.5230941772461" stroke-width="2.1254701614379883" fill="none" stroke="rgb(103, 6, 0)" stroke-opacity="0.8710764" stroke-linecap="round" stroke-linejoin="round"/>
    <path d="M 42.69220733642578 195.04502868652344 C 13.049278259277344 211.15090942382812 56.3527946472168 197.33885192871094 -16.627405166625977 202.8091583251953" stroke-width="4.0" fill="none" stroke="rgb(49, 2, 0)" stroke-opacity="0.96023893" stroke-linecap="round" stroke-linejoin="round"/>
    <path d="M 157.99008178710938 61.99409866333008 C 190.7302703857422 7.55191707611084 202.5914306640625 15.157092094421387 183.66392517089844 84.57533264160156" stroke-width="4.0" fill="none" stroke="rgb(222, 110, 20)" stroke-opacity="0.58779967" stroke-linecap="round" stroke-linejoin="round"/>
    <path d="M 179.39573669433594 39.75868606567383 C 199.00917053222656 7.685111999511719 235.95457458496094 40.58549118041992 162.24588012695312 33.44447708129883" stroke-width="4.0" fill="none" stroke="rgb(84, 29, 0)" stroke-opacity="0.7217353" stroke-linecap="round" stroke-linejoin="round"/>
    <path d="M 182.48733520507812 170.6616973876953 C 185.5593719482422 155.0573272705078 162.7682647705078 162.31544494628906 233.15554809570312 160.03944396972656" stroke-width="3.8101859092712402" fill="none" stroke="rgb(124, 91, 134)" stroke-opacity="0.39435628" stroke-linecap="round" stroke-linejoin="round"/>
  </g>
</svg>
