<?xml version="1.0" ?>
<svg xmlns="http://www.w3.org/2000/svg" version="1.1" width="229" height="229">
  <defs/>
  <g>
    <path d="M 50.81895065307617 243.823486328125 C 43.442718505859375 183.44287109375 60.69242858886719 215.58251953125 42.533348083496094 178.91822814941406" stroke-width="4.0" fill="none" stroke="rgb(119, 60, 0)" stroke-opacity="0.85943186" stroke-linecap="round" stroke-linejoin="round"/>
    <path d="M 56.29600524902344 215.0873565673828 C 85.33125305175781 207.6937255859375 57.32585906982422 238.87835693359375 81.09680938720703 165.66209411621094" stroke-width="4.0" fill="none" stroke="rgb(79, 44, 0)" stroke-opacity="1.0" stroke-linecap="round" stroke-linejoin="round"/>
    <path d="M 180.26686096191406 36.96562957763672 C 197.43373107910156 26.40917205810547 214.65499877929688 34.0575065612793 158.79180908203125 50.527244567871094" stroke-width="4.0" fill="none" stroke="rgb(255, 120, 8)" stroke-opacity="0.62742525" stroke-linecap="round" stroke-linejoin="round"/>
    <path d="M 118.01770782470703 -3.7155845165252686 C 119.0361099243164 84.82600402832031 113.90372467041016 -5.726491928100586 103.83660888671875 7.290592670440674" stroke-width="2.639037847518921" fill="none" stroke="rgb(239, 220, 187)" stroke-opacity="0.6152995" stroke-linecap="round" stroke-linejoin="round"/>
    <path d="M 49.51331329345703 95.16224670410156 C 43.705589294433594 103.0118637084961 32.74540328979492 177.23477172851562 39.968101501464844 188.50137329101562" stroke-width="4.0" fill="none" stroke="rgb(0, 3, 0)" stroke-opacity="1.0" stroke-linecap="round" stroke-linejoin="round"/>
    <path d="M 4.251533031463623 54.901554107666016 C 20.525043487548828 5.191587448120117 -0.22759418189525604 54.80937957763672 16.589229583740234 -0.8547354340553284" stroke-width="2.2069389820098877" fill="none" stroke="rgb(186, 135, 87)" stroke-opacity="0.069598265" stroke-linecap="round" stroke-linejoin="round"/>
    <path d="M 118.9516830444336 34.29413604736328 C 136.4798126220703 22.520835876464844 130.09930419921875 16.195419311523438 100.38693237304688 48.35695266723633" stroke-width="2.1206753253936768" fill="none" stroke="rgb(0, 16, 0)" stroke-opacity="1.0" stroke-linecap="round" stroke-linejoin="round"/>
    <path d="M 64.99446105957031 97.43055725097656 C 81.03617858886719 164.23260498046875 55.48115158081055 81.95064544677734 114.37513732910156 78.28723907470703" stroke-width="4.0" fill="none" stroke="rgb(164, 0, 217)" stroke-opacity="0.07231173" stroke-linecap="round" stroke-linejoin="round"/>
    <path d="M 194.14486694335938 151.7310028076172 C 260.9342041015625 151.50379943847656 234.52099609375 152.93597412109375 188.14305114746094 126.48743438720703" stroke-width="4.0" fill="none" stroke="rgb(84, 0, 9)" stroke-opacity="0.726896" stroke-linecap="round" stroke-linejoin="round"/>
    <path d="M 13.998330116271973 138.62171936035156 C 0.12563665211200714 106.95637512207031 10.342110633850098 160.61065673828125 23.779003143310547 75.49787902832031" stroke-width="2.0" fill="none" stroke="rgb(234, 255, 235)" stroke-opacity="0.38946703" stroke-linecap="round" stroke-linejoin="round"/>
    <path d="M 145.3616485595703 19.212574005126953 C 107.96063232421875 39.31519317626953 160.4789581298828 35.320701599121094 198.18435668945312 36.250877380371094" stroke-width="4.0" fill="none" stroke="rgb(216, 41, 0)" stroke-opacity="1.0" stroke-linecap="round" stroke-linejoin="round"/>
    <path d="M 16.154218673706055 97.5591049194336 C 22.294095993041992 165.6855010986328 17.902782440185547 110.51727294921875 -3.974207878112793 189.86376953125" stroke-width="2.769228458404541" fill="none" stroke="rgb(13, 0, 4)" stroke-opacity="1.0" stroke-linecap="round" stroke-linejoin="round"/>
    <path d="M 138.9638214111328 108.70822143554688 C 116.02062225341797 160.9850311279297 136.72274780273438 135.23728942871094 112.01615142822266 106.6189193725586" stroke-width="2.7160346508026123" fill="none" stroke="rgb(0, 0, 181)" stroke-opacity="1.0" stroke-linecap="round" stroke-linejoin="round"/>
    <path d="M 176.48846435546875 44.28544998168945 C 159.8224639892578 52.10262680053711 183.43264770507812 52.38075256347656 177.9694061279297 44.2955207824707" stroke-width="3.509782075881958" fill="none" stroke="rgb(0, 0, 0)" stroke-opacity="1.0" stroke-linecap="round" stroke-linejoin="round"/>
    <path d="M 222.2447052001953 118.2394790649414 C 114.2679214477539 125.05095672607422 172.78717041015625 129.12171936035156 241.4735107421875 142.3791961669922" stroke-width="4.0" fill="none" stroke="rgb(223, 85, 0)" stroke-opacity="0.10249781" stroke-linecap="round" stroke-linejoin="round"/>
    <path d="M 189.27938842773438 36.26724624633789 C 184.7471466064453 63.75410842895508 196.667724609375 89.36592864990234 140.16453552246094 92.86148071289062" stroke-width="4.0" fill="none" stroke="rgb(172, 35, 6)" stroke-opacity="0.9423023" stroke-linecap="round" stroke-linejoin="round"/>
    <path d="M 167.0604248046875 97.34117889404297 C 206.41676330566406 65.17376708984375 197.946044921875 47.66151428222656 183.82376098632812 30.91149139404297" stroke-width="4.0" fill="none" stroke="rgb(242, 164, 0)" stroke-opacity="1.0" stroke-linecap="round" stroke-linejoin="round"/>
    <path d="M 186.616943359375 163.02764892578125 C 200.17251586914062 124.93130493164062 217.55714416503906 137.7919921875 224.5459747314453 149.39694213867188" stroke-width="4.0" fill="none" stroke="rgb(66, 6, 37)" stroke-opacity="0.92213374" stroke-linecap="round" stroke-linejoin="round"/>
    <path d="M 213.85853576660156 93.16349792480469 C 221.1540069580078 92.17523956298828 199.6722412109375 96.58981323242188 169.70384216308594 134.38583374023438" stroke-width="4.0" fill="none" stroke="rgb(177, 0, 0)" stroke-opacity="1.0" stroke-linecap="round" stroke-linejoin="round"/>
    <path d="M 45.2345085144043 -16.450096130371094 C 24.478254318237305 33.723636627197266 44.125205993652344 22.8828067779541 22.67635726928711 41.29688262939453" stroke-width="2.0" fill="none" stroke="rgb(255, 242, 211)" stroke-opacity="0.2723952" stroke-linecap="round" stroke-linejoin="round"/>
    <path d="M 154.10655212402344 231.0396728515625 C 160.24319458007812 184.62005615234375 145.87884521484375 197.8670654296875 139.671142578125 158.25697326660156" stroke-width="4.0" fill="none" stroke="rgb(39, 0, 0)" stroke-opacity="1.0" stroke-linecap="round" stroke-linejoin="round"/>
    <path d="M 63.45460891723633 1.570793628692627 C 62.71586608886719 49.25861740112305 56.308448791503906 21.414939880371094 60.412384033203125 52.86635208129883" stroke-width="2.0" fill="none" stroke="rgb(73, 53, 11)" stroke-opacity="0.40619564" stroke-linecap="round" stroke-linejoin="round"/>
    <path d="M 28.577245712280273 138.94593811035156 C 5.763569355010986 100.01996612548828 2.1283962726593018 109.87904357910156 40.306922912597656 108.5409164428711" stroke-width="2.0" fill="none" stroke="rgb(172, 77, 128)" stroke-opacity="0.30556285" stroke-linecap="round" stroke-linejoin="round"/>
    <path d="M 180.87135314941406 118.64090728759766 C 183.00054931640625 90.85096740722656 161.7179412841797 98.31305694580078 177.58876037597656 121.61563873291016" stroke-width="4.0" fill="none" stroke="rgb(255, 124, 0)" stroke-opacity="1.0" stroke-linecap="round" stroke-linejoin="round"/>
    <path d="M 131.25949096679688 42.4856071472168 C 164.11744689941406 32.6492919921875 155.17945861816406 57.33420181274414 155.06324768066406 61.358619689941406" stroke-width="4.0" fill="none" stroke="rgb(0, 0, 255)" stroke-opacity="1.0" stroke-linecap="round" stroke-linejoin="round"/>
    <path d="M 68.47173309326172 59.04485321044922 C 90.80127716064453 14.08764934539795 73.04275512695312 19.030006408691406 90.5030746459961 -4.0085835456848145" stroke-width="2.3708958625793457" fill="none" stroke="rgb(161, 112, 70)" stroke-opacity="0.14122158" stroke-linecap="round" stroke-linejoin="round"/>
    <path d="M 24.25875473022461 104.30624389648438 C 75.41373443603516 108.33111572265625 28.932363510131836 80.445068359375 96.6019515991211 84.19576263427734" stroke-width="4.0" fill="none" stroke="rgb(235, 147, 0)" stroke-opacity="0.20734411" stroke-linecap="round" stroke-linejoin="round"/>
    <path d="M 105.9948501586914 169.2518768310547 C 51.03551483154297 138.27964782714844 87.06459045410156 151.75474548339844 59.30012130737305 188.2006378173828" stroke-width="2.368563175201416" fill="none" stroke="rgb(0, 0, 131)" stroke-opacity="1.0" stroke-linecap="round" stroke-linejoin="round"/>
    <path d="M 72.4878158569336 226.59466552734375 C 163.1762237548828 228.48550415039062 111.58641052246094 244.5527801513672 127.41697692871094 174.52987670898438" stroke-width="4.0" fill="none" stroke="rgb(30, 0, 0)" stroke-opacity="1.0" stroke-linecap="round" stroke-linejoin="round"/>
    <path d="M 204.3301239013672 187.87841796875 C 209.25416564941406 191.76744079589844 183.00619506835938 200.6026611328125 204.8272705078125 201.69322204589844" stroke-width="2.0" fill="none" stroke="rgb(255, 141, 0)" stroke-opacity="0.0" stroke-linecap="round" stroke-linejoin="round"/>
    <path d="M 170.142578125 224.05189514160156 C 228.2447967529297 231.10804748535156 225.42393493652344 241.29754638671875 228.81161499023438 237.3488006591797" stroke-width="3.5129570960998535" fill="none" stroke="rgb(127, 0, 198)" stroke-opacity="0.18311201" stroke-linecap="round" stroke-linejoin="round"/>
    <path d="M 39.957759857177734 39.50547790527344 C 74.53694915771484 -0.40912556648254395 80.43451690673828 -17.487472534179688 94.14022827148438 -13.930098533630371" stroke-width="2.0" fill="none" stroke="rgb(45, 0, 0)" stroke-opacity="0.16123196" stroke-linecap="round" stroke-linejoin="round"/>
    <path d="M 197.16656494140625 34.735992431640625 C 193.33499145507812 55.73612594604492 158.03485107421875 89.37682342529297 144.83670043945312 49.74277114868164" stroke-width="4.0" fill="none" stroke="rgb(7, 0, 0)" stroke-opacity="1.0" stroke-linecap="round" stroke-linejoin="round"/>
    <path d="M 142.3671112060547 107.95672607421875 C 123.26326751708984 137.05068969726562 119.39057159423828 128.77560424804688 143.6136474609375 100.05105590820312" stroke-width="2.7148523330688477" fill="none" stroke="rgb(141, 30, 0)" stroke-opacity="1.0" stroke-linecap="round" stroke-linejoin="round"/>
    <path d="M 76.17173767089844 53.75811004638672 C 100.95006561279297 14.686984062194824 137.05093383789062 43.748382568359375 112.28739166259766 1.770774245262146" stroke-width="2.873655319213867" fill="none" stroke="rgb(255, 234, 215)" stroke-opacity="0.28749135" stroke-linecap="round" stroke-linejoin="round"/>
    <path d="M 25.83671760559082 123.31156158447266 C 59.818748474121094 88.38007354736328 33.79096603393555 108.59385681152344 54.030845642089844 91.7799301147461" stroke-width="2.0" fill="none" stroke="rgb(74, 0, 0)" stroke-opacity="0.66218716" stroke-linecap="round" stroke-linejoin="round"/>
    <path d="M 42.816253662109375 189.39456176757812 C 13.445361137390137 211.4799041748047 54.678829193115234 199.9069061279297 -14.007437705993652 201.10665893554688" stroke-width="3.365178108215332" fill="none" stroke="rgb(41, 54, 0)" stroke-opacity="0.996601" stroke-linecap="round" stroke-linejoin="round"/>
    <path d="M 161.75067138671875 46.469566345214844 C 212.70932006835938 11.104024887084961 208.7867431640625 0.19978755712509155 185.638916015625 77.14207458496094" stroke-width="4.0" fill="none" stroke="rgb(232, 92, 0)" stroke-opacity="1.0" stroke-linecap="round" stroke-linejoin="round"/>
    <path d="M 189.71157836914062 31.6734676361084 C 201.33251953125 23.616085052490234 229.47434997558594 49.69810485839844 162.29493713378906 34.46183395385742" stroke-width="4.0" fill="none" stroke="rgb(137, 6, 0)" stroke-opacity="0.9683347" stroke-linecap="round" stroke-linejoin="round"/>
    <path d="M 186.4897003173828 167.83551025390625 C 189.62164306640625 152.97767639160156 164.26246643066406 163.12319946289062 231.89886474609375 160.08029174804688" stroke-width="3.8921029567718506" fill="none" stroke="rgb(81, 45, 99)" stroke-opacity="0.4634317" stroke-linecap="round" stroke-linejoin="round"/>
  </g>
</svg>
