<?xml version="1.0" ?>
<svg xmlns="http://www.w3.org/2000/svg" version="1.1" width="229" height="229">
  <defs/>
  <g>
    <path d="M 51.76163864135742 251.7600860595703 C 38.14772033691406 184.13092041015625 64.05513763427734 205.1759796142578 46.8043212890625 178.7547149658203" stroke-width="3.3349900245666504" fill="none" stroke="rgb(73, 33, 0)" stroke-opacity="1.0" stroke-linecap="round" stroke-linejoin="round"/>
    <path d="M 72.24124145507812 214.0270233154297 C 120.54989624023438 213.20668029785156 71.35064697265625 228.6316680908203 94.74684143066406 185.8252410888672" stroke-width="2.7342593669891357" fill="none" stroke="rgb(77, 28, 0)" stroke-opacity="0.5031452" stroke-linecap="round" stroke-linejoin="round"/>
    <path d="M 162.2520294189453 49.475345611572266 C 217.60963439941406 11.453034400939941 220.51014709472656 23.007312774658203 154.17999267578125 64.41088104248047" stroke-width="4.0" fill="none" stroke="rgb(227, 112, 0)" stroke-opacity="0.56308186" stroke-linecap="round" stroke-linejoin="round"/>
    <path d="M 124.88017272949219 -26.052507400512695 C 109.64929962158203 47.79895782470703 125.37247467041016 -16.090389251708984 100.90475463867188 32.364837646484375" stroke-width="3.666992425918579" fill="none" stroke="rgb(255, 233, 216)" stroke-opacity="0.3832281" stroke-linecap="round" stroke-linejoin="round"/>
    <path d="M 50.025272369384766 95.6695327758789 C 44.2024040222168 104.42807006835938 31.655702590942383 174.8649444580078 41.85316467285156 193.39089965820312" stroke-width="4.0" fill="none" stroke="rgb(0, 0, 0)" stroke-opacity="1.0" stroke-linecap="round" stroke-linejoin="round"/>
    <path d="M 4.7280049324035645 62.462284088134766 C 6.756311416625977 26.746212005615234 16.41658592224121 51.50808334350586 4.913213729858398 -12.297745704650879" stroke-width="2.0" fill="none" stroke="rgb(193, 149, 126)" stroke-opacity="0.19235374" stroke-linecap="round" stroke-linejoin="round"/>
    <path d="M 96.62598419189453 64.60734558105469 C 76.36468505859375 45.0097770690918 98.8262939453125 45.47422409057617 86.6232681274414 62.33067321777344" stroke-width="2.0" fill="none" stroke="rgb(218, 138, 0)" stroke-opacity="0.9837304" stroke-linecap="round" stroke-linejoin="round"/>
    <path d="M 65.63236999511719 97.56991577148438 C 79.10169219970703 170.92013549804688 53.512535095214844 80.95098876953125 123.17970275878906 67.34312438964844" stroke-width="4.0" fill="none" stroke="rgb(201, 0, 187)" stroke-opacity="0.06635085" stroke-linecap="round" stroke-linejoin="round"/>
    <path d="M 190.31919860839844 151.5498809814453 C 277.8263244628906 152.42774963378906 203.62416076660156 148.26849365234375 191.4467010498047 125.11895751953125" stroke-width="4.0" fill="none" stroke="rgb(90, 34, 52)" stroke-opacity="0.42897832" stroke-linecap="round" stroke-linejoin="round"/>
    <path d="M 9.080329895019531 158.28245544433594 C 5.017276763916016 109.4961166381836 19.895355224609375 167.15625 5.906225204467773 60.5726318359375" stroke-width="2.168653964996338" fill="none" stroke="rgb(255, 255, 254)" stroke-opacity="0.10418377" stroke-linecap="round" stroke-linejoin="round"/>
    <path d="M 174.50648498535156 55.395137786865234 C 106.21613311767578 58.4293212890625 157.90794372558594 32.178504943847656 202.25267028808594 30.885805130004883" stroke-width="4.0" fill="none" stroke="rgb(182, 73, 0)" stroke-opacity="0.67641383" stroke-linecap="round" stroke-linejoin="round"/>
    <path d="M 15.765542984008789 96.55826568603516 C 21.03181266784668 153.63272094726562 16.477249145507812 110.31495666503906 -2.8548974990844727 194.90213012695312" stroke-width="2.7320313453674316" fill="none" stroke="rgb(0, 0, 0)" stroke-opacity="1.0" stroke-linecap="round" stroke-linejoin="round"/>
    <path d="M 138.15350341796875 83.0330810546875 C 119.53668975830078 133.53823852539062 141.61669921875 114.9120101928711 109.44902801513672 102.9337387084961" stroke-width="2.051002264022827" fill="none" stroke="rgb(28, 0, 255)" stroke-opacity="1.0" stroke-linecap="round" stroke-linejoin="round"/>
    <path d="M 183.52854919433594 46.140380859375 C 155.54537963867188 44.33262634277344 180.35458374023438 60.58250427246094 179.93450927734375 44.868125915527344" stroke-width="2.045912981033325" fill="none" stroke="rgb(0, 0, 25)" stroke-opacity="1.0" stroke-linecap="round" stroke-linejoin="round"/>
    <path d="M 225.5374755859375 116.13748931884766 C 84.31678771972656 135.61886596679688 179.7392120361328 121.19691467285156 228.4668731689453 142.5557403564453" stroke-width="4.0" fill="none" stroke="rgb(222, 86, 78)" stroke-opacity="0.1912095" stroke-linecap="round" stroke-linejoin="round"/>
    <path d="M 191.3104705810547 23.995492935180664 C 187.05740356445312 54.202816009521484 190.4886932373047 93.7765121459961 142.9798126220703 94.25027465820312" stroke-width="4.0" fill="none" stroke="rgb(111, 56, 0)" stroke-opacity="0.78313875" stroke-linecap="round" stroke-linejoin="round"/>
    <path d="M 155.9429473876953 101.6857681274414 C 212.46694946289062 65.84544372558594 195.30018615722656 37.72723388671875 179.28997802734375 33.887001037597656" stroke-width="4.0" fill="none" stroke="rgb(105, 45, 0)" stroke-opacity="1.0" stroke-linecap="round" stroke-linejoin="round"/>
    <path d="M 188.20504760742188 166.67164611816406 C 202.80764770507812 121.11779022216797 226.03562927246094 143.9802703857422 222.20997619628906 149.8916015625" stroke-width="4.0" fill="none" stroke="rgb(145, 126, 139)" stroke-opacity="0.8088691" stroke-linecap="round" stroke-linejoin="round"/>
    <path d="M 201.98394775390625 117.74042510986328 C 238.60641479492188 70.2402114868164 221.0355682373047 87.83445739746094 156.4220428466797 140.62057495117188" stroke-width="4.0" fill="none" stroke="rgb(124, 0, 75)" stroke-opacity="1.0" stroke-linecap="round" stroke-linejoin="round"/>
    <path d="M 39.650394439697266 -29.91751480102539 C 13.503707885742188 14.375298500061035 29.271446228027344 -52.009281158447266 2.2614293098449707 8.291017532348633" stroke-width="2.3790581226348877" fill="none" stroke="rgb(188, 135, 47)" stroke-opacity="0.1291265" stroke-linecap="round" stroke-linejoin="round"/>
    <path d="M 153.6220703125 233.18931579589844 C 160.33958435058594 175.1209259033203 145.97885131835938 206.39002990722656 131.11167907714844 151.0496368408203" stroke-width="4.0" fill="none" stroke="rgb(41, 0, 0)" stroke-opacity="1.0" stroke-linecap="round" stroke-linejoin="round"/>
    <path d="M 55.644248962402344 2.405177354812622 C 62.95478057861328 45.9360466003418 56.9866828918457 -29.848974227905273 59.847869873046875 57.050785064697266" stroke-width="2.0" fill="none" stroke="rgb(74, 20, 13)" stroke-opacity="0.19567609" stroke-linecap="round" stroke-linejoin="round"/>
    <path d="M 28.045822143554688 134.96690368652344 C -9.347201347351074 87.04901123046875 5.396760940551758 119.10103607177734 45.467891693115234 104.92655181884766" stroke-width="2.2639400959014893" fill="none" stroke="rgb(219, 2, 192)" stroke-opacity="0.19049208" stroke-linecap="round" stroke-linejoin="round"/>
    <path d="M 177.33880615234375 134.07907104492188 C 218.7477264404297 60.16945266723633 150.28573608398438 76.822998046875 179.73553466796875 117.7352294921875" stroke-width="4.0" fill="none" stroke="rgb(215, 121, 0)" stroke-opacity="1.0" stroke-linecap="round" stroke-linejoin="round"/>
    <path d="M 126.47029876708984 42.8592414855957 C 177.28350830078125 29.116432189941406 151.7389373779297 66.02470397949219 141.73623657226562 41.65165710449219" stroke-width="4.0" fill="none" stroke="rgb(0, 3, 0)" stroke-opacity="1.0" stroke-linecap="round" stroke-linejoin="round"/>
    <path d="M 62.8380012512207 67.88143920898438 C 99.00592803955078 -5.67201566696167 69.53184509277344 49.8411865234375 85.8540267944336 3.1843597888946533" stroke-width="2.034921884536743" fill="none" stroke="rgb(136, 59, 0)" stroke-opacity="0.18811336" stroke-linecap="round" stroke-linejoin="round"/>
    <path d="M 27.722585678100586 104.27416229248047 C 69.27947235107422 101.40294647216797 33.995697021484375 82.6900863647461 94.54476165771484 84.2705307006836" stroke-width="4.0" fill="none" stroke="rgb(246, 148, 0)" stroke-opacity="0.32078502" stroke-linecap="round" stroke-linejoin="round"/>
    <path d="M 100.74529266357422 169.62481689453125 C 51.07859802246094 132.03050231933594 75.87091827392578 162.97799682617188 58.69949722290039 203.1466064453125" stroke-width="4.0" fill="none" stroke="rgb(0, 0, 103)" stroke-opacity="1.0" stroke-linecap="round" stroke-linejoin="round"/>
    <path d="M 72.62374877929688 226.00660705566406 C 159.08587646484375 231.0538330078125 112.4122085571289 240.45742797851562 123.75613403320312 153.0263671875" stroke-width="4.0" fill="none" stroke="rgb(20, 0, 0)" stroke-opacity="1.0" stroke-linecap="round" stroke-linejoin="round"/>
    <path d="M 204.3301239013672 187.87841796875 C 209.25416564941406 191.76744079589844 183.00619506835938 200.6026611328125 204.8272705078125 201.69322204589844" stroke-width="2.0" fill="none" stroke="rgb(255, 141, 0)" stroke-opacity="0.0" stroke-linecap="round" stroke-linejoin="round"/>
    <path d="M 170.3092041015625 223.54058837890625 C 233.81480407714844 232.56878662109375 229.27317810058594 237.76063537597656 229.0349884033203 237.0090789794922" stroke-width="3.4341654777526855" fill="none" stroke="rgb(120, 0, 189)" stroke-opacity="0.13361914" stroke-linecap="round" stroke-linejoin="round"/>
    <path d="M 7.137691020965576 31.240758895874023 C 32.51661682128906 -49.35348129272461 61.53290939331055 -44.0320930480957 80.1583023071289 -35.58029556274414" stroke-width="4.0" fill="none" stroke="rgb(226, 203, 159)" stroke-opacity="0.11751019" stroke-linecap="round" stroke-linejoin="round"/>
    <path d="M 206.8009033203125 30.911069869995117 C 178.8710174560547 58.804195404052734 162.54312133789062 91.35437774658203 132.5218505859375 40.620845794677734" stroke-width="4.0" fill="none" stroke="rgb(8, 0, 12)" stroke-opacity="1.0" stroke-linecap="round" stroke-linejoin="round"/>
    <path d="M 152.817138671875 82.95987701416016 C 126.71314239501953 113.16600036621094 123.23922729492188 126.64191436767578 130.08543395996094 86.47808074951172" stroke-width="4.0" fill="none" stroke="rgb(0, 0, 0)" stroke-opacity="1.0" stroke-linecap="round" stroke-linejoin="round"/>
    <path d="M 56.4764404296875 61.083335876464844 C 120.39790344238281 20.791086196899414 85.53005981445312 13.614073753356934 109.23849487304688 3.106718063354492" stroke-width="2.432507276535034" fill="none" stroke="rgb(228, 217, 191)" stroke-opacity="0.4566885" stroke-linecap="round" stroke-linejoin="round"/>
    <path d="M 9.038213729858398 143.13587951660156 C 61.1984977722168 88.8996353149414 35.07548141479492 110.22126770019531 53.168296813964844 92.14335632324219" stroke-width="2.0" fill="none" stroke="rgb(88, 0, 0)" stroke-opacity="0.5778612" stroke-linecap="round" stroke-linejoin="round"/>
    <path d="M 43.38023376464844 182.10707092285156 C 27.879316329956055 219.97210693359375 45.16764831542969 194.3191375732422 3.0451433658599854 215.14817810058594" stroke-width="4.0" fill="none" stroke="rgb(54, 6, 9)" stroke-opacity="1.0" stroke-linecap="round" stroke-linejoin="round"/>
    <path d="M 151.2244110107422 68.07012176513672 C 195.0807342529297 7.0849480628967285 205.04994201660156 12.438267707824707 181.62867736816406 92.3259506225586" stroke-width="4.0" fill="none" stroke="rgb(152, 75, 11)" stroke-opacity="0.71801376" stroke-linecap="round" stroke-linejoin="round"/>
    <path d="M 185.03659057617188 38.657405853271484 C 212.8305206298828 -0.7060934901237488 230.0237274169922 47.21118927001953 141.32240295410156 35.31964111328125" stroke-width="3.677232027053833" fill="none" stroke="rgb(36, 0, 0)" stroke-opacity="0.58625686" stroke-linecap="round" stroke-linejoin="round"/>
    <path d="M 180.2561492919922 170.48016357421875 C 190.8795623779297 170.03598022460938 170.11192321777344 157.65907287597656 238.064208984375 161.30096435546875" stroke-width="3.8911826610565186" fill="none" stroke="rgb(82, 43, 66)" stroke-opacity="0.21356031" stroke-linecap="round" stroke-linejoin="round"/>
  </g>
</svg>
