<?xml version="1.0" ?>
<svg xmlns="http://www.w3.org/2000/svg" version="1.1" width="229" height="229">
  <defs/>
  <g>
    <path d="M 121.95598602294922 78.29611206054688 C 103.0647964477539 128.88279724121094 86.94532012939453 153.62286376953125 110.13107299804688 86.3300552368164" stroke-width="4.0" fill="none" stroke="rgb(157, 87, 63)" stroke-opacity="1.0" stroke-linecap="round" stroke-linejoin="round"/>
    <path d="M 141.03347778320312 180.1271514892578 C 82.307373046875 212.4633331298828 98.09740447998047 189.34364318847656 165.388671875 161.38970947265625" stroke-width="4.0" fill="none" stroke="rgb(172, 109, 84)" stroke-opacity="1.0" stroke-linecap="round" stroke-linejoin="round"/>
    <path d="M 98.66264343261719 194.70664978027344 C 120.54719543457031 174.8686981201172 118.35657501220703 183.70016479492188 160.86354064941406 154.15493774414062" stroke-width="4.0" fill="none" stroke="rgb(173, 108, 82)" stroke-opacity="1.0" stroke-linecap="round" stroke-linejoin="round"/>
    <path d="M 141.21917724609375 173.4824676513672 C 170.1180419921875 188.27911376953125 178.24636840820312 182.3359375 172.793701171875 130.596435546875" stroke-width="4.0" fill="none" stroke="rgb(183, 124, 94)" stroke-opacity="1.0" stroke-linecap="round" stroke-linejoin="round"/>
    <path d="M 9.616964340209961 91.28518676757812 C 76.782958984375 106.01100158691406 68.43775177001953 85.90247344970703 10.362604141235352 82.60716247558594" stroke-width="4.0" fill="none" stroke="rgb(174, 110, 81)" stroke-opacity="1.0" stroke-linecap="round" stroke-linejoin="round"/>
    <path d="M 42.210289001464844 176.20635986328125 C 81.01026153564453 169.12586975097656 59.669647216796875 132.84103393554688 112.55322265625 136.65380859375" stroke-width="4.0" fill="none" stroke="rgb(162, 94, 67)" stroke-opacity="1.0" stroke-linecap="round" stroke-linejoin="round"/>
    <path d="M 41.940372467041016 210.30133056640625 C 70.7223892211914 219.7694549560547 69.42674255371094 227.9178924560547 47.75112533569336 217.71884155273438" stroke-width="4.0" fill="none" stroke="rgb(183, 181, 139)" stroke-opacity="0.017380828" stroke-linecap="round" stroke-linejoin="round"/>
    <path d="M 116.64374542236328 102.39427947998047 C 60.30147933959961 145.58677673339844 41.61731719970703 179.5715789794922 94.09563446044922 137.8649139404297" stroke-width="4.0" fill="none" stroke="rgb(166, 102, 77)" stroke-opacity="1.0" stroke-linecap="round" stroke-linejoin="round"/>
    <path d="M 10.836038589477539 214.427001953125 C 12.76956558227539 220.82704162597656 15.643671989440918 219.82876586914062 14.358481407165527 226.75904846191406" stroke-width="2.1958980560302734" fill="none" stroke="rgb(205, 204, 211)" stroke-opacity="0.015484479" stroke-linecap="round" stroke-linejoin="round"/>
    <path d="M 206.28077697753906 125.19071960449219 C 189.267822265625 126.64445495605469 198.9709930419922 185.26373291015625 204.40895080566406 128.4388427734375" stroke-width="2.6325957775115967" fill="none" stroke="rgb(160, 75, 33)" stroke-opacity="0.35848486" stroke-linecap="round" stroke-linejoin="round"/>
    <path d="M 60.822120666503906 207.69358825683594 C 91.3886489868164 207.43829345703125 95.21682739257812 183.04583740234375 43.50699234008789 188.50003051757812" stroke-width="4.0" fill="none" stroke="rgb(174, 115, 93)" stroke-opacity="1.0" stroke-linecap="round" stroke-linejoin="round"/>
    <path d="M 19.341388702392578 102.59616088867188 C 64.41029357910156 100.86521911621094 69.88663482666016 112.16610717773438 64.68305206298828 153.5301055908203" stroke-width="4.0" fill="none" stroke="rgb(171, 108, 81)" stroke-opacity="1.0" stroke-linecap="round" stroke-linejoin="round"/>
    <path d="M 26.272151947021484 -8.939629554748535 C 27.753284454345703 -8.902514457702637 24.24332618713379 -12.022357940673828 15.847883224487305 -2.8279836177825928" stroke-width="2.0" fill="none" stroke="rgb(255, 232, 125)" stroke-opacity="0.06623011" stroke-linecap="round" stroke-linejoin="round"/>
    <path d="M 123.76897430419922 141.33506774902344 C 119.23218536376953 111.52913665771484 130.85476684570312 112.76879119873047 157.1807098388672 101.28724670410156" stroke-width="4.0" fill="none" stroke="rgb(143, 79, 53)" stroke-opacity="1.0" stroke-linecap="round" stroke-linejoin="round"/>
    <path d="M 84.61610412597656 73.11982727050781 C 136.89340209960938 70.09500122070312 115.14636993408203 61.74269485473633 126.89183044433594 107.87052154541016" stroke-width="4.0" fill="none" stroke="rgb(137, 93, 68)" stroke-opacity="1.0" stroke-linecap="round" stroke-linejoin="round"/>
    <path d="M 58.463497161865234 214.43914794921875 C 64.66989135742188 219.7216796875 72.51325225830078 219.67156982421875 77.18719482421875 226.4178009033203" stroke-width="2.193782091140747" fill="none" stroke="rgb(230, 228, 214)" stroke-opacity="0.046397995" stroke-linecap="round" stroke-linejoin="round"/>
    <path d="M 148.61260986328125 19.95563507080078 C 121.61688995361328 55.39957809448242 129.13455200195312 45.6848030090332 58.01802062988281 42.163597106933594" stroke-width="4.0" fill="none" stroke="rgb(210, 160, 106)" stroke-opacity="0.99446493" stroke-linecap="round" stroke-linejoin="round"/>
    <path d="M 17.47276496887207 20.548107147216797 C 18.928680419921875 15.110502243041992 13.889444351196289 20.393007278442383 13.28413200378418 14.245342254638672" stroke-width="2.0014095306396484" fill="none" stroke="rgb(251, 246, 232)" stroke-opacity="0.018689523" stroke-linecap="round" stroke-linejoin="round"/>
    <path d="M 128.8599853515625 89.86253356933594 C 128.7761688232422 15.295692443847656 128.73651123046875 16.295881271362305 147.1026611328125 70.03284454345703" stroke-width="4.0" fill="none" stroke="rgb(170, 104, 69)" stroke-opacity="1.0" stroke-linecap="round" stroke-linejoin="round"/>
    <path d="M 118.87908172607422 210.28419494628906 C 140.63912963867188 164.63546752929688 171.605224609375 176.45994567871094 108.69791412353516 199.4546356201172" stroke-width="4.0" fill="none" stroke="rgb(170, 107, 83)" stroke-opacity="0.9783233" stroke-linecap="round" stroke-linejoin="round"/>
    <path d="M 145.69839477539062 133.49610900878906 C 98.17024230957031 176.3594970703125 88.20271301269531 202.42190551757812 123.9472427368164 160.43167114257812" stroke-width="4.0" fill="none" stroke="rgb(171, 108, 84)" stroke-opacity="1.0" stroke-linecap="round" stroke-linejoin="round"/>
    <path d="M 237.680419921875 169.4153594970703 C 234.97869873046875 168.97802734375 238.94784545898438 166.20291137695312 235.27000427246094 166.41110229492188" stroke-width="2.0" fill="none" stroke="rgb(255, 175, 255)" stroke-opacity="0.3414608" stroke-linecap="round" stroke-linejoin="round"/>
    <path d="M 74.79148864746094 82.87835693359375 C 139.25946044921875 88.4335708618164 124.82161712646484 80.86564636230469 77.45481872558594 108.13169860839844" stroke-width="4.0" fill="none" stroke="rgb(181, 115, 75)" stroke-opacity="1.0" stroke-linecap="round" stroke-linejoin="round"/>
    <path d="M 189.31982421875 97.06127166748047 C 166.6127166748047 143.27305603027344 180.62413024902344 174.29405212402344 161.03887939453125 105.89750671386719" stroke-width="4.0" fill="none" stroke="rgb(162, 93, 69)" stroke-opacity="1.0" stroke-linecap="round" stroke-linejoin="round"/>
    <path d="M 51.080528259277344 75.51305389404297 C 58.71544647216797 21.18184471130371 39.60844039916992 40.071502685546875 128.98858642578125 42.535369873046875" stroke-width="4.0" fill="none" stroke="rgb(192, 139, 95)" stroke-opacity="1.0" stroke-linecap="round" stroke-linejoin="round"/>
    <path d="M 219.64483642578125 141.24398803710938 C 207.6790771484375 142.35897827148438 216.8206787109375 148.82579040527344 217.68333435058594 146.16949462890625" stroke-width="2.0394914150238037" fill="none" stroke="rgb(249, 251, 253)" stroke-opacity="0.018717285" stroke-linecap="round" stroke-linejoin="round"/>
    <path d="M 41.8343505859375 164.4160614013672 C 53.024497985839844 139.1557159423828 21.20066261291504 132.7509765625 62.65163803100586 121.98228454589844" stroke-width="4.0" fill="none" stroke="rgb(180, 134, 111)" stroke-opacity="1.0" stroke-linecap="round" stroke-linejoin="round"/>
    <path d="M 170.69920349121094 127.50565338134766 C 223.26637268066406 96.72454071044922 225.58370971679688 102.54863739013672 182.0782012939453 91.91790771484375" stroke-width="4.0" fill="none" stroke="rgb(159, 87, 58)" stroke-opacity="0.93748003" stroke-linecap="round" stroke-linejoin="round"/>
    <path d="M 222.46324157714844 105.87480163574219 C 197.8278045654297 118.6387710571289 191.09425354003906 138.13560485839844 221.72549438476562 109.1598129272461" stroke-width="4.0" fill="none" stroke="rgb(175, 113, 93)" stroke-opacity="0.9165042" stroke-linecap="round" stroke-linejoin="round"/>
    <path d="M 199.6558837890625 116.57232666015625 C 147.947265625 140.55809020996094 183.34722900390625 136.75828552246094 178.8632049560547 90.54550170898438" stroke-width="4.0" fill="none" stroke="rgb(147, 79, 55)" stroke-opacity="1.0" stroke-linecap="round" stroke-linejoin="round"/>
    <path d="M 127.7994613647461 145.71102905273438 C 63.826175689697266 190.40509033203125 99.488037109375 161.5644073486328 133.9600830078125 123.9188461303711" stroke-width="4.0" fill="none" stroke="rgb(164, 97, 70)" stroke-opacity="0.96336895" stroke-linecap="round" stroke-linejoin="round"/>
    <path d="M 91.31941223144531 5.3979973793029785 C 96.4566879272461 5.6146135330200195 91.90353393554688 3.473853588104248 88.6657943725586 -2.9348466396331787" stroke-width="2.2673959732055664" fill="none" stroke="rgb(183, 194, 172)" stroke-opacity="0.012674146" stroke-linecap="round" stroke-linejoin="round"/>
    <path d="M 233.28285217285156 134.25735473632812 C 233.41375732421875 136.7606201171875 235.28268432617188 134.09426879882812 237.90194702148438 125.3960189819336" stroke-width="2.0" fill="none" stroke="rgb(249, 255, 255)" stroke-opacity="0.0" stroke-linecap="round" stroke-linejoin="round"/>
    <path d="M 171.17254638671875 43.030418395996094 C 194.9072723388672 115.48734283447266 185.6661834716797 116.98043823242188 166.23277282714844 35.28750991821289" stroke-width="4.0" fill="none" stroke="rgb(162, 105, 65)" stroke-opacity="0.8753036" stroke-linecap="round" stroke-linejoin="round"/>
    <path d="M 137.94754028320312 193.11993408203125 C 212.81382751464844 181.22219848632812 213.5252685546875 170.7877655029297 138.8342742919922 190.06204223632812" stroke-width="4.0" fill="none" stroke="rgb(170, 116, 91)" stroke-opacity="1.0" stroke-linecap="round" stroke-linejoin="round"/>
    <path d="M 9.563177108764648 208.69200134277344 C 9.58880615234375 212.6324462890625 15.97108268737793 213.0960693359375 10.44742488861084 211.4613800048828" stroke-width="2.0030152797698975" fill="none" stroke="rgb(253, 252, 253)" stroke-opacity="0.01707406" stroke-linecap="round" stroke-linejoin="round"/>
    <path d="M 187.38818359375 21.325172424316406 C 192.7579345703125 23.652990341186523 191.45480346679688 26.669950485229492 191.5894012451172 23.351856231689453" stroke-width="2.0142669677734375" fill="none" stroke="rgb(229, 237, 249)" stroke-opacity="0.019298397" stroke-linecap="round" stroke-linejoin="round"/>
    <path d="M 221.86817932128906 100.87972259521484 C 211.38351440429688 77.14981842041016 172.17784118652344 77.73096466064453 218.8888397216797 94.52671813964844" stroke-width="4.0" fill="none" stroke="rgb(174, 108, 82)" stroke-opacity="1.0" stroke-linecap="round" stroke-linejoin="round"/>
    <path d="M 44.51954650878906 105.5078353881836 C -3.344452142715454 84.19680786132812 -7.340654373168945 102.27330780029297 28.91872215270996 124.63778686523438" stroke-width="4.0" fill="none" stroke="rgb(172, 110, 89)" stroke-opacity="0.9332938" stroke-linecap="round" stroke-linejoin="round"/>
    <path d="M 12.652737617492676 79.58314514160156 C 84.70087432861328 76.56861114501953 77.92146301269531 75.7700424194336 6.694833278656006 87.59098052978516" stroke-width="4.0" fill="none" stroke="rgb(183, 125, 95)" stroke-opacity="0.98790514" stroke-linecap="round" stroke-linejoin="round"/>
    <path d="M 18.67437171936035 33.67948913574219 C 28.732484817504883 24.69191551208496 24.410242080688477 30.428672790527344 15.85694408416748 31.72072982788086" stroke-width="2.0050578117370605" fill="none" stroke="rgb(243, 230, 244)" stroke-opacity="0.020699143" stroke-linecap="round" stroke-linejoin="round"/>
    <path d="M 124.18346405029297 211.84091186523438 C 94.3970947265625 218.5843048095703 129.7172393798828 202.60752868652344 169.44784545898438 158.20391845703125" stroke-width="4.0" fill="none" stroke="rgb(166, 104, 82)" stroke-opacity="0.96718544" stroke-linecap="round" stroke-linejoin="round"/>
    <path d="M 35.089900970458984 167.9609375 C 42.224647521972656 98.50408935546875 -6.135100841522217 90.34249877929688 33.67439651489258 140.08042907714844" stroke-width="4.0" fill="none" stroke="rgb(185, 123, 95)" stroke-opacity="0.94516796" stroke-linecap="round" stroke-linejoin="round"/>
    <path d="M 200.38070678710938 123.70626068115234 C 211.6457061767578 109.90137481689453 193.08790588378906 118.24386596679688 222.8330841064453 102.26416778564453" stroke-width="4.0" fill="none" stroke="rgb(165, 101, 81)" stroke-opacity="0.98441005" stroke-linecap="round" stroke-linejoin="round"/>
    <path d="M 17.353700637817383 8.156637191772461 C 20.07560157775879 17.234338760375977 20.564287185668945 16.665300369262695 17.453195571899414 16.37915802001953" stroke-width="2.0019288063049316" fill="none" stroke="rgb(247, 195, 249)" stroke-opacity="0.014930805" stroke-linecap="round" stroke-linejoin="round"/>
    <path d="M 110.56338500976562 79.31655883789062 C 125.79193878173828 44.53807067871094 154.88565063476562 64.80154418945312 71.30032348632812 64.6036148071289" stroke-width="4.0" fill="none" stroke="rgb(107, 69, 53)" stroke-opacity="0.99592793" stroke-linecap="round" stroke-linejoin="round"/>
    <path d="M 69.21345520019531 210.8523712158203 C 71.2612533569336 176.4832763671875 85.4788818359375 153.4521484375 48.68727111816406 166.19747924804688" stroke-width="4.0" fill="none" stroke="rgb(180, 117, 88)" stroke-opacity="0.96647733" stroke-linecap="round" stroke-linejoin="round"/>
    <path d="M 31.30672264099121 105.27137756347656 C 51.88821029663086 184.5345916748047 30.183237075805664 198.6867218017578 30.342018127441406 122.77442932128906" stroke-width="4.0" fill="none" stroke="rgb(187, 130, 101)" stroke-opacity="1.0" stroke-linecap="round" stroke-linejoin="round"/>
    <path d="M 70.0524673461914 142.53990173339844 C 62.99941635131836 70.6858139038086 70.67876434326172 79.51046752929688 73.54425811767578 142.106689453125" stroke-width="4.0" fill="none" stroke="rgb(152, 90, 65)" stroke-opacity="1.0" stroke-linecap="round" stroke-linejoin="round"/>
    <path d="M 194.81448364257812 217.6169891357422 C 203.14186096191406 213.71363830566406 203.38064575195312 219.1405487060547 211.55897521972656 228.37960815429688" stroke-width="4.0" fill="none" stroke="rgb(179, 179, 179)" stroke-opacity="0.013276349" stroke-linecap="round" stroke-linejoin="round"/>
    <path d="M 126.81764221191406 141.23313903808594 C 60.55482482910156 131.85781860351562 75.30409240722656 104.49343872070312 84.14009857177734 171.6663818359375" stroke-width="4.0" fill="none" stroke="rgb(133, 72, 54)" stroke-opacity="1.0" stroke-linecap="round" stroke-linejoin="round"/>
    <path d="M 81.85883331298828 149.6790313720703 C 139.73733520507812 116.79088592529297 152.17666625976562 158.8614501953125 91.16097259521484 138.63540649414062" stroke-width="4.0" fill="none" stroke="rgb(143, 78, 58)" stroke-opacity="0.97231436" stroke-linecap="round" stroke-linejoin="round"/>
    <path d="M 212.0708770751953 222.37693786621094 C 229.33612060546875 225.8046875 230.88003540039062 228.4757843017578 231.67149353027344 227.22891235351562" stroke-width="4.0" fill="none" stroke="rgb(195, 195, 195)" stroke-opacity="0.013509425" stroke-linecap="round" stroke-linejoin="round"/>
    <path d="M 122.3018569946289 197.31805419921875 C 153.52212524414062 195.00967407226562 165.24066162109375 193.4326171875 186.62118530273438 187.32159423828125" stroke-width="4.0" fill="none" stroke="rgb(165, 108, 87)" stroke-opacity="1.0" stroke-linecap="round" stroke-linejoin="round"/>
    <path d="M 169.37828063964844 30.867069244384766 C 169.6656494140625 26.22654151916504 171.02157592773438 29.516489028930664 173.57225036621094 33.256351470947266" stroke-width="2.002584218978882" fill="none" stroke="rgb(253, 254, 252)" stroke-opacity="0.018362844" stroke-linecap="round" stroke-linejoin="round"/>
    <path d="M 120.98178100585938 174.3655548095703 C 160.70518493652344 155.03506469726562 134.0654296875 136.5406494140625 170.57254028320312 157.263916015625" stroke-width="4.0" fill="none" stroke="rgb(176, 112, 84)" stroke-opacity="1.0" stroke-linecap="round" stroke-linejoin="round"/>
    <path d="M 150.6952362060547 72.75914764404297 C 179.04180908203125 81.03483581542969 183.48959350585938 79.38665008544922 210.1141815185547 96.91583251953125" stroke-width="4.0" fill="none" stroke="rgb(186, 120, 63)" stroke-opacity="0.73108655" stroke-linecap="round" stroke-linejoin="round"/>
    <path d="M 95.53648376464844 191.52938842773438 C 133.065185546875 163.82366943359375 136.07925415039062 165.75303649902344 159.3822021484375 122.8384780883789" stroke-width="4.0" fill="none" stroke="rgb(173, 109, 82)" stroke-opacity="1.0" stroke-linecap="round" stroke-linejoin="round"/>
    <path d="M 150.8038787841797 82.44774627685547 C 152.55557250976562 105.30074310302734 154.64561462402344 94.71155548095703 120.5456771850586 103.12519836425781" stroke-width="4.0" fill="none" stroke="rgb(173, 99, 60)" stroke-opacity="0.9513018" stroke-linecap="round" stroke-linejoin="round"/>
    <path d="M 210.1169891357422 39.85488510131836 C 204.46836853027344 44.62425231933594 199.2864532470703 36.17472457885742 199.09007263183594 30.26470184326172" stroke-width="3.4328999519348145" fill="none" stroke="rgb(197, 200, 198)" stroke-opacity="0.015805155" stroke-linecap="round" stroke-linejoin="round"/>
    <path d="M 54.854400634765625 161.73561096191406 C 65.99454498291016 102.87764739990234 49.00625991821289 90.34232330322266 56.7155647277832 151.22251892089844" stroke-width="4.0" fill="none" stroke="rgb(113, 33, 0)" stroke-opacity="0.6107853" stroke-linecap="round" stroke-linejoin="round"/>
    <path d="M 137.22640991210938 51.47129821777344 C 112.10807800292969 61.898136138916016 92.36106872558594 61.336097717285156 49.47447967529297 41.55363082885742" stroke-width="4.0" fill="none" stroke="rgb(155, 96, 67)" stroke-opacity="1.0" stroke-linecap="round" stroke-linejoin="round"/>
    <path d="M 40.69536209106445 92.60509490966797 C 54.81122970581055 143.8223876953125 45.99814224243164 138.20675659179688 21.862112045288086 69.34880065917969" stroke-width="4.0" fill="none" stroke="rgb(172, 107, 72)" stroke-opacity="0.977279" stroke-linecap="round" stroke-linejoin="round"/>
    <path d="M 149.00857543945312 128.81689453125 C 187.88226318359375 90.58439636230469 169.8653106689453 95.26346588134766 140.1048126220703 134.76412963867188" stroke-width="4.0" fill="none" stroke="rgb(146, 80, 55)" stroke-opacity="1.0" stroke-linecap="round" stroke-linejoin="round"/>
    <path d="M 224.56008911132812 164.33404541015625 C 219.2177734375 158.76695251464844 223.3514404296875 160.5066680908203 224.46517944335938 166.48985290527344" stroke-width="2.0095789432525635" fill="none" stroke="rgb(253, 253, 252)" stroke-opacity="0.017916005" stroke-linecap="round" stroke-linejoin="round"/>
    <path d="M 179.33929443359375 54.65438461303711 C 185.5428466796875 94.34803009033203 204.53770446777344 89.69811248779297 187.31007385253906 61.69291305541992" stroke-width="4.0" fill="none" stroke="rgb(180, 106, 68)" stroke-opacity="0.9595229" stroke-linecap="round" stroke-linejoin="round"/>
    <path d="M 136.53529357910156 111.57337188720703 C 132.34706115722656 53.61024475097656 146.5915985107422 34.773128509521484 143.19256591796875 101.36028289794922" stroke-width="4.0" fill="none" stroke="rgb(164, 90, 43)" stroke-opacity="0.85026115" stroke-linecap="round" stroke-linejoin="round"/>
    <path d="M 77.9406509399414 158.52381896972656 C 74.97293853759766 214.91845703125 88.86796569824219 195.83251953125 53.345821380615234 200.77476501464844" stroke-width="4.0" fill="none" stroke="rgb(178, 116, 86)" stroke-opacity="0.9064467" stroke-linecap="round" stroke-linejoin="round"/>
    <path d="M 106.4926528930664 96.79903411865234 C 109.93409729003906 154.9677734375 115.30923461914062 145.988037109375 117.7933578491211 92.34343719482422" stroke-width="4.0" fill="none" stroke="rgb(155, 88, 64)" stroke-opacity="1.0" stroke-linecap="round" stroke-linejoin="round"/>
    <path d="M 227.50296020507812 164.77146911621094 C 219.0849151611328 157.51632690429688 216.6529083251953 156.2807159423828 219.09519958496094 149.26295471191406" stroke-width="2.113924026489258" fill="none" stroke="rgb(224, 212, 231)" stroke-opacity="0.020723281" stroke-linecap="round" stroke-linejoin="round"/>
    <path d="M 223.92601013183594 -6.740289211273193 C 213.64759826660156 -6.199735164642334 212.63595581054688 -7.145657539367676 216.1630859375 -6.519966125488281" stroke-width="2.0" fill="none" stroke="rgb(255, 255, 202)" stroke-opacity="0.47681174" stroke-linecap="round" stroke-linejoin="round"/>
    <path d="M 34.47797775268555 175.34938049316406 C 55.77695846557617 163.4090118408203 55.256492614746094 162.57916259765625 39.37975311279297 125.74981689453125" stroke-width="4.0" fill="none" stroke="rgb(194, 139, 111)" stroke-opacity="0.97905546" stroke-linecap="round" stroke-linejoin="round"/>
    <path d="M 107.31194305419922 216.6770782470703 C 120.86712646484375 214.52456665039062 96.91708374023438 222.40023803710938 164.2893829345703 206.7193603515625" stroke-width="4.0" fill="none" stroke="rgb(162, 91, 64)" stroke-opacity="0.79235446" stroke-linecap="round" stroke-linejoin="round"/>
    <path d="M 156.22154235839844 108.13287353515625 C 140.54904174804688 115.53993225097656 116.14508056640625 114.66602325439453 135.13587951660156 129.28033447265625" stroke-width="4.0" fill="none" stroke="rgb(147, 79, 55)" stroke-opacity="0.999731" stroke-linecap="round" stroke-linejoin="round"/>
    <path d="M 57.724822998046875 203.60923767089844 C 101.19898986816406 203.56845092773438 108.4580078125 197.36473083496094 44.16313934326172 195.1703338623047" stroke-width="4.0" fill="none" stroke="rgb(166, 106, 86)" stroke-opacity="1.0" stroke-linecap="round" stroke-linejoin="round"/>
    <path d="M 59.2618522644043 131.2806396484375 C 100.32059478759766 103.68791198730469 122.93079376220703 86.01144409179688 58.80802917480469 108.45958709716797" stroke-width="4.0" fill="none" stroke="rgb(150, 85, 59)" stroke-opacity="1.0" stroke-linecap="round" stroke-linejoin="round"/>
    <path d="M 109.47736358642578 59.050514221191406 C 74.59236145019531 61.177127838134766 91.90678405761719 53.45002746582031 110.02593994140625 75.76115417480469" stroke-width="4.0" fill="none" stroke="rgb(70, 56, 52)" stroke-opacity="0.9463235" stroke-linecap="round" stroke-linejoin="round"/>
    <path d="M 51.0808219909668 93.00384521484375 C -10.326484680175781 82.39962005615234 -2.829169273376465 95.811279296875 33.92059326171875 124.18772888183594" stroke-width="4.0" fill="none" stroke="rgb(170, 109, 86)" stroke-opacity="1.0" stroke-linecap="round" stroke-linejoin="round"/>
    <path d="M 82.28703308105469 18.469839096069336 C 153.8308868408203 17.818523406982422 161.63624572753906 30.09527587890625 152.86920166015625 26.239578247070312" stroke-width="4.0" fill="none" stroke="rgb(150, 126, 109)" stroke-opacity="1.0" stroke-linecap="round" stroke-linejoin="round"/>
    <path d="M 225.0396270751953 130.47286987304688 C 211.93325805664062 103.27772521972656 227.56796264648438 124.3255615234375 222.12496948242188 86.74716186523438" stroke-width="4.0" fill="none" stroke="rgb(246, 245, 246)" stroke-opacity="0.21231258" stroke-linecap="round" stroke-linejoin="round"/>
    <path d="M 138.77780151367188 106.16543579101562 C 152.84739685058594 136.59982299804688 131.36712646484375 138.58316040039062 86.41322326660156 128.7344512939453" stroke-width="4.0" fill="none" stroke="rgb(123, 64, 47)" stroke-opacity="1.0" stroke-linecap="round" stroke-linejoin="round"/>
    <path d="M 185.58302307128906 109.32540893554688 C 128.0496826171875 107.60047149658203 147.53834533691406 112.99343872070312 140.73770141601562 97.56230926513672" stroke-width="4.0" fill="none" stroke="rgb(154, 87, 61)" stroke-opacity="1.0" stroke-linecap="round" stroke-linejoin="round"/>
    <path d="M 77.97027587890625 56.59014892578125 C 109.40845489501953 67.57594299316406 89.53253173828125 70.70174407958984 136.2115478515625 62.51559066772461" stroke-width="4.0" fill="none" stroke="rgb(107, 72, 55)" stroke-opacity="0.99992985" stroke-linecap="round" stroke-linejoin="round"/>
    <path d="M 128.90420532226562 81.64601135253906 C 52.04156494140625 80.20912170410156 50.007965087890625 70.92112731933594 125.24382019042969 78.12361907958984" stroke-width="4.0" fill="none" stroke="rgb(199, 149, 101)" stroke-opacity="0.97471076" stroke-linecap="round" stroke-linejoin="round"/>
    <path d="M 221.73550415039062 203.26193237304688 C 225.01800537109375 204.19320678710938 224.8414306640625 201.9787139892578 230.57835388183594 201.45547485351562" stroke-width="2.0038046836853027" fill="none" stroke="rgb(251, 224, 232)" stroke-opacity="0.019709125" stroke-linecap="round" stroke-linejoin="round"/>
    <path d="M 20.78015899658203 149.48233032226562 C 16.098852157592773 150.80239868164062 13.354514122009277 144.75904846191406 17.368825912475586 140.5375518798828" stroke-width="2.0313220024108887" fill="none" stroke="rgb(244, 213, 216)" stroke-opacity="0.01671953" stroke-linecap="round" stroke-linejoin="round"/>
    <path d="M 179.09413146972656 160.48358154296875 C 192.28880310058594 83.94232940673828 215.47914123535156 77.63388061523438 194.28892517089844 135.40753173828125" stroke-width="4.0" fill="none" stroke="rgb(154, 84, 61)" stroke-opacity="0.9323515" stroke-linecap="round" stroke-linejoin="round"/>
    <path d="M 123.43464660644531 35.83668518066406 C 58.87488555908203 21.43683433532715 55.32011795043945 19.306108474731445 153.5275115966797 26.137948989868164" stroke-width="4.0" fill="none" stroke="rgb(152, 122, 98)" stroke-opacity="1.0" stroke-linecap="round" stroke-linejoin="round"/>
    <path d="M 50.712589263916016 39.755218505859375 C 43.404972076416016 97.29218292236328 54.226318359375 98.75117492675781 58.08195114135742 46.34149169921875" stroke-width="4.0" fill="none" stroke="rgb(165, 84, 41)" stroke-opacity="0.82856965" stroke-linecap="round" stroke-linejoin="round"/>
    <path d="M 101.82892608642578 203.80364990234375 C 92.26460266113281 153.04196166992188 114.88224029541016 181.2107696533203 139.4802703857422 142.32464599609375" stroke-width="4.0" fill="none" stroke="rgb(171, 108, 82)" stroke-opacity="0.98685145" stroke-linecap="round" stroke-linejoin="round"/>
    <path d="M 69.91085052490234 181.3391571044922 C 25.48455810546875 175.4374542236328 38.885746002197266 186.1291046142578 87.40864562988281 147.59613037109375" stroke-width="4.0" fill="none" stroke="rgb(183, 121, 91)" stroke-opacity="1.0" stroke-linecap="round" stroke-linejoin="round"/>
    <path d="M 49.42003631591797 170.45071411132812 C 89.88098907470703 137.34837341308594 77.47264862060547 122.56973266601562 103.6859130859375 147.00616455078125" stroke-width="4.0" fill="none" stroke="rgb(163, 101, 77)" stroke-opacity="1.0" stroke-linecap="round" stroke-linejoin="round"/>
    <path d="M 61.30738067626953 109.0510025024414 C 91.83102416992188 117.15998840332031 49.49875259399414 98.42835998535156 97.26571655273438 94.0315170288086" stroke-width="4.0" fill="none" stroke="rgb(151, 90, 65)" stroke-opacity="1.0" stroke-linecap="round" stroke-linejoin="round"/>
    <path d="M 65.1082992553711 169.7338104248047 C 113.45053100585938 221.01731872558594 88.2335205078125 204.9342041015625 72.6581802368164 207.08978271484375" stroke-width="4.0" fill="none" stroke="rgb(172, 111, 87)" stroke-opacity="1.0" stroke-linecap="round" stroke-linejoin="round"/>
    <path d="M 27.863061904907227 143.4547576904297 C 17.546554565429688 115.06649780273438 20.39797592163086 107.47247314453125 32.073089599609375 174.9884033203125" stroke-width="4.0" fill="none" stroke="rgb(201, 156, 130)" stroke-opacity="0.89104927" stroke-linecap="round" stroke-linejoin="round"/>
    <path d="M 38.16005325317383 46.532188415527344 C 74.31602478027344 22.744062423706055 54.41182327270508 32.28432846069336 108.91017150878906 39.535640716552734" stroke-width="4.0" fill="none" stroke="rgb(187, 145, 105)" stroke-opacity="1.0" stroke-linecap="round" stroke-linejoin="round"/>
    <path d="M 130.65618896484375 0.10495105385780334 C 129.0239715576172 3.8551907539367676 128.99276733398438 0.6420045495033264 129.4552459716797 -6.119297981262207" stroke-width="2.0009632110595703" fill="none" stroke="rgb(254, 245, 238)" stroke-opacity="0.018943245" stroke-linecap="round" stroke-linejoin="round"/>
    <path d="M 19.179462432861328 182.1322479248047 C 21.495513916015625 190.07521057128906 19.431249618530273 187.24969482421875 19.647178649902344 183.68467712402344" stroke-width="2.0008175373077393" fill="none" stroke="rgb(253, 250, 243)" stroke-opacity="0.019103164" stroke-linecap="round" stroke-linejoin="round"/>
    <path d="M 174.38050842285156 196.08218383789062 C 188.49118041992188 189.57196044921875 203.04383850097656 175.44537353515625 184.14776611328125 198.23092651367188" stroke-width="4.0" fill="none" stroke="rgb(166, 103, 78)" stroke-opacity="0.7044973" stroke-linecap="round" stroke-linejoin="round"/>
    <path d="M 74.81134796142578 186.71875 C 120.31291198730469 121.52025604248047 127.68328857421875 133.24966430664062 50.24989700317383 183.6962890625" stroke-width="4.0" fill="none" stroke="rgb(180, 115, 86)" stroke-opacity="1.0" stroke-linecap="round" stroke-linejoin="round"/>
    <path d="M 75.75881958007812 193.1798553466797 C 18.96824836730957 188.70533752441406 30.05473518371582 196.76690673828125 97.72142028808594 144.98495483398438" stroke-width="4.0" fill="none" stroke="rgb(179, 117, 90)" stroke-opacity="1.0" stroke-linecap="round" stroke-linejoin="round"/>
    <path d="M 192.423583984375 84.90092468261719 C 164.99179077148438 123.39310455322266 194.04647827148438 129.4528350830078 197.83998107910156 69.03092956542969" stroke-width="4.0" fill="none" stroke="rgb(168, 99, 67)" stroke-opacity="0.9833748" stroke-linecap="round" stroke-linejoin="round"/>
    <path d="M 158.58303833007812 111.54920959472656 C 174.6156463623047 173.91725158691406 175.8123321533203 144.00497436523438 147.28579711914062 114.53096771240234" stroke-width="4.0" fill="none" stroke="rgb(138, 74, 52)" stroke-opacity="1.0" stroke-linecap="round" stroke-linejoin="round"/>
    <path d="M 27.089738845825195 127.8408432006836 C 56.3433837890625 124.03431701660156 53.95705032348633 128.46519470214844 43.499847412109375 172.70065307617188" stroke-width="4.0" fill="none" stroke="rgb(186, 124, 98)" stroke-opacity="0.8710039" stroke-linecap="round" stroke-linejoin="round"/>
    <path d="M 78.92015838623047 201.8318328857422 C 30.869199752807617 193.2613067626953 45.09670639038086 202.4952392578125 71.09686279296875 212.48512268066406" stroke-width="4.0" fill="none" stroke="rgb(161, 103, 84)" stroke-opacity="0.76758134" stroke-linecap="round" stroke-linejoin="round"/>
    <path d="M 136.1349334716797 46.699764251708984 C 122.04438018798828 127.988525390625 147.0839080810547 126.7834243774414 137.60858154296875 55.195716857910156" stroke-width="4.0" fill="none" stroke="rgb(171, 102, 60)" stroke-opacity="0.90850735" stroke-linecap="round" stroke-linejoin="round"/>
    <path d="M 185.27767944335938 55.6275634765625 C 156.74151611328125 13.208518028259277 175.9886932373047 62.642120361328125 208.26565551757812 78.53880310058594" stroke-width="4.0" fill="none" stroke="rgb(194, 133, 84)" stroke-opacity="0.83206064" stroke-linecap="round" stroke-linejoin="round"/>
    <path d="M 152.89598083496094 20.799707412719727 C 125.69889831542969 53.64884567260742 129.4521942138672 60.46841049194336 72.97196197509766 49.50878143310547" stroke-width="4.0" fill="none" stroke="rgb(175, 121, 84)" stroke-opacity="1.0" stroke-linecap="round" stroke-linejoin="round"/>
    <path d="M 61.388614654541016 106.44414520263672 C 66.06548309326172 145.66624450683594 55.89537048339844 181.06045532226562 52.52214431762695 145.40646362304688" stroke-width="4.0" fill="none" stroke="rgb(163, 99, 64)" stroke-opacity="0.80738324" stroke-linecap="round" stroke-linejoin="round"/>
    <path d="M 101.19242095947266 105.36347961425781 C 106.22996520996094 84.75363159179688 71.0887222290039 69.58851623535156 76.33683776855469 124.40779876708984" stroke-width="4.0" fill="none" stroke="rgb(165, 91, 58)" stroke-opacity="0.8791258" stroke-linecap="round" stroke-linejoin="round"/>
    <path d="M 193.9198455810547 138.14566040039062 C 191.05360412597656 165.76431274414062 189.69760131835938 174.22897338867188 170.80982971191406 195.7515106201172" stroke-width="4.0" fill="none" stroke="rgb(177, 121, 97)" stroke-opacity="1.0" stroke-linecap="round" stroke-linejoin="round"/>
    <path d="M 113.55077362060547 12.084358215332031 C 128.40049743652344 35.8786506652832 145.019775390625 49.7774543762207 71.48453521728516 26.658180236816406" stroke-width="4.0" fill="none" stroke="rgb(192, 152, 108)" stroke-opacity="1.0" stroke-linecap="round" stroke-linejoin="round"/>
    <path d="M 190.1196746826172 192.55911254882812 C 204.15069580078125 146.1984100341797 194.06704711914062 157.78221130371094 182.37501525878906 200.77352905273438" stroke-width="4.0" fill="none" stroke="rgb(177, 125, 102)" stroke-opacity="0.8560688" stroke-linecap="round" stroke-linejoin="round"/>
    <path d="M 10.409223556518555 99.37223815917969 C 56.624542236328125 129.0238494873047 49.72235107421875 157.35623168945312 44.57374954223633 118.76490783691406" stroke-width="4.0" fill="none" stroke="rgb(161, 96, 76)" stroke-opacity="0.9646417" stroke-linecap="round" stroke-linejoin="round"/>
    <path d="M 158.18617248535156 112.89302825927734 C 162.21847534179688 85.19066619873047 154.71502685546875 65.2678451538086 143.51185607910156 36.43698501586914" stroke-width="4.0" fill="none" stroke="rgb(168, 105, 71)" stroke-opacity="1.0" stroke-linecap="round" stroke-linejoin="round"/>
    <path d="M 177.0997314453125 177.7442626953125 C 176.71356201171875 136.89190673828125 182.80038452148438 124.9930648803711 189.5489044189453 105.3188247680664" stroke-width="4.0" fill="none" stroke="rgb(157, 87, 63)" stroke-opacity="0.89640474" stroke-linecap="round" stroke-linejoin="round"/>
    <path d="M 186.29730224609375 18.816606521606445 C 190.2713165283203 -4.325601577758789 187.18191528320312 4.286779403686523 160.01206970214844 2.336777687072754" stroke-width="4.0" fill="none" stroke="rgb(185, 185, 185)" stroke-opacity="0.014625321" stroke-linecap="round" stroke-linejoin="round"/>
    <path d="M 7.374734401702881 154.34947204589844 C 15.279048919677734 149.47174072265625 10.485700607299805 160.67127990722656 18.535722732543945 160.84730529785156" stroke-width="2.134373188018799" fill="none" stroke="rgb(212, 227, 197)" stroke-opacity="0.016591603" stroke-linecap="round" stroke-linejoin="round"/>
    <path d="M 24.211984634399414 23.532649993896484 C 18.77813720703125 24.210224151611328 24.821189880371094 24.01570701599121 21.922372817993164 22.524606704711914" stroke-width="2.0018231868743896" fill="none" stroke="rgb(254, 219, 218)" stroke-opacity="0.01597496" stroke-linecap="round" stroke-linejoin="round"/>
    <path d="M -7.153417110443115 18.222856521606445 C -6.0132365226745605 10.788583755493164 -4.226733684539795 17.30898094177246 -5.742277145385742 23.72875213623047" stroke-width="2.0" fill="none" stroke="rgb(255, 186, 255)" stroke-opacity="0.0" stroke-linecap="round" stroke-linejoin="round"/>
    <path d="M 16.58510971069336 27.559738159179688 C 31.577560424804688 18.6450138092041 21.161758422851562 25.762451171875 28.603757858276367 37.87474822998047" stroke-width="4.0" fill="none" stroke="rgb(202, 213, 217)" stroke-opacity="0.016983606" stroke-linecap="round" stroke-linejoin="round"/>
    <path d="M 51.81320571899414 196.38832092285156 C 97.17976379394531 170.64321899414062 36.42069625854492 194.99710083007812 36.541175842285156 178.15965270996094" stroke-width="4.0" fill="none" stroke="rgb(176, 119, 95)" stroke-opacity="0.9704828" stroke-linecap="round" stroke-linejoin="round"/>
    <path d="M 137.57504272460938 120.03059387207031 C 167.78363037109375 154.06275939941406 190.3296356201172 143.47462463378906 143.25852966308594 168.94839477539062" stroke-width="4.0" fill="none" stroke="rgb(163, 97, 73)" stroke-opacity="1.0" stroke-linecap="round" stroke-linejoin="round"/>
    <path d="M 46.857383728027344 194.8263397216797 C 43.023223876953125 199.16082763671875 59.16802978515625 214.4692840576172 80.47772216796875 211.61585998535156" stroke-width="3.145329713821411" fill="none" stroke="rgb(183, 150, 136)" stroke-opacity="0.33889076" stroke-linecap="round" stroke-linejoin="round"/>
    <path d="M 196.4724578857422 102.63469696044922 C 190.896240234375 177.9674530029297 198.96778869628906 181.07359313964844 200.9686279296875 124.5525131225586" stroke-width="4.0" fill="none" stroke="rgb(183, 120, 88)" stroke-opacity="0.69657683" stroke-linecap="round" stroke-linejoin="round"/>
    <path d="M 97.29692840576172 32.546478271484375 C 160.64544677734375 29.33286476135254 150.3511505126953 30.76486587524414 158.97589111328125 80.91338348388672" stroke-width="4.0" fill="none" stroke="rgb(199, 155, 106)" stroke-opacity="1.0" stroke-linecap="round" stroke-linejoin="round"/>
    <path d="M 123.50313568115234 112.7671890258789 C 122.28311920166016 142.54579162597656 149.21714782714844 130.13307189941406 166.3115692138672 150.6261749267578" stroke-width="4.0" fill="none" stroke="rgb(136, 66, 45)" stroke-opacity="0.8840663" stroke-linecap="round" stroke-linejoin="round"/>
    <path d="M 110.08671569824219 109.9329833984375 C 198.7870330810547 87.07198333740234 192.81021118164062 100.82110595703125 113.60121154785156 111.90342712402344" stroke-width="4.0" fill="none" stroke="rgb(158, 91, 66)" stroke-opacity="1.0" stroke-linecap="round" stroke-linejoin="round"/>
    <path d="M 54.716617584228516 103.2498779296875 C 82.52883911132812 -12.210517883300781 68.95404815673828 17.21736717224121 51.0286979675293 102.11766815185547" stroke-width="4.0" fill="none" stroke="rgb(160, 101, 71)" stroke-opacity="1.0" stroke-linecap="round" stroke-linejoin="round"/>
    <path d="M 103.54285430908203 217.3941650390625 C 134.42747497558594 191.7725067138672 121.36093139648438 188.5992889404297 102.10530853271484 215.29176330566406" stroke-width="4.0" fill="none" stroke="rgb(170, 109, 87)" stroke-opacity="0.97013766" stroke-linecap="round" stroke-linejoin="round"/>
    <path d="M 126.18461608886719 121.94060516357422 C 168.98294067382812 110.80386352539062 172.11526489257812 103.46957397460938 185.76942443847656 105.26715850830078" stroke-width="4.0" fill="none" stroke="rgb(162, 93, 65)" stroke-opacity="1.0" stroke-linecap="round" stroke-linejoin="round"/>
    <path d="M 210.28173828125 189.6551055908203 C 205.38780212402344 185.0525665283203 208.7478790283203 177.34317016601562 190.83975219726562 181.8518829345703" stroke-width="4.0" fill="none" stroke="rgb(250, 255, 255)" stroke-opacity="0.16355255" stroke-linecap="round" stroke-linejoin="round"/>
    <path d="M 74.68927764892578 132.95388793945312 C 116.83507537841797 96.13695526123047 125.33504486083984 80.64241027832031 76.08404541015625 114.34098815917969" stroke-width="4.0" fill="none" stroke="rgb(148, 83, 60)" stroke-opacity="1.0" stroke-linecap="round" stroke-linejoin="round"/>
    <path d="M 156.72096252441406 26.63174819946289 C 171.23712158203125 74.78560638427734 181.9944610595703 77.3838882446289 163.5149688720703 36.78013229370117" stroke-width="4.0" fill="none" stroke="rgb(75, 63, 63)" stroke-opacity="0.9850481" stroke-linecap="round" stroke-linejoin="round"/>
    <path d="M 189.67445373535156 60.3394775390625 C 203.94776916503906 73.49787139892578 217.361083984375 76.77012634277344 222.25738525390625 98.77214813232422" stroke-width="4.0" fill="none" stroke="rgb(188, 126, 92)" stroke-opacity="0.8806269" stroke-linecap="round" stroke-linejoin="round"/>
    <path d="M 29.851381301879883 33.75823974609375 C 36.475101470947266 32.230018615722656 35.69697952270508 25.99142837524414 34.84251022338867 30.532371520996094" stroke-width="2.0" fill="none" stroke="rgb(239, 244, 252)" stroke-opacity="0.020316295" stroke-linecap="round" stroke-linejoin="round"/>
    <path d="M 206.084716796875 41.510414123535156 C 195.78172302246094 38.60498809814453 200.6433868408203 43.008583068847656 206.7637176513672 42.46821594238281" stroke-width="2.002469062805176" fill="none" stroke="rgb(249, 251, 253)" stroke-opacity="0.01907647" stroke-linecap="round" stroke-linejoin="round"/>
    <path d="M 95.61737823486328 175.81829833984375 C 101.9062271118164 226.12957763671875 113.85694885253906 217.59580993652344 73.72662353515625 213.08831787109375" stroke-width="4.0" fill="none" stroke="rgb(167, 103, 80)" stroke-opacity="0.87485546" stroke-linecap="round" stroke-linejoin="round"/>
    <path d="M 154.79464721679688 98.90576171875 C 159.8135528564453 54.39472961425781 127.01634216308594 90.15093231201172 133.2647705078125 47.649593353271484" stroke-width="4.0" fill="none" stroke="rgb(150, 82, 46)" stroke-opacity="0.83433324" stroke-linecap="round" stroke-linejoin="round"/>
    <path d="M 136.13418579101562 166.68014526367188 C 168.4530029296875 139.49598693847656 175.3209686279297 155.91148376464844 131.62841796875 136.35455322265625" stroke-width="4.0" fill="none" stroke="rgb(165, 98, 73)" stroke-opacity="0.98148894" stroke-linecap="round" stroke-linejoin="round"/>
    <path d="M 152.5355987548828 128.3668975830078 C 177.30027770996094 155.39231872558594 184.19277954101562 149.00572204589844 198.85972595214844 104.5281753540039" stroke-width="4.0" fill="none" stroke="rgb(158, 91, 69)" stroke-opacity="1.0" stroke-linecap="round" stroke-linejoin="round"/>
    <path d="M 155.11180114746094 -0.9357567429542542 C 153.65707397460938 -2.434659004211426 149.830810546875 -7.478155612945557 146.91139221191406 -2.7289419174194336" stroke-width="2.0" fill="none" stroke="rgb(197, 231, 255)" stroke-opacity="0.0" stroke-linecap="round" stroke-linejoin="round"/>
    <path d="M 145.61441040039062 18.478727340698242 C 75.72867584228516 5.605229377746582 68.2579574584961 27.377365112304688 119.5387954711914 28.1834774017334" stroke-width="4.0" fill="none" stroke="rgb(121, 63, 0)" stroke-opacity="0.5026505" stroke-linecap="round" stroke-linejoin="round"/>
    <path d="M 176.64154052734375 53.459014892578125 C 168.34844970703125 75.38504028320312 165.45974731445312 84.10070037841797 205.62905883789062 75.18492889404297" stroke-width="4.0" fill="none" stroke="rgb(183, 118, 78)" stroke-opacity="0.8572114" stroke-linecap="round" stroke-linejoin="round"/>
    <path d="M 38.97975540161133 210.66995239257812 C 13.713371276855469 215.81436157226562 19.083099365234375 224.885986328125 43.17032241821289 226.5750732421875" stroke-width="3.0805423259735107" fill="none" stroke="rgb(202, 197, 189)" stroke-opacity="0.012566513" stroke-linecap="round" stroke-linejoin="round"/>
    <path d="M 94.60755920410156 211.8781280517578 C 90.15845489501953 167.62741088867188 71.42041778564453 190.6915283203125 125.45447540283203 152.3101348876953" stroke-width="4.0" fill="none" stroke="rgb(174, 108, 79)" stroke-opacity="0.960392" stroke-linecap="round" stroke-linejoin="round"/>
    <path d="M 173.87161254882812 203.73365783691406 C 105.1163330078125 208.48313903808594 114.54450988769531 222.326416015625 166.67221069335938 208.4773712158203" stroke-width="4.0" fill="none" stroke="rgb(170, 111, 89)" stroke-opacity="0.91608065" stroke-linecap="round" stroke-linejoin="round"/>
    <path d="M 226.55429077148438 78.01176452636719 C 225.83883666992188 79.10968780517578 224.50270080566406 79.01155090332031 224.09158325195312 80.28527069091797" stroke-width="2.0099868774414062" fill="none" stroke="rgb(232, 250, 253)" stroke-opacity="0.018541142" stroke-linecap="round" stroke-linejoin="round"/>
    <path d="M 113.28290557861328 141.7054901123047 C 80.42961120605469 173.93002319335938 73.20944213867188 158.95025634765625 88.51990509033203 193.188720703125" stroke-width="4.0" fill="none" stroke="rgb(175, 108, 82)" stroke-opacity="0.9891632" stroke-linecap="round" stroke-linejoin="round"/>
    <path d="M 201.3828887939453 50.6583137512207 C 203.0750274658203 46.94610595703125 202.43023681640625 43.04606628417969 203.58372497558594 48.87259292602539" stroke-width="2.0" fill="none" stroke="rgb(253, 246, 249)" stroke-opacity="0.018829094" stroke-linecap="round" stroke-linejoin="round"/>
    <path d="M 169.9703826904297 185.9287109375 C 196.05947875976562 137.2039337158203 200.1416015625 131.81387329101562 177.46112060546875 182.87315368652344" stroke-width="4.0" fill="none" stroke="rgb(180, 123, 92)" stroke-opacity="0.8904755" stroke-linecap="round" stroke-linejoin="round"/>
    <path d="M 146.0542755126953 20.21044921875 C 147.58029174804688 57.86534118652344 159.35923767089844 67.82181549072266 156.11114501953125 22.42190170288086" stroke-width="4.0" fill="none" stroke="rgb(177, 123, 87)" stroke-opacity="1.0" stroke-linecap="round" stroke-linejoin="round"/>
    <path d="M 45.883514404296875 125.06331634521484 C 69.43053436279297 99.23629760742188 78.2593765258789 125.17507934570312 32.60615921020508 121.08731842041016" stroke-width="4.0" fill="none" stroke="rgb(72, 49, 43)" stroke-opacity="0.9112167" stroke-linecap="round" stroke-linejoin="round"/>
    <path d="M 105.50941467285156 201.01417541503906 C 94.04798889160156 144.9681396484375 83.8014907836914 156.47666931152344 99.21504211425781 213.84536743164062" stroke-width="4.0" fill="none" stroke="rgb(176, 114, 86)" stroke-opacity="0.97897446" stroke-linecap="round" stroke-linejoin="round"/>
    <path d="M 178.5397186279297 199.48089599609375 C 109.88140106201172 208.05735778808594 105.90170288085938 200.51544189453125 179.91317749023438 196.15480041503906" stroke-width="4.0" fill="none" stroke="rgb(164, 108, 89)" stroke-opacity="1.0" stroke-linecap="round" stroke-linejoin="round"/>
    <path d="M 40.16856002807617 93.43714141845703 C 30.75641441345215 65.83214569091797 42.04656982421875 63.118309020996094 35.351261138916016 48.16718292236328" stroke-width="4.0" fill="none" stroke="rgb(161, 86, 45)" stroke-opacity="0.7690545" stroke-linecap="round" stroke-linejoin="round"/>
    <path d="M 187.3497772216797 58.007747650146484 C 179.0518035888672 54.556129455566406 188.26193237304688 72.75904083251953 193.8070068359375 84.15557861328125" stroke-width="4.0" fill="none" stroke="rgb(180, 112, 74)" stroke-opacity="0.919104" stroke-linecap="round" stroke-linejoin="round"/>
    <path d="M 168.3484649658203 67.53324890136719 C 149.1466064453125 12.125889778137207 143.4462127685547 20.507606506347656 162.0020294189453 71.95941162109375" stroke-width="4.0" fill="none" stroke="rgb(78, 42, 27)" stroke-opacity="0.62933284" stroke-linecap="round" stroke-linejoin="round"/>
    <path d="M 40.94036102294922 48.45701599121094 C 36.97987747192383 100.64328002929688 48.833988189697266 80.3167495727539 50.894020080566406 131.86717224121094" stroke-width="4.0" fill="none" stroke="rgb(152, 87, 52)" stroke-opacity="0.8352159" stroke-linecap="round" stroke-linejoin="round"/>
    <path d="M 138.89649963378906 195.3509979248047 C 171.71658325195312 158.6940155029297 192.4496612548828 154.19749450683594 154.08367919921875 184.45652770996094" stroke-width="4.0" fill="none" stroke="rgb(172, 110, 82)" stroke-opacity="0.93478036" stroke-linecap="round" stroke-linejoin="round"/>
    <path d="M 25.65040397644043 29.89597511291504 C 22.306093215942383 33.194271087646484 17.722261428833008 32.538429260253906 22.547914505004883 37.39498519897461" stroke-width="2.0115320682525635" fill="none" stroke="rgb(242, 251, 200)" stroke-opacity="0.016788987" stroke-linecap="round" stroke-linejoin="round"/>
    <path d="M 8.480356216430664 201.0375518798828 C 8.93628215789795 202.0491943359375 7.177407741546631 203.4362030029297 1.9711494445800781 196.16014099121094" stroke-width="2.0422756671905518" fill="none" stroke="rgb(199, 170, 156)" stroke-opacity="0.0123091545" stroke-linecap="round" stroke-linejoin="round"/>
    <path d="M 168.34146118164062 207.1001434326172 C 207.14698791503906 192.60118103027344 152.96466064453125 180.28668212890625 169.99295043945312 203.17630004882812" stroke-width="4.0" fill="none" stroke="rgb(180, 131, 109)" stroke-opacity="0.85861945" stroke-linecap="round" stroke-linejoin="round"/>
    <path d="M 147.2462158203125 96.76188659667969 C 146.91470336914062 53.481266021728516 159.2384490966797 91.79940032958984 140.16067504882812 37.905418395996094" stroke-width="4.0" fill="none" stroke="rgb(173, 110, 72)" stroke-opacity="1.0" stroke-linecap="round" stroke-linejoin="round"/>
    <path d="M 130.720703125 47.464786529541016 C 65.98719024658203 59.308982849121094 80.37458801269531 23.25702667236328 69.26647186279297 76.52900695800781" stroke-width="4.0" fill="none" stroke="rgb(192, 130, 83)" stroke-opacity="0.910328" stroke-linecap="round" stroke-linejoin="round"/>
    <path d="M 196.81637573242188 16.518291473388672 C 220.4403076171875 16.748987197875977 213.98248291015625 16.25028419494629 219.09860229492188 9.274889945983887" stroke-width="3.3986785411834717" fill="none" stroke="rgb(184, 184, 185)" stroke-opacity="0.014125144" stroke-linecap="round" stroke-linejoin="round"/>
    <path d="M 73.51619720458984 210.08261108398438 C 97.4683837890625 211.54579162597656 89.80286407470703 211.8983154296875 100.09226989746094 213.33892822265625" stroke-width="4.0" fill="none" stroke="rgb(163, 103, 84)" stroke-opacity="0.9240859" stroke-linecap="round" stroke-linejoin="round"/>
    <path d="M 10.051892280578613 179.4034423828125 C 11.521156311035156 183.70138549804688 12.727326393127441 186.74746704101562 10.233088493347168 182.80133056640625" stroke-width="2.009505033493042" fill="none" stroke="rgb(252, 253, 252)" stroke-opacity="0.0173358" stroke-linecap="round" stroke-linejoin="round"/>
    <path d="M 191.80039978027344 214.4170379638672 C 188.3638916015625 215.44000244140625 196.03977966308594 220.0065155029297 186.1114501953125 219.61578369140625" stroke-width="2.0022132396698" fill="none" stroke="rgb(253, 252, 251)" stroke-opacity="0.018484384" stroke-linecap="round" stroke-linejoin="round"/>
    <path d="M 80.12271881103516 184.46429443359375 C 128.6354522705078 121.64511108398438 173.3718719482422 130.83934020996094 111.25032806396484 175.3785400390625" stroke-width="4.0" fill="none" stroke="rgb(168, 101, 76)" stroke-opacity="0.9683005" stroke-linecap="round" stroke-linejoin="round"/>
    <path d="M 165.4901885986328 62.33987045288086 C 145.81741333007812 12.07271671295166 155.5652313232422 54.38329315185547 163.07289123535156 64.53112030029297" stroke-width="4.0" fill="none" stroke="rgb(66, 52, 49)" stroke-opacity="1.0" stroke-linecap="round" stroke-linejoin="round"/>
    <path d="M 126.3862075805664 152.7788848876953 C 200.5135040283203 150.9254913330078 189.91665649414062 154.4643096923828 110.85612487792969 190.7620849609375" stroke-width="4.0" fill="none" stroke="rgb(175, 113, 87)" stroke-opacity="1.0" stroke-linecap="round" stroke-linejoin="round"/>
    <path d="M 167.35577392578125 130.53121948242188 C 170.15655517578125 66.79818725585938 181.989501953125 64.80724334716797 170.8207244873047 124.07581329345703" stroke-width="4.0" fill="none" stroke="rgb(154, 87, 59)" stroke-opacity="1.0" stroke-linecap="round" stroke-linejoin="round"/>
    <path d="M 163.21385192871094 65.75306701660156 C 183.44285583496094 98.62671661376953 149.68885803222656 110.56969451904297 185.35340881347656 82.4419937133789" stroke-width="4.0" fill="none" stroke="rgb(173, 107, 65)" stroke-opacity="0.76115495" stroke-linecap="round" stroke-linejoin="round"/>
    <path d="M 122.52416229248047 124.30581665039062 C 110.47233581542969 138.32723999023438 51.42790603637695 112.61512756347656 116.5342025756836 126.6572265625" stroke-width="4.0" fill="none" stroke="rgb(126, 68, 49)" stroke-opacity="1.0" stroke-linecap="round" stroke-linejoin="round"/>
    <path d="M 101.24342346191406 68.53730010986328 C 46.887508392333984 66.78305053710938 84.91315460205078 85.76007843017578 50.453468322753906 118.502197265625" stroke-width="4.0" fill="none" stroke="rgb(113, 69, 50)" stroke-opacity="0.93147403" stroke-linecap="round" stroke-linejoin="round"/>
    <path d="M 84.29103088378906 204.47613525390625 C 166.6135711669922 215.5610809326172 163.3972930908203 206.898681640625 90.27622985839844 201.60887145996094" stroke-width="4.0" fill="none" stroke="rgb(164, 105, 85)" stroke-opacity="0.99304885" stroke-linecap="round" stroke-linejoin="round"/>
    <path d="M 50.95558547973633 111.9327621459961 C 69.57693481445312 93.92111206054688 59.89608383178711 73.94989776611328 79.5145263671875 20.25045394897461" stroke-width="4.0" fill="none" stroke="rgb(142, 95, 72)" stroke-opacity="1.0" stroke-linecap="round" stroke-linejoin="round"/>
    <path d="M 44.338199615478516 75.03081512451172 C 44.90422058105469 31.959474563598633 43.59122848510742 33.38920211791992 88.9978256225586 68.39208221435547" stroke-width="4.0" fill="none" stroke="rgb(196, 137, 92)" stroke-opacity="1.0" stroke-linecap="round" stroke-linejoin="round"/>
    <path d="M 208.30104064941406 165.2539520263672 C 209.21339416503906 170.8537139892578 212.393310546875 173.87939453125 215.00575256347656 169.82608032226562" stroke-width="2.161515951156616" fill="none" stroke="rgb(227, 214, 228)" stroke-opacity="0.018457653" stroke-linecap="round" stroke-linejoin="round"/>
    <path d="M 107.93961334228516 14.994841575622559 C 148.66561889648438 54.531280517578125 147.5294952392578 -2.3363733291625977 103.63890838623047 13.226676940917969" stroke-width="4.0" fill="none" stroke="rgb(215, 180, 137)" stroke-opacity="1.0" stroke-linecap="round" stroke-linejoin="round"/>
    <path d="M 61.12239074707031 80.75276947021484 C 55.553226470947266 105.12657165527344 85.30016326904297 87.9766616821289 118.74222564697266 86.87934875488281" stroke-width="4.0" fill="none" stroke="rgb(161, 91, 60)" stroke-opacity="0.923181" stroke-linecap="round" stroke-linejoin="round"/>
    <path d="M 16.730690002441406 12.084010124206543 C 26.61201286315918 13.624714851379395 36.06485366821289 15.239263534545898 53.11343765258789 32.35029983520508" stroke-width="4.0" fill="none" stroke="rgb(188, 188, 184)" stroke-opacity="0.013707301" stroke-linecap="round" stroke-linejoin="round"/>
    <path d="M 111.56043243408203 91.67407989501953 C 109.12554931640625 145.8516845703125 126.9713134765625 113.98677062988281 88.86285400390625 115.58554077148438" stroke-width="4.0" fill="none" stroke="rgb(154, 89, 67)" stroke-opacity="1.0" stroke-linecap="round" stroke-linejoin="round"/>
    <path d="M 82.31532287597656 69.10676574707031 C 79.79229736328125 100.61446380615234 76.94599914550781 108.12202453613281 42.771915435791016 80.93388366699219" stroke-width="4.0" fill="none" stroke="rgb(153, 88, 61)" stroke-opacity="1.0" stroke-linecap="round" stroke-linejoin="round"/>
    <path d="M 215.1073455810547 89.40325164794922 C 208.7696990966797 70.69309997558594 175.4875030517578 78.75562286376953 174.4442138671875 116.89398193359375" stroke-width="4.0" fill="none" stroke="rgb(167, 97, 68)" stroke-opacity="0.9259179" stroke-linecap="round" stroke-linejoin="round"/>
    <path d="M 32.95502853393555 83.6471939086914 C 49.088829040527344 142.2151641845703 49.60009765625 120.75032806396484 14.730326652526855 97.08226776123047" stroke-width="4.0" fill="none" stroke="rgb(152, 91, 65)" stroke-opacity="0.9652622" stroke-linecap="round" stroke-linejoin="round"/>
    <path d="M 12.814560890197754 208.46229553222656 C 5.735021591186523 223.1858673095703 -0.7435276508331299 218.4125213623047 2.145085334777832 215.61215209960938" stroke-width="2.0131216049194336" fill="none" stroke="rgb(229, 237, 237)" stroke-opacity="0.019731779" stroke-linecap="round" stroke-linejoin="round"/>
    <path d="M 196.9288787841797 122.34791564941406 C 172.8604736328125 157.20358276367188 174.57371520996094 174.76605224609375 192.66134643554688 135.47215270996094" stroke-width="4.0" fill="none" stroke="rgb(183, 120, 91)" stroke-opacity="0.88349265" stroke-linecap="round" stroke-linejoin="round"/>
    <path d="M 163.70098876953125 100.52503204345703 C 156.80335998535156 45.94615173339844 181.9325408935547 114.52983856201172 150.30242919921875 93.82874298095703" stroke-width="4.0" fill="none" stroke="rgb(165, 89, 48)" stroke-opacity="0.84945166" stroke-linecap="round" stroke-linejoin="round"/>
    <path d="M 117.94554901123047 85.87029266357422 C 88.42396545410156 115.26393127441406 67.74305725097656 142.65969848632812 45.04706954956055 126.57257080078125" stroke-width="4.0" fill="none" stroke="rgb(147, 84, 62)" stroke-opacity="1.0" stroke-linecap="round" stroke-linejoin="round"/>
    <path d="M 74.93688201904297 91.53036499023438 C 82.4504165649414 54.43024444580078 75.48208618164062 50.21982192993164 71.09751892089844 90.93826293945312" stroke-width="4.0" fill="none" stroke="rgb(163, 95, 65)" stroke-opacity="1.0" stroke-linecap="round" stroke-linejoin="round"/>
    <path d="M 29.458066940307617 89.1110610961914 C 39.06245803833008 32.98063278198242 27.819456100463867 50.99260711669922 27.319814682006836 79.43580627441406" stroke-width="4.0" fill="none" stroke="rgb(180, 116, 71)" stroke-opacity="0.8294424" stroke-linecap="round" stroke-linejoin="round"/>
    <path d="M 98.35023498535156 94.85169219970703 C 130.31591796875 73.60983276367188 121.06951141357422 40.00747299194336 128.20545959472656 98.18191528320312" stroke-width="4.0" fill="none" stroke="rgb(175, 110, 71)" stroke-opacity="1.0" stroke-linecap="round" stroke-linejoin="round"/>
    <path d="M 116.19490051269531 85.62821960449219 C 124.33921813964844 82.49752807617188 121.594482421875 105.0918960571289 118.7398452758789 131.07749938964844" stroke-width="4.0" fill="none" stroke="rgb(163, 93, 64)" stroke-opacity="1.0" stroke-linecap="round" stroke-linejoin="round"/>
    <path d="M 144.795166015625 105.24681854248047 C 148.5394744873047 148.45957946777344 158.1668701171875 149.72813415527344 127.01991271972656 114.05208587646484" stroke-width="4.0" fill="none" stroke="rgb(141, 77, 55)" stroke-opacity="1.0" stroke-linecap="round" stroke-linejoin="round"/>
    <path d="M 184.32443237304688 89.1639404296875 C 227.50601196289062 94.82198333740234 230.37098693847656 111.10194396972656 182.06192016601562 96.97904205322266" stroke-width="4.0" fill="none" stroke="rgb(170, 101, 72)" stroke-opacity="0.97432053" stroke-linecap="round" stroke-linejoin="round"/>
    <path d="M 32.57099151611328 177.98240661621094 C 49.72344970703125 215.251220703125 51.26163101196289 196.5888671875 46.82881546020508 179.62742614746094" stroke-width="4.0" fill="none" stroke="rgb(185, 136, 115)" stroke-opacity="0.8265219" stroke-linecap="round" stroke-linejoin="round"/>
    <path d="M 73.6718521118164 179.08053588867188 C 39.64630889892578 172.97598266601562 26.63913917541504 150.1173553466797 43.52187728881836 183.7134552001953" stroke-width="4.0" fill="none" stroke="rgb(187, 130, 102)" stroke-opacity="0.93709797" stroke-linecap="round" stroke-linejoin="round"/>
    <path d="M 221.5722198486328 166.50204467773438 C 217.09693908691406 167.73074340820312 216.81373596191406 169.7904510498047 217.59182739257812 176.80580139160156" stroke-width="2.003903388977051" fill="none" stroke="rgb(252, 244, 245)" stroke-opacity="0.018262085" stroke-linecap="round" stroke-linejoin="round"/>
  </g>
</svg>
