<?xml version="1.0" ?>
<svg xmlns="http://www.w3.org/2000/svg" version="1.1" width="229" height="229">
  <defs/>
  <g>
    <path d="M 50.456363677978516 242.91944885253906 C 44.167442321777344 184.08544921875 59.01833724975586 208.3987579345703 47.28184127807617 180.85003662109375" stroke-width="3.2573049068450928" fill="none" stroke="rgb(97, 34, 0)" stroke-opacity="1.0" stroke-linecap="round" stroke-linejoin="round"/>
    <path d="M 55.28346252441406 213.5113983154297 C 73.01129150390625 210.82090759277344 47.623966217041016 234.22618103027344 70.92034149169922 161.8760986328125" stroke-width="4.0" fill="none" stroke="rgb(112, 57, 9)" stroke-opacity="1.0" stroke-linecap="round" stroke-linejoin="round"/>
    <path d="M 183.69398498535156 34.35092544555664 C 199.24978637695312 28.356321334838867 210.43197631835938 18.501272201538086 157.58547973632812 24.128854751586914" stroke-width="4.0" fill="none" stroke="rgb(255, 211, 0)" stroke-opacity="1.0" stroke-linecap="round" stroke-linejoin="round"/>
    <path d="M 114.78247833251953 -0.9382244348526001 C 124.06668853759766 82.50589752197266 115.14095306396484 0.18800437450408936 102.61148071289062 9.068161964416504" stroke-width="2.1895649433135986" fill="none" stroke="rgb(251, 226, 193)" stroke-opacity="0.34903297" stroke-linecap="round" stroke-linejoin="round"/>
    <path d="M 48.26860427856445 97.42880249023438 C 42.157814025878906 113.00416564941406 33.212860107421875 169.4498748779297 40.777435302734375 191.0014190673828" stroke-width="4.0" fill="none" stroke="rgb(0, 0, 0)" stroke-opacity="1.0" stroke-linecap="round" stroke-linejoin="round"/>
    <path d="M 2.8777530193328857 55.663116455078125 C 21.37294578552246 8.591775894165039 0.9755614399909973 56.90524673461914 16.29591941833496 -0.4438793659210205" stroke-width="2.1865036487579346" fill="none" stroke="rgb(186, 117, 107)" stroke-opacity="0.15500648" stroke-linecap="round" stroke-linejoin="round"/>
    <path d="M 122.46533203125 32.83491134643555 C 137.9246368408203 11.169791221618652 132.85922241210938 14.736023902893066 103.97825622558594 48.38785171508789" stroke-width="2.0" fill="none" stroke="rgb(5, 2, 0)" stroke-opacity="1.0" stroke-linecap="round" stroke-linejoin="round"/>
    <path d="M 67.54515838623047 98.63358306884766 C 78.65831756591797 153.4247589111328 59.433570861816406 85.98336791992188 111.65711975097656 79.60832214355469" stroke-width="3.8654284477233887" fill="none" stroke="rgb(159, 0, 166)" stroke-opacity="0.08209806" stroke-linecap="round" stroke-linejoin="round"/>
    <path d="M 198.57373046875 151.25250244140625 C 249.50778198242188 155.34237670898438 231.2604217529297 152.51162719726562 186.9738006591797 125.4433364868164" stroke-width="4.0" fill="none" stroke="rgb(80, 1, 4)" stroke-opacity="0.87362087" stroke-linecap="round" stroke-linejoin="round"/>
    <path d="M 16.622623443603516 140.3194122314453 C 0.8398076295852661 105.09925079345703 0.4733831286430359 154.30984497070312 9.946357727050781 91.90394592285156" stroke-width="4.0" fill="none" stroke="rgb(253, 230, 243)" stroke-opacity="0.7082571" stroke-linecap="round" stroke-linejoin="round"/>
    <path d="M 138.13621520996094 21.65741729736328 C 112.26371002197266 51.23779296875 143.58641052246094 12.735574722290039 184.01617431640625 21.93431854248047" stroke-width="4.0" fill="none" stroke="rgb(137, 16, 0)" stroke-opacity="1.0" stroke-linecap="round" stroke-linejoin="round"/>
    <path d="M 16.0867977142334 99.97924041748047 C 22.970293045043945 166.7523193359375 19.984233856201172 106.20428466796875 -4.059118270874023 187.98126220703125" stroke-width="2.620155096054077" fill="none" stroke="rgb(3, 0, 0)" stroke-opacity="1.0" stroke-linecap="round" stroke-linejoin="round"/>
    <path d="M 134.8627471923828 119.32678985595703 C 121.17530822753906 152.4722900390625 144.2657012939453 144.2092742919922 111.50199890136719 119.91946411132812" stroke-width="2.756859302520752" fill="none" stroke="rgb(0, 0, 255)" stroke-opacity="1.0" stroke-linecap="round" stroke-linejoin="round"/>
    <path d="M 176.94883728027344 44.04166030883789 C 163.4900360107422 53.61993408203125 185.65431213378906 52.80189514160156 178.6925048828125 44.542808532714844" stroke-width="3.931222438812256" fill="none" stroke="rgb(0, 0, 0)" stroke-opacity="1.0" stroke-linecap="round" stroke-linejoin="round"/>
    <path d="M 223.60659790039062 119.27764892578125 C 115.51496124267578 119.12632751464844 171.55641174316406 132.85110473632812 239.96438598632812 142.00491333007812" stroke-width="4.0" fill="none" stroke="rgb(235, 93, 0)" stroke-opacity="0.11674831" stroke-linecap="round" stroke-linejoin="round"/>
    <path d="M 190.52859497070312 56.6999397277832 C 182.40113830566406 60.498390197753906 189.7686309814453 86.83792114257812 149.21522521972656 90.86775970458984" stroke-width="4.0" fill="none" stroke="rgb(0, 0, 15)" stroke-opacity="1.0" stroke-linecap="round" stroke-linejoin="round"/>
    <path d="M 169.63973999023438 91.50679016113281 C 202.861328125 66.72887420654297 192.69354248046875 51.212364196777344 188.74827575683594 37.96133804321289" stroke-width="4.0" fill="none" stroke="rgb(239, 175, 0)" stroke-opacity="1.0" stroke-linecap="round" stroke-linejoin="round"/>
    <path d="M 188.15223693847656 164.25030517578125 C 201.6199493408203 128.79983520507812 219.26222229003906 135.23297119140625 223.7083740234375 150.0619354248047" stroke-width="3.8851261138916016" fill="none" stroke="rgb(52, 0, 50)" stroke-opacity="0.96330094" stroke-linecap="round" stroke-linejoin="round"/>
    <path d="M 217.72898864746094 91.79434204101562 C 215.7801513671875 96.19450378417969 201.24806213378906 97.8654556274414 168.7389373779297 134.23236083984375" stroke-width="4.0" fill="none" stroke="rgb(161, 0, 0)" stroke-opacity="1.0" stroke-linecap="round" stroke-linejoin="round"/>
    <path d="M 31.29234504699707 -31.569665908813477 C 21.588090896606445 10.41948413848877 37.77653503417969 26.779651641845703 27.468427658081055 40.58292770385742" stroke-width="2.0" fill="none" stroke="rgb(221, 210, 210)" stroke-opacity="0.2642117" stroke-linecap="round" stroke-linejoin="round"/>
    <path d="M 156.13063049316406 223.47036743164062 C 158.38290405273438 189.4135284423828 152.36695861816406 207.22467041015625 147.17364501953125 155.31723022460938" stroke-width="4.0" fill="none" stroke="rgb(80, 0, 0)" stroke-opacity="1.0" stroke-linecap="round" stroke-linejoin="round"/>
    <path d="M 63.117279052734375 1.1509135961532593 C 58.963809967041016 58.6778678894043 55.60003662109375 16.27298355102539 59.897457122802734 51.9046745300293" stroke-width="2.0433006286621094" fill="none" stroke="rgb(79, 59, 0)" stroke-opacity="0.328032" stroke-linecap="round" stroke-linejoin="round"/>
    <path d="M 36.70950698852539 133.40396118164062 C -7.554083347320557 103.75598907470703 -2.831480026245117 103.61785888671875 41.07374572753906 108.9531021118164" stroke-width="2.733684778213501" fill="none" stroke="rgb(250, 200, 204)" stroke-opacity="0.31406277" stroke-linecap="round" stroke-linejoin="round"/>
    <path d="M 171.86952209472656 115.7400131225586 C 174.79818725585938 91.58497619628906 162.2826690673828 106.8126449584961 176.06227111816406 124.72706604003906" stroke-width="3.9973878860473633" fill="none" stroke="rgb(216, 62, 0)" stroke-opacity="1.0" stroke-linecap="round" stroke-linejoin="round"/>
    <path d="M 131.76414489746094 44.16157531738281 C 168.5657196044922 23.39382553100586 155.66741943359375 44.97258377075195 157.68490600585938 62.55128860473633" stroke-width="2.767261505126953" fill="none" stroke="rgb(31, 0, 255)" stroke-opacity="1.0" stroke-linecap="round" stroke-linejoin="round"/>
    <path d="M 68.9236068725586 54.66752624511719 C 90.0539321899414 14.397619247436523 72.95829010009766 25.187074661254883 89.80769348144531 -3.5219829082489014" stroke-width="2.0" fill="none" stroke="rgb(138, 97, 59)" stroke-opacity="0.16507185" stroke-linecap="round" stroke-linejoin="round"/>
    <path d="M 25.945064544677734 103.57710266113281 C 73.82579803466797 104.11001586914062 31.202177047729492 80.94482421875 95.4749984741211 86.5707015991211" stroke-width="3.7714850902557373" fill="none" stroke="rgb(219, 130, 0)" stroke-opacity="0.15440169" stroke-linecap="round" stroke-linejoin="round"/>
    <path d="M 107.15684509277344 168.48464965820312 C 51.44767761230469 138.13656616210938 78.39765167236328 151.69403076171875 53.16299057006836 182.9440155029297" stroke-width="2.511033058166504" fill="none" stroke="rgb(0, 0, 33)" stroke-opacity="1.0" stroke-linecap="round" stroke-linejoin="round"/>
    <path d="M 71.86688232421875 222.12521362304688 C 154.06326293945312 211.13388061523438 109.69841003417969 228.8639678955078 129.20469665527344 193.04400634765625" stroke-width="2.063981056213379" fill="none" stroke="rgb(14, 0, 32)" stroke-opacity="1.0" stroke-linecap="round" stroke-linejoin="round"/>
    <path d="M 204.3301239013672 187.87841796875 C 209.25416564941406 191.76744079589844 183.00619506835938 200.6026611328125 204.8272705078125 201.69322204589844" stroke-width="2.0" fill="none" stroke="rgb(255, 141, 0)" stroke-opacity="0.0" stroke-linecap="round" stroke-linejoin="round"/>
    <path d="M 170.39865112304688 225.47897338867188 C 227.84365844726562 229.68927001953125 225.4992218017578 238.2804412841797 228.75949096679688 236.90618896484375" stroke-width="4.0" fill="none" stroke="rgb(136, 75, 106)" stroke-opacity="0.50301254" stroke-linecap="round" stroke-linejoin="round"/>
    <path d="M 47.53042221069336 30.621557235717773 C 73.41230773925781 -0.009178169071674347 78.83826446533203 -17.240859985351562 98.15325927734375 -8.5716552734375" stroke-width="2.0" fill="none" stroke="rgb(73, 32, 0)" stroke-opacity="0.12650964" stroke-linecap="round" stroke-linejoin="round"/>
    <path d="M 192.9054412841797 38.716182708740234 C 190.04052734375 51.83203887939453 167.5140380859375 78.87825775146484 151.19407653808594 61.321006774902344" stroke-width="4.0" fill="none" stroke="rgb(19, 0, 0)" stroke-opacity="1.0" stroke-linecap="round" stroke-linejoin="round"/>
    <path d="M 142.66403198242188 108.3134994506836 C 119.88220977783203 139.59678649902344 118.18858337402344 136.22515869140625 140.1072998046875 105.78418731689453" stroke-width="2.6564033031463623" fill="none" stroke="rgb(78, 0, 0)" stroke-opacity="1.0" stroke-linecap="round" stroke-linejoin="round"/>
    <path d="M 80.30719757080078 55.54576873779297 C 102.88910675048828 18.002458572387695 167.35635375976562 43.7401123046875 123.89966583251953 2.0027401447296143" stroke-width="3.892392873764038" fill="none" stroke="rgb(255, 245, 221)" stroke-opacity="0.13709398" stroke-linecap="round" stroke-linejoin="round"/>
    <path d="M 33.95220947265625 113.85484313964844 C 59.312217712402344 84.13053131103516 36.76889419555664 103.71202850341797 55.76923370361328 88.5593032836914" stroke-width="2.0" fill="none" stroke="rgb(125, 0, 0)" stroke-opacity="0.49219775" stroke-linecap="round" stroke-linejoin="round"/>
    <path d="M 40.61262893676758 192.68997192382812 C 22.99544906616211 213.97091674804688 59.15933609008789 199.91433715820312 -6.236360549926758 195.06150817871094" stroke-width="4.0" fill="none" stroke="rgb(40, 61, 0)" stroke-opacity="1.0" stroke-linecap="round" stroke-linejoin="round"/>
    <path d="M 161.8497314453125 44.87732696533203 C 209.33987426757812 20.333507537841797 206.35716247558594 -0.9798053503036499 187.20736694335938 69.17498016357422" stroke-width="4.0" fill="none" stroke="rgb(194, 77, 0)" stroke-opacity="0.9263051" stroke-linecap="round" stroke-linejoin="round"/>
    <path d="M 190.0376739501953 34.105525970458984 C 202.26319885253906 23.066192626953125 217.67774963378906 45.77977752685547 163.3822479248047 36.11606979370117" stroke-width="4.0" fill="none" stroke="rgb(135, 43, 0)" stroke-opacity="1.0" stroke-linecap="round" stroke-linejoin="round"/>
    <path d="M 187.85426330566406 166.59873962402344 C 184.3965301513672 152.53048706054688 169.72586059570312 163.58978271484375 230.50033569335938 159.54246520996094" stroke-width="3.980635643005371" fill="none" stroke="rgb(62, 0, 62)" stroke-opacity="0.6028639" stroke-linecap="round" stroke-linejoin="round"/>
  </g>
</svg>
