<?xml version="1.0" ?>
<svg xmlns="http://www.w3.org/2000/svg" version="1.1" width="229" height="229">
  <defs/>
  <g>
    <path d="M 52.8852424621582 247.4047088623047 C 42.40787887573242 192.05186462402344 57.6860237121582 217.58871459960938 44.24864196777344 180.97837829589844" stroke-width="3.898538589477539" fill="none" stroke="rgb(97, 35, 0)" stroke-opacity="1.0" stroke-linecap="round" stroke-linejoin="round"/>
    <path d="M 61.104793548583984 213.88937377929688 C 89.78035736083984 214.0494842529297 51.58710479736328 232.50074768066406 91.24874114990234 167.49810791015625" stroke-width="4.0" fill="none" stroke="rgb(117, 72, 9)" stroke-opacity="1.0" stroke-linecap="round" stroke-linejoin="round"/>
    <path d="M 173.76441955566406 31.20370864868164 C 195.6815948486328 19.3649845123291 209.26681518554688 29.828493118286133 161.83200073242188 60.101375579833984" stroke-width="4.0" fill="none" stroke="rgb(255, 148, 0)" stroke-opacity="0.49431574" stroke-linecap="round" stroke-linejoin="round"/>
    <path d="M 122.16566467285156 -5.24732780456543 C 113.06204986572266 82.11475372314453 118.42318725585938 -3.1004409790039062 99.54789733886719 15.494903564453125" stroke-width="2.0" fill="none" stroke="rgb(227, 214, 192)" stroke-opacity="0.6491051" stroke-linecap="round" stroke-linejoin="round"/>
    <path d="M 47.948829650878906 97.97709655761719 C 46.09954071044922 102.71013641357422 31.764209747314453 174.0395050048828 40.61082077026367 191.6919403076172" stroke-width="4.0" fill="none" stroke="rgb(0, 5, 0)" stroke-opacity="1.0" stroke-linecap="round" stroke-linejoin="round"/>
    <path d="M 3.799727439880371 56.25797653198242 C 18.18630027770996 2.3800854682922363 2.636091947555542 52.59586715698242 16.27680778503418 -2.4280707836151123" stroke-width="2.274238348007202" fill="none" stroke="rgb(201, 121, 86)" stroke-opacity="0.13995217" stroke-linecap="round" stroke-linejoin="round"/>
    <path d="M 107.48896026611328 48.960960388183594 C 117.6216812133789 24.365192413330078 128.08230590820312 23.007707595825195 98.80020141601562 47.25029373168945" stroke-width="2.0" fill="none" stroke="rgb(19, 0, 0)" stroke-opacity="1.0" stroke-linecap="round" stroke-linejoin="round"/>
    <path d="M 65.58232879638672 96.3328628540039 C 84.33126831054688 167.21437072753906 49.467838287353516 81.80540466308594 120.58021545410156 77.24708557128906" stroke-width="3.777531862258911" fill="none" stroke="rgb(146, 0, 169)" stroke-opacity="0.07090435" stroke-linecap="round" stroke-linejoin="round"/>
    <path d="M 188.1986541748047 151.2191162109375 C 265.6007080078125 152.03289794921875 230.27944946289062 153.8963165283203 185.50643920898438 126.7459716796875" stroke-width="4.0" fill="none" stroke="rgb(83, 0, 46)" stroke-opacity="0.6897509" stroke-linecap="round" stroke-linejoin="round"/>
    <path d="M 13.319896697998047 139.47259521484375 C 3.419358968734741 102.29631805419922 14.676569938659668 161.20094299316406 22.624906539916992 66.71990203857422" stroke-width="2.0" fill="none" stroke="rgb(232, 255, 230)" stroke-opacity="0.29789996" stroke-linecap="round" stroke-linejoin="round"/>
    <path d="M 147.32467651367188 15.394726753234863 C 118.35074615478516 51.22142791748047 158.48516845703125 33.50364685058594 205.5861358642578 27.503313064575195" stroke-width="4.0" fill="none" stroke="rgb(211, 92, 0)" stroke-opacity="1.0" stroke-linecap="round" stroke-linejoin="round"/>
    <path d="M 15.049805641174316 99.03536987304688 C 21.025087356567383 163.77215576171875 15.973775863647461 113.04558563232422 -4.259886264801025 190.69992065429688" stroke-width="2.7294044494628906" fill="none" stroke="rgb(26, 0, 0)" stroke-opacity="1.0" stroke-linecap="round" stroke-linejoin="round"/>
    <path d="M 141.55653381347656 101.32860565185547 C 127.89985656738281 152.61656188964844 137.40647888183594 115.44852447509766 110.88764953613281 102.04973602294922" stroke-width="3.5508055686950684" fill="none" stroke="rgb(0, 0, 255)" stroke-opacity="1.0" stroke-linecap="round" stroke-linejoin="round"/>
    <path d="M 179.3355255126953 44.16165542602539 C 155.9220428466797 49.12443923950195 180.24139404296875 49.89302062988281 180.29505920410156 43.922176361083984" stroke-width="4.0" fill="none" stroke="rgb(0, 0, 18)" stroke-opacity="1.0" stroke-linecap="round" stroke-linejoin="round"/>
    <path d="M 224.15521240234375 116.25709533691406 C 78.39681243896484 130.98745727539062 155.5223388671875 127.44908905029297 233.89080810546875 141.09213256835938" stroke-width="4.0" fill="none" stroke="rgb(196, 19, 0)" stroke-opacity="0.11719485" stroke-linecap="round" stroke-linejoin="round"/>
    <path d="M 195.25265502929688 35.763755798339844 C 182.27207946777344 61.06951141357422 190.84719848632812 93.52169036865234 138.1388397216797 93.62584686279297" stroke-width="4.0" fill="none" stroke="rgb(113, 27, 0)" stroke-opacity="1.0" stroke-linecap="round" stroke-linejoin="round"/>
    <path d="M 159.6274871826172 100.92888641357422 C 210.68096923828125 58.76449966430664 199.23683166503906 53.86895751953125 172.07374572753906 21.936798095703125" stroke-width="4.0" fill="none" stroke="rgb(119, 67, 0)" stroke-opacity="1.0" stroke-linecap="round" stroke-linejoin="round"/>
    <path d="M 185.88491821289062 167.76571655273438 C 193.68368530273438 124.85749053955078 224.73870849609375 140.42286682128906 223.6754150390625 151.06259155273438" stroke-width="4.0" fill="none" stroke="rgb(64, 14, 55)" stroke-opacity="1.0" stroke-linecap="round" stroke-linejoin="round"/>
    <path d="M 214.4424591064453 98.55392456054688 C 220.2278594970703 98.51644134521484 204.5468292236328 88.339599609375 158.2805938720703 141.6807861328125" stroke-width="4.0" fill="none" stroke="rgb(145, 0, 11)" stroke-opacity="1.0" stroke-linecap="round" stroke-linejoin="round"/>
    <path d="M 36.716793060302734 -24.552814483642578 C 16.675764083862305 32.108978271484375 48.34817123413086 12.987780570983887 16.587146759033203 32.545082092285156" stroke-width="2.0" fill="none" stroke="rgb(226, 210, 203)" stroke-opacity="0.25590444" stroke-linecap="round" stroke-linejoin="round"/>
    <path d="M 153.6231689453125 229.22854614257812 C 161.2908935546875 180.07489013671875 149.6875762939453 202.7841339111328 139.2050323486328 152.29623413085938" stroke-width="4.0" fill="none" stroke="rgb(47, 0, 0)" stroke-opacity="1.0" stroke-linecap="round" stroke-linejoin="round"/>
    <path d="M 63.038570404052734 1.9209849834442139 C 58.89317321777344 44.0054817199707 56.1381721496582 8.57906436920166 60.36271667480469 51.41722869873047" stroke-width="2.0" fill="none" stroke="rgb(80, 54, 22)" stroke-opacity="0.3530382" stroke-linecap="round" stroke-linejoin="round"/>
    <path d="M 31.994436264038086 145.12086486816406 C 2.0285375118255615 96.18697357177734 -5.528197288513184 113.10248565673828 39.433311462402344 106.16675567626953" stroke-width="2.501315116882324" fill="none" stroke="rgb(190, 52, 89)" stroke-opacity="0.103342354" stroke-linecap="round" stroke-linejoin="round"/>
    <path d="M 178.02609252929688 114.22953033447266 C 207.5416259765625 76.26651763916016 156.9281463623047 92.71762084960938 177.19140625 122.16608428955078" stroke-width="4.0" fill="none" stroke="rgb(255, 199, 0)" stroke-opacity="1.0" stroke-linecap="round" stroke-linejoin="round"/>
    <path d="M 129.30667114257812 42.788482666015625 C 166.55581665039062 29.09022331237793 156.7694549560547 54.478580474853516 151.16696166992188 70.10999298095703" stroke-width="4.0" fill="none" stroke="rgb(0, 0, 255)" stroke-opacity="1.0" stroke-linecap="round" stroke-linejoin="round"/>
    <path d="M 72.7790298461914 69.43326568603516 C 89.05831146240234 -0.6101775169372559 74.93450927734375 27.82549285888672 88.10662078857422 -5.065555095672607" stroke-width="2.328402519226074" fill="none" stroke="rgb(164, 129, 106)" stroke-opacity="0.16544361" stroke-linecap="round" stroke-linejoin="round"/>
    <path d="M 28.687101364135742 100.87632751464844 C 69.92923736572266 106.23448944091797 30.53396224975586 82.28324890136719 95.42414093017578 86.80583953857422" stroke-width="4.0" fill="none" stroke="rgb(197, 116, 12)" stroke-opacity="0.20420499" stroke-linecap="round" stroke-linejoin="round"/>
    <path d="M 106.57621765136719 169.2099151611328 C 44.113685607910156 133.56935119628906 78.52198028564453 160.29953002929688 52.148460388183594 200.16091918945312" stroke-width="4.0" fill="none" stroke="rgb(11, 0, 131)" stroke-opacity="1.0" stroke-linecap="round" stroke-linejoin="round"/>
    <path d="M 72.07384490966797 226.07920837402344 C 156.95077514648438 230.84169006347656 110.1246566772461 239.63314819335938 128.3016815185547 164.2718048095703" stroke-width="4.0" fill="none" stroke="rgb(39, 0, 0)" stroke-opacity="1.0" stroke-linecap="round" stroke-linejoin="round"/>
    <path d="M 204.3301239013672 187.87841796875 C 209.25416564941406 191.76744079589844 183.00619506835938 200.6026611328125 204.8272705078125 201.69322204589844" stroke-width="2.0" fill="none" stroke="rgb(255, 141, 0)" stroke-opacity="0.0" stroke-linecap="round" stroke-linejoin="round"/>
    <path d="M 169.92803955078125 223.44003295898438 C 229.8203582763672 233.11642456054688 228.40060424804688 236.34609985351562 229.0066375732422 235.909912109375" stroke-width="3.284595489501953" fill="none" stroke="rgb(140, 0, 203)" stroke-opacity="0.18086842" stroke-linecap="round" stroke-linejoin="round"/>
    <path d="M 32.773441314697266 33.09213638305664 C 75.02046203613281 -2.4652934074401855 87.15852355957031 -12.10292911529541 95.78790283203125 -16.484899520874023" stroke-width="2.0" fill="none" stroke="rgb(141, 101, 49)" stroke-opacity="0.14373672" stroke-linecap="round" stroke-linejoin="round"/>
    <path d="M 199.46177673339844 32.133338928222656 C 185.938720703125 51.40116882324219 160.05857849121094 91.3646240234375 143.55003356933594 47.62894058227539" stroke-width="4.0" fill="none" stroke="rgb(17, 0, 10)" stroke-opacity="1.0" stroke-linecap="round" stroke-linejoin="round"/>
    <path d="M 147.69293212890625 110.497802734375 C 123.47746276855469 133.0618133544922 125.87535858154297 125.87785339355469 141.41636657714844 101.76365661621094" stroke-width="3.180562973022461" fill="none" stroke="rgb(144, 28, 0)" stroke-opacity="1.0" stroke-linecap="round" stroke-linejoin="round"/>
    <path d="M 71.71125793457031 61.984275817871094 C 104.05860900878906 9.857256889343262 119.46880340576172 45.478248596191406 94.96990203857422 8.189799308776855" stroke-width="2.6758670806884766" fill="none" stroke="rgb(240, 255, 245)" stroke-opacity="0.29111016" stroke-linecap="round" stroke-linejoin="round"/>
    <path d="M 18.927135467529297 136.76100158691406 C 59.51790237426758 79.94761657714844 39.751548767089844 104.62284851074219 51.11778259277344 94.62147521972656" stroke-width="2.0" fill="none" stroke="rgb(90, 0, 0)" stroke-opacity="0.7312106" stroke-linecap="round" stroke-linejoin="round"/>
    <path d="M 41.28963851928711 193.54757690429688 C 14.334592819213867 211.22998046875 58.79372787475586 193.63217163085938 -14.703042984008789 198.6316680908203" stroke-width="2.422222137451172" fill="none" stroke="rgb(0, 24, 0)" stroke-opacity="1.0" stroke-linecap="round" stroke-linejoin="round"/>
    <path d="M 164.19586181640625 55.12478256225586 C 199.37620544433594 5.227640151977539 205.749755859375 9.07026481628418 184.01852416992188 84.27320098876953" stroke-width="4.0" fill="none" stroke="rgb(234, 131, 12)" stroke-opacity="0.6496259" stroke-linecap="round" stroke-linejoin="round"/>
    <path d="M 184.79067993164062 32.70573425292969 C 200.577880859375 11.124855041503906 233.8603515625 40.37560272216797 162.6367950439453 33.80525207519531" stroke-width="4.0" fill="none" stroke="rgb(47, 14, 0)" stroke-opacity="0.8527261" stroke-linecap="round" stroke-linejoin="round"/>
    <path d="M 186.8060760498047 170.55052185058594 C 182.6102752685547 156.2383270263672 167.10365295410156 161.91064453125 233.51063537597656 160.18826293945312" stroke-width="3.9705278873443604" fill="none" stroke="rgb(101, 59, 110)" stroke-opacity="0.4199756" stroke-linecap="round" stroke-linejoin="round"/>
  </g>
</svg>
