<?xml version="1.0" ?>
<svg xmlns="http://www.w3.org/2000/svg" version="1.1" width="229" height="229">
  <defs/>
  <g>
    <path d="M 228.4611053466797 213.4562530517578 C 228.188232421875 215.31890869140625 232.53868103027344 211.52682495117188 234.27491760253906 204.91534423828125 C 231.1935577392578 199.80113220214844 233.99583435058594 202.0352783203125 234.2751922607422 211.66612243652344 C 226.9523468017578 215.09910583496094 217.93768310546875 212.15806579589844 226.40249633789062 212.45953369140625" stroke-width="3.240734100341797" fill="none" stroke="rgb(0, 255, 0)" stroke-opacity="0.0" stroke-linecap="round" stroke-linejoin="round"/>
    <path d="M 172.1990203857422 224.5511932373047 C 145.42349243164062 214.73033142089844 135.85316467285156 219.8903350830078 146.70252990722656 220.35263061523438 C 145.2378387451172 224.45755004882812 149.8488311767578 227.95523071289062 145.67532348632812 231.52947998046875 C 141.94158935546875 230.90200805664062 147.4688262939453 229.7132568359375 144.7727813720703 234.9220428466797" stroke-width="7.9706950187683105" fill="none" stroke="rgb(0, 255, 247)" stroke-opacity="1.0" stroke-linecap="round" stroke-linejoin="round"/>
    <path d="M 117.93809509277344 147.5032501220703 C 129.9258270263672 162.37228393554688 125.34043884277344 136.5688018798828 119.86808013916016 134.0751953125 C 112.61051177978516 135.90481567382812 116.13288116455078 139.20372009277344 118.22261047363281 136.261474609375 C 114.26251220703125 124.72772216796875 107.84822845458984 133.00079345703125 114.29386138916016 142.2885284423828" stroke-width="7.234798908233643" fill="none" stroke="rgb(0, 255, 255)" stroke-opacity="1.0" stroke-linecap="round" stroke-linejoin="round"/>
    <path d="M 220.1452178955078 187.98016357421875 C 223.2550811767578 182.57427978515625 226.80531311035156 181.3447265625 219.32618713378906 184.84291076660156 C 217.39505004882812 193.9696807861328 223.52285766601562 186.21163940429688 229.26759338378906 169.01754760742188 C 224.34515380859375 177.45111083984375 223.1894073486328 183.70416259765625 223.80015563964844 189.53189086914062" stroke-width="5.316744327545166" fill="none" stroke="rgb(255, 255, 234)" stroke-opacity="1.0" stroke-linecap="round" stroke-linejoin="round"/>
    <path d="M 6.032034397125244 21.984046936035156 C 4.872520923614502 19.312702178955078 16.284832000732422 19.1590518951416 19.61419105529785 22.147165298461914 C 23.231735229492188 22.426437377929688 20.2326717376709 33.51980972290039 14.340570449829102 35.70105743408203 C 14.221887588500977 40.190006256103516 6.203731060028076 34.39601135253906 9.463225364685059 39.000240325927734" stroke-width="8.0" fill="none" stroke="rgb(255, 255, 255)" stroke-opacity="1.0" stroke-linecap="round" stroke-linejoin="round"/>
    <path d="M 164.67764282226562 21.46593475341797 C 174.2623748779297 6.143644332885742 164.96072387695312 22.963624954223633 169.79991149902344 25.241777420043945 C 175.7549591064453 32.51088333129883 178.7523193359375 36.04450988769531 173.79591369628906 26.76740074157715 C 178.8770294189453 21.07689094543457 183.4417266845703 23.270376205444336 175.92689514160156 21.735408782958984" stroke-width="8.0" fill="none" stroke="rgb(0, 254, 255)" stroke-opacity="1.0" stroke-linecap="round" stroke-linejoin="round"/>
    <path d="M 233.79209899902344 128.24635314941406 C 230.55938720703125 125.78260803222656 229.07769775390625 122.36280822753906 231.7023162841797 126.77912139892578 C 232.77439880371094 133.00083923339844 234.71206665039062 121.64739227294922 232.3393096923828 119.50343322753906 C 221.5178985595703 119.73921966552734 227.54812622070312 127.21098327636719 218.83013916015625 121.32869720458984" stroke-width="2.064344882965088" fill="none" stroke="rgb(255, 0, 121)" stroke-opacity="1.0" stroke-linecap="round" stroke-linejoin="round"/>
    <path d="M 107.2778549194336 191.51187133789062 C 111.05724334716797 199.74246215820312 119.31729888916016 205.75303649902344 118.86741638183594 202.9115753173828 C 117.01549530029297 212.21441650390625 123.41932678222656 209.52235412597656 112.97999572753906 211.1199493408203 C 125.55017852783203 206.87124633789062 131.4715576171875 211.80859375 119.37721252441406 214.89468383789062" stroke-width="6.818345546722412" fill="none" stroke="rgb(255, 255, 255)" stroke-opacity="1.0" stroke-linecap="round" stroke-linejoin="round"/>
    <path d="M 149.2054443359375 225.87095642089844 C 153.20755004882812 230.855224609375 157.37062072753906 237.5386199951172 157.02847290039062 240.04957580566406 C 142.51438903808594 236.1932373046875 143.3219451904297 241.4088592529297 137.67572021484375 241.17559814453125 C 142.171630859375 242.62139892578125 144.2372589111328 240.38589477539062 145.9624786376953 243.8942413330078" stroke-width="2.0" fill="none" stroke="rgb(255, 255, 0)" stroke-opacity="1.0" stroke-linecap="round" stroke-linejoin="round"/>
    <path d="M 91.93462371826172 193.53225708007812 C 87.83026123046875 201.30035400390625 95.0995864868164 204.13241577148438 94.1652603149414 198.56222534179688 C 104.1656265258789 197.84713745117188 104.05532836914062 193.3439178466797 96.07933807373047 199.92681884765625 C 108.60799407958984 196.25233459472656 107.8882064819336 198.83084106445312 102.18263244628906 173.7257537841797" stroke-width="4.277259826660156" fill="none" stroke="rgb(255, 255, 255)" stroke-opacity="1.0" stroke-linecap="round" stroke-linejoin="round"/>
  </g>
</svg>
